{
.appVersion = "1176";
classes = (
{
code = "a b c d e g h i j k l m n o p q r s t u v w x y z\012agrave aacute acircumflex atilde adieresis aring ae\012ccedilla egrave eacute ecircumflex edieresis igrave\012iacute icircumflex idieresis eth ntilde ograve\012oacute ocircumflex otilde odieresis oslash ugrave\012uacute ucircumflex udieresis yacute thorn ydieresis\012germandbls amacron emacron imacron omacron umacron\012abreve cdotaccent dcaron ebreve eogonek gdotaccent\012ibreve dotlessi lslash obreve oe tcaron ubreve\012longs uni0195 uni01BF uni01E3 uni01EB uni021D\012uni0233 uni0237 uni1D79 uni1E8F uni1E9C uniA741\012uniA751 uniA753 uniA757 uniA75D uniA76B uniA76F\012uniA77A uniA77C uniA783 uniA785 uniA787\012# uniFB00 uniFB01 uniFB02 uniFB03 uniFB04\012uniFB05 uniFB06\012# f_f_udieresis f_thorn f_thorn.nordic f_eth.nordic\012# f_j f_udieresis f_odieresis\012";
name = AllLowerCaseexclf;
},
{
code = "agrave acircumflex atilde adieresis aring egrave\012ecircumflex edieresis igrave iacute icircumflex\012idieresis ograve ocircumflex otilde odieresis\012ugrave ucircumflex udieresis ydieresis amacron\012abreve emacron ebreve imacron ibreve omacron\012obreve umacron ubreve uni01E3\012";
name = HighDiacritics;
},
{
code = "f uniFB00";
name = LowerCase_f;
},
{
code = "acutecomb gravecomb tildecomb circumflexcomb macroncomb\012uni0305 brevecomb dotaccentcomb dieresiscomb ringcomb caroncomb\012uni035B";
name = CombDiacritics;
},
{
code = "zero one two three four five six seven eight nine dollar cent";
name = FIGURES_LINING_TABULAR;
},
{
code = "zero.tosf one.tosf two.tosf three.tosf four.tosf five.tosf six.tosf seven.tosf eight.tosf nine.tosf dollar.oldstyle cent.oldstyle";
name = FIGURES_OLDSTYLE_TABULAR;
},
{
code = "zero.lf one.lf two.lf three.lf four.lf five.lf six.lf seven.lf eight.lf nine.lf dollar cent";
name = FIGURES_LINING;
},
{
code = "zero.osf one.osf two.osf three.osf four.osf five.osf six.osf seven.osf eight.osf nine.osf dollar.oldstyle cent.oldstyle";

glyphs = (
{
glyphname = A;
lastChange = "2018-11-20 17:32:34 +0000";
layers = (
{
anchors = (
{
name = bottom;
position = "{635, 0}";
},
{
name = ogonek;
position = "{1155, 10}";
},
{
name = top;
position = "{635, 1358}";
}
);
layerId = "6CE37295-6E30-426D-87AF-6FEE9061C297";
paths = (
{
closed = 1;
nodes = (
"1198 0 LINE",
"788 1222 LINE SMOOTH",
"770 1276 OFFCURVE",
"754 1331 OFFCURVE",
"741 1385 CURVE",
"656 1385 LINE",
"621 1348 OFFCURVE",
"488 1269 OFFCURVE",
"436 1259 CURVE",
"436 1183 LINE",
"479 1169 OFFCURVE",
"540 1142 OFFCURVE",
"603 948 CURVE SMOOTH",
"910 0 LINE"
);
},
{
closed = 1;
nodes = (
"290 0 LINE",
"659 1205 LINE",
"523 1234 LINE",
"122 0 LINE"
);
},
{
closed = 1;
nodes = (
"919 441 LINE",
"887 529 LINE",
"357 529 LINE",
"324 441 LINE"
);
},
{
closed = 1;
nodes = (
"1298 0 LINE",
"1298 76 LINE",
"1039 106 LINE",
"692 76 LINE",
"692 0 LINE"
);
},
{
closed = 1;
nodes = (
"508 0 LINE",
"508 76 LINE",
"230 106 LINE",
"22 76 LINE",
"22 0 LINE"
);
}
);
userData = {
assembly = "NPUSHB[ ]\011/* 11 values pushed */
61 56 2 9 8 1 76 32 1 1 73 
MPPEM[ ]\011/* MeasurePixelPerEm */
PUSHB[ ]\011/* 1 value pushed */
51 
LT[ ]\011/* LessThan */
IF[ ]\011/* If */
NPUSHB[ ]\011/* 36 values pushed */
0 8 7 9 7 8 9 128 0 9 0 3 0 9 3 103 0 7 7 74 77 6 4 2 3 0 0 1 97 5 1 1 1 69 1 78 
ELSE[ ]\011/* Else */
MPPEM[ ]\011/* MeasurePixelPerEm */
PUSHB[ ]\011/* 1 value pushed */
60 
LT[ ]\011/* LessThan */
IF[ ]\011/* If */
NPUSHB[ ]\011/* 33 values pushed */
0 8 7 9 7 8 9 128 0 9 0 3 0 9 3 103 6 4 2 3 0 5 1 1 0 1 101 0 7 7 74 7 78 
ELSE[ ]\011/* Else */
NPUSHB[ ]\011/* 41 values pushed */
0 7 8 7 133 0 8 9 8 133 0 9 0 3 0 9 3 103 6 4 2 3 0 1 1 0 89 6 4 2 3 0 0 1 97 5 1 1 0 1 81 
EIF[ ]\011/* EndIf */
EIF[ ]\011/* EndIf */
NPUSHB[ ]\011/* 14 values pushed */
60 58 36 41 35 50 21 53 34 66 17 10 11 31 
CALL[ ]\011/* CallFunction */";
};
width = 1320;
},
{
anchors = (
{
name = bottom;
position = "{572, 0}";
},
{
name = ogonek;
position = "{1058, 10}";
},
{
name = top;
position = "{582, 1358}";
}
);
background = {
paths = (
{
closed = 1;
nodes = (
"428 0 LINE",
"428 48 LINE",
"183 78 LINE",
"20 48 LINE",
"20 0 LINE"
);
}
);
};
layerId = "EBD25FEC-6C57-4903-A936-5FDFC9C63FB2";
paths = (
{
closed = 1;
nodes = (
"1079 0 LINE",
"669 1222 LINE SMOOTH",
"651 1276 OFFCURVE",
"635 1331 OFFCURVE",
"622 1385 CURVE",
"589 1385 LINE",
"576 1356 OFFCURVE",
"510 1273 OFFCURVE",
"476 1259 CURVE",
"476 1213 LINE",
"519 1199 OFFCURVE",
"568 1178 OFFCURVE",
"630 988 CURVE SMOOTH",
"950 0 LINE"
);
},
{
closed = 1;
nodes = (
"219 0 LINE",
"588 1205 LINE",
"530 1234 LINE",
"130 0 LINE"
);
},
{
closed = 1;
nodes = (
"861 455 LINE",
"838 516 LINE",
"341 516 LINE",
"319 455 LINE"
);
},
{
closed = 1;
nodes = (
"1199 0 LINE",
"1199 48 LINE",
"1011 78 LINE",
"741 48 LINE",
"741 0 LINE"
);
},
{
closed = 1;
nodes = (
"428 0 LINE",
"428 48 LINE",
"183 78 LINE",
"20 48 LINE",
"20 0 LINE"
);
}
);
width = 1219;
},
{
anchors = (
{
name = bottom;
position = "{679, 0}";
},
{
name = ogonek;
position = "{1333, 10}";
},
{
name = top;
position = "{679, 1358}";
}
);
layerId = "1E14FD48-0E57-4B09-9E12-AF4BF73A87E4";
paths = (
{
closed = 1;
nodes = (
"1298 0 LINE",
"832 1222 LINE SMOOTH",
"811 1276 OFFCURVE",
"796 1331 OFFCURVE",
"785 1385 CURVE",
"700 1385 LINE",
"675 1353 OFFCURVE",
"547 1279 OFFCURVE",
"480 1269 CURVE",
"480 1193 LINE",
"523 1178 OFFCURVE",
"571 1145 OFFCURVE",
"647 948 CURVE SMOOTH",
"1012 0 LINE"
);
},
{
closed = 1;
nodes = (
"280 0 LINE",
"703 1205 LINE",
"567 1234 LINE",
"112 0 LINE"
);
},
{
closed = 1;
nodes = (
"963 441 LINE",
"931 529 LINE",
"401 529 LINE",
"368 441 LINE"
);
},
{
closed = 1;
nodes = (
"1388 0 LINE",
"1388 76 LINE",
"1154 106 LINE",
"785 76 LINE",
"785 0 LINE"
);
},
{
closed = 1;
nodes = (
"507 0 LINE",
"507 76 LINE",
"211 106 LINE",
"22 76 LINE",
"22 0 LINE"
);
}
);
userData = {
assembly = "NPUSHB[ ]\011/* 11 values pushed */
61 56 2 9 8 1 76 32 1 1 73 
MPPEM[ ]\011/* MeasurePixelPerEm */
PUSHB[ ]\011/* 1 value pushed */
51 
LT[ ]\011/* LessThan */
IF[ ]\011/* If */
NPUSHB[ ]\011/* 36 values pushed */
0 8 7 9 7 8 9 128 0 9 0 3 0 9 3 103 0 7 7 74 77 6 4 2 3 0 0 1 97 5 1 1 1 69 1 78 
ELSE[ ]\011/* Else */
MPPEM[ ]\011/* MeasurePixelPerEm */
PUSHB[ ]\011/* 1 value pushed */
60 
LT[ ]\011/* LessThan */
IF[ ]\011/* If */
NPUSHB[ ]\011/* 33 values pushed */
0 8 7 9 7 8 9 128 0 9 0 3 0 9 3 103 6 4 2 3 0 5 1 1 0 1 101 0 7 7 74 7 78 
ELSE[ ]\011/* Else */
NPUSHB[ ]\011/* 41 values pushed */
0 7 8 7 133 0 8 9 8 133 0 9 0 3 0 9 3 103 6 4 2 3 0 1 1 0 89 6 4 2 3 0 0 1 97 5 1 1 0 1 81 
EIF[ ]\011/* EndIf */
EIF[ ]\011/* EndIf */
NPUSHB[ ]\011/* 14 values pushed */
60 58 36 41 35 50 21 53 34 66 17 10 11 31 
CALL[ ]\011/* CallFunction */";
};
width = 1410;
},
{
anchors = (
{
name = bottom;
position = "{693, 0}";
},
{
name = ogonek;
position = "{1249, 10}";
},
{
name = top;
position = "{673, 1358}";
}
);
layerId = "16DF9356-34D2-4C02-8100-FB39A491A1B7";
paths = (
{
closed = 1;
nodes = (
"1188 0 LINE",
"749 1222 LINE SMOOTH",
"730 1276 OFFCURVE",
"713 1331 OFFCURVE",
"699 1385 CURVE",
"656 1385 LINE",
"637 1350 OFFCURVE",
"573 1281 OFFCURVE",
"527 1259 CURVE",
"527 1211 LINE",
"573 1207 OFFCURVE",
"629 1195 OFFCURVE",
"701 988 CURVE SMOOTH",
"1044 0 LINE"
);
},
{
closed = 1;
nodes = (
"261 0 LINE",
"656 1205 LINE",
"594 1234 LINE",
"166 0 LINE"
);
},
{
closed = 1;
nodes = (
"948 450 LINE",
"924 520 LINE",
"392 520 LINE",
"369 450 LINE"
);
},
{
closed = 1;
nodes = (
"1310 0 LINE",
"1310 48 LINE",
"1113 78 LINE",
"816 48 LINE",
"816 0 LINE"
);
},
{
closed = 1;
nodes = (
"489 0 LINE",
"489 48 LINE",
"227 78 LINE",
"54 48 LINE",
"54 0 LINE"
);
}
);
width = 1365;
},
{
anchors = (
{
name = bottom;
position = "{581, 0}";
},
{
name = ogonek;
position = "{1094, 10}";
},
{
name = top;
position = "{581, 1358}";
}
);
layerId = "20F63CDD-78BD-4F3A-8DC2-32840B76756A";
paths = (
{
closed = 1;
nodes = (
"1115 0 LINE",
"725 1222 LINE SMOOTH",
"708 1276 OFFCURVE",
"692 1328 OFFCURVE",
"678 1385 CURVE",
"605 1385 LINE",
"580 1347 OFFCURVE",
"455 1272 OFFCURVE",
"405 1262 CURVE",
"405 1192 LINE",
"448 1178 OFFCURVE",
"511 1153 OFFCURVE",
"570 957 CURVE SMOOTH",
"857 0 LINE"
);
},
{
closed = 1;
nodes = (
"254 0 LINE",
"604 1205 LINE",
"485 1234 LINE",
"105 0 LINE"
);
},
{
closed = 1;
nodes = (
"866 443 LINE",
"836 527 LINE",
"314 527 LINE",
"283 443 LINE"
);
},
{
closed = 1;
nodes = (
"1201 0 LINE",
"1201 70 LINE",
"992 100 LINE",
"674 70 LINE",
"674 0 LINE"
);
},
{
closed = 1;
nodes = (
"437 0 LINE",
"437 70 LINE",
"191 100 LINE",
"19 70 LINE",
"19 0 LINE"
);
}
);
width = 1219;
}
);
leftKerningGroup = A;
note = A;
rightKerningGroup = A;
unicode = 0041;
},
{
glyphname = Aring;
lastChange = "2018-11-20 17:33:45 +0000";
layers = (
{
anchors = (
{
name = top;
position = "{681, 1628}";
}
);
layerId = "6CE37295-6E30-426D-87AF-6FEE9061C297";
paths = (
{
closed = 1;
nodes = (
"1198 -1 LINE",
"754 1323 LINE",
"525 1192 LINE",
"909 0 LINE"
);
},
{
closed = 1;
nodes = (
"919 441 LINE",
"887 529 LINE",
"357 529 LINE",
"324 441 LINE"
);
},
{
closed = 1;
nodes = (
"791 1221 OFFCURVE",
"907 1320 OFFCURVE",
"907 1446 CURVE SMOOTH",
"907 1574 OFFCURVE",
"795 1669 OFFCURVE",
"643 1669 CURVE SMOOTH",
"491 1669 OFFCURVE",
"379 1574 OFFCURVE",
"379 1446 CURVE SMOOTH",
"379 1319 OFFCURVE",
"494 1221 OFFCURVE",
"643 1221 CURVE SMOOTH"
);
},
{
closed = 1;
nodes = (
"590 1307 OFFCURVE",
"553 1364 OFFCURVE",
"553 1446 CURVE SMOOTH",
"553 1525 OFFCURVE",
"594 1590 OFFCURVE",
"643 1590 CURVE SMOOTH",
"692 1590 OFFCURVE",
"734 1525 OFFCURVE",
"734 1446 CURVE SMOOTH",
"734 1364 OFFCURVE",
"697 1307 OFFCURVE",
"643 1307 CURVE SMOOTH"
);
},
{
closed = 1;
nodes = (
"290 0 LINE",
"682 1279 LINE",
"546 1308 LINE",
"122 0 LINE"
);
},
{
closed = 1;
nodes = (
"1298 0 LINE",
"1298 76 LINE",
"1039 106 LINE",
"692 76 LINE",
"692 0 LINE"
);
},
{
closed = 1;
nodes = (
"508 0 LINE",
"508 76 LINE",
"230 106 LINE",
"22 76 LINE",
"22 0 LINE"
);
}
);
userData = {
assembly = "NPUSHB[ ]\011/* 20 values pushed */
47 1 9 8 50 38 2 10 9 84 1 11 10 60 5 2 0 1 4 76 
MPPEM[ ]\011/* MeasurePixelPerEm */
PUSHB[ ]\011/* 1 value pushed */
51 
LT[ ]\011/* LessThan */
IF[ ]\011/* If */
NPUSHB[ ]\011/* 41 values pushed */
0 6 0 8 9 6 8 105 0 11 0 2 1 11 2 103 0 10 10 9 97 0 9 9 74 77 7 5 3 3 1 1 0 95 4 1 0 0 69 0 78 
ELSE[ ]\011/* Else */
MPPEM[ ]\011/* MeasurePixelPerEm */
PUSHB[ ]\011/* 1 value pushed */
60 
LT[ ]\011/* LessThan */
IF[ ]\011/* If */
NPUSHB[ ]\011/* 38 values pushed */
0 6 0 8 9 6 8 105 0 11 0 2 1 11 2 103 7 5 3 3 1 4 1 0 1 0 99 0 10 10 9 97 0 9 9 74 10 78 
ELSE[ ]\011/* Else */
NPUSHB[ ]\011/* 47 values pushed */
0 6 0 8 9 6 8 105 0 9 0 10 11 9 10 105 0 11 0 2 1 11 2 103 7 5 3 3 1 0 0 1 89 7 5 3 3 1 1 0 95 4 1 0 1 0 79 
EIF[ ]\011/* EndIf */
EIF[ ]\011/* EndIf */
NPUSHB[ ]\011/* 18 values pushed */
88 86 80 79 74 72 40 28 39 34 66 23 53 37 48 12 11 31 
CALL[ ]\011/* CallFunction */";
};
width = 1320;
},
{
anchors = (
{
name = top;
position = "{602, 1557}";
}
);
layerId = "EBD25FEC-6C57-4903-A936-5FDFC9C63FB2";
paths = (
{
closed = 1;
nodes = (
"1078 0 LINE",
"651 1285 LINE",
"546 1243 LINE",
"945 0 LINE"
);
},
{
closed = 1;
nodes = (
"859 451 LINE",
"836 520 LINE",
"339 520 LINE",
"317 451 LINE"
);
},
{
closed = 1;
nodes = (
"688 1233 OFFCURVE",
"777 1305 OFFCURVE",
"777 1413 CURVE SMOOTH",
"777 1508 OFFCURVE",
"697 1593 OFFCURVE",
"594 1593 CURVE SMOOTH",
"499 1593 OFFCURVE",
"410 1521 OFFCURVE",
"410 1413 CURVE SMOOTH",
"410 1309 OFFCURVE",
"483 1233 OFFCURVE",
"594 1233 CURVE SMOOTH"
);
},
{
closed = 1;
nodes = (
"532 1292 OFFCURVE",
"485 1342 OFFCURVE",
"485 1413 CURVE SMOOTH",
"485 1470 OFFCURVE",
"524 1532 OFFCURVE",
"594 1532 CURVE SMOOTH",
"656 1532 OFFCURVE",
"702 1489 OFFCURVE",
"702 1413 CURVE SMOOTH",
"702 1348 OFFCURVE",
"662 1292 OFFCURVE",
"594 1292 CURVE SMOOTH"
);
},
{
closed = 1;
nodes = (
"219 0 LINE",
"602 1258 LINE",
"544 1287 LINE",
"130 0 LINE"
);
},
{
closed = 1;
nodes = (
"1199 0 LINE",
"1199 48 LINE",
"1006 78 LINE",
"736 48 LINE",
"736 0 LINE"
);
},
{
closed = 1;
nodes = (
"428 0 LINE",
"428 48 LINE",
"183 78 LINE",
"20 48 LINE",
"20 0 LINE"
);
}
);
width = 1219;
},
{
anchors = (
{
name = top;
position = "{731, 1627}";
}
);
layerId = "1E14FD48-0E57-4B09-9E12-AF4BF73A87E4";
paths = (
{
closed = 1;
nodes = (
"1298 0 LINE",
"786 1342 LINE",
"569 1151 LINE",
"1012 0 LINE"
);
},
{
closed = 1;
nodes = (
"963 441 LINE",
"931 529 LINE",
"401 529 LINE",
"368 441 LINE"
);
},
{
closed = 1;
nodes = (
"830 1221 OFFCURVE",
"946 1320 OFFCURVE",
"946 1446 CURVE SMOOTH",
"946 1574 OFFCURVE",
"834 1669 OFFCURVE",
"682 1669 CURVE SMOOTH",
"530 1669 OFFCURVE",
"418 1574 OFFCURVE",
"418 1446 CURVE SMOOTH",
"418 1319 OFFCURVE",
"533 1221 OFFCURVE",
"682 1221 CURVE SMOOTH"
);
},
{
closed = 1;
nodes = (
"629 1307 OFFCURVE",
"592 1364 OFFCURVE",
"592 1446 CURVE SMOOTH",
"592 1525 OFFCURVE",
"633 1590 OFFCURVE",
"682 1590 CURVE SMOOTH",
"731 1590 OFFCURVE",
"773 1525 OFFCURVE",
"773 1446 CURVE SMOOTH",
"773 1364 OFFCURVE",
"736 1307 OFFCURVE",
"682 1307 CURVE SMOOTH"
);
},
{
closed = 1;
nodes = (
"280 0 LINE",
"725 1269 LINE",
"589 1298 LINE",
"112 0 LINE"
);
},
{
closed = 1;
nodes = (
"1388 0 LINE",
"1388 76 LINE",
"1154 106 LINE",
"785 76 LINE",
"785 0 LINE"
);
},
{
closed = 1;
nodes = (
"507 0 LINE",
"507 76 LINE",
"211 106 LINE",
"22 76 LINE",
"22 0 LINE"
);
}
);
userData = {
assembly = "NPUSHB[ ]\011/* 20 values pushed */
47 1 9 8 50 38 2 10 9 84 1 11 10 60 5 2 0 1 4 76 
MPPEM[ ]\011/* MeasurePixelPerEm */
PUSHB[ ]\011/* 1 value pushed */
51 
LT[ ]\011/* LessThan */
IF[ ]\011/* If */
NPUSHB[ ]\011/* 41 values pushed */
0 6 0 8 9 6 8 105 0 11 0 2 1 11 2 103 0 10 10 9 97 0 9 9 74 77 7 5 3 3 1 1 0 95 4 1 0 0 69 0 78 
ELSE[ ]\011/* Else */
MPPEM[ ]\011/* MeasurePixelPerEm */
PUSHB[ ]\011/* 1 value pushed */
60 
LT[ ]\011/* LessThan */
IF[ ]\011/* If */
NPUSHB[ ]\011/* 38 values pushed */
0 6 0 8 9 6 8 105 0 11 0 2 1 11 2 103 7 5 3 3 1 4 1 0 1 0 99 0 10 10 9 97 0 9 9 74 10 78 
ELSE[ ]\011/* Else */
NPUSHB[ ]\011/* 47 values pushed */
0 6 0 8 9 6 8 105 0 9 0 10 11 9 10 105 0 11 0 2 1 11 2 103 7 5 3 3 1 0 0 1 89 7 5 3 3 1 1 0 95 4 1 0 1 0 79 
EIF[ ]\011/* EndIf */
EIF[ ]\011/* EndIf */
NPUSHB[ ]\011/* 18 values pushed */
88 86 80 79 74 72 40 28 39 34 66 23 53 37 48 12 11 31 
CALL[ ]\011/* CallFunction */";
};
width = 1410;
},
{
anchors = (
{
name = top;
position = "{715, 1554}";
}
);
layerId = "16DF9356-34D2-4C02-8100-FB39A491A1B7";
paths = (
{
closed = 1;
nodes = (
"1188 0 LINE",
"719 1305 LINE",
"616 1233 LINE",
"1044 0 LINE"
);
},
{
closed = 1;
nodes = (
"948 451 LINE",
"924 520 LINE",
"392 520 LINE",
"369 451 LINE"
);
},
{
closed = 1;
nodes = (
"751 1233 OFFCURVE",
"840 1305 OFFCURVE",
"840 1413 CURVE SMOOTH",
"840 1508 OFFCURVE",
"760 1593 OFFCURVE",
"657 1593 CURVE SMOOTH",
"562 1593 OFFCURVE",
"473 1521 OFFCURVE",
"473 1413 CURVE SMOOTH",
"473 1309 OFFCURVE",
"546 1233 OFFCURVE",
"657 1233 CURVE SMOOTH"
);
},
{
closed = 1;
nodes = (
"595 1292 OFFCURVE",
"548 1342 OFFCURVE",
"548 1413 CURVE SMOOTH",
"548 1470 OFFCURVE",
"587 1532 OFFCURVE",
"657 1532 CURVE SMOOTH",
"719 1532 OFFCURVE",
"765 1489 OFFCURVE",
"765 1413 CURVE SMOOTH",
"765 1348 OFFCURVE",
"725 1292 OFFCURVE",
"657 1292 CURVE SMOOTH"
);
},
{
closed = 1;
nodes = (
"261 0 LINE",
"673 1257 LINE",
"611 1286 LINE",
"166 0 LINE"
);
},
{
closed = 1;
nodes = (
"1310 0 LINE",
"1310 48 LINE",
"1113 78 LINE",
"816 48 LINE",
"816 0 LINE"
);
},
{
closed = 1;
nodes = (
"489 0 LINE",
"489 48 LINE",
"227 78 LINE",
"54 48 LINE",
"54 0 LINE"
);
}
);
width = 1365;
},
{
anchors = (
{
name = top;
position = "{632, 1612}";
}
);
layerId = "20F63CDD-78BD-4F3A-8DC2-32840B76756A";
paths = (
{
closed = 1;
nodes = (
"1115 0 LINE",
"696 1316 LINE",
"497 1200 LINE",
"857 0 LINE"
);
},
{
closed = 1;
nodes = (
"866 443 LINE",
"836 527 LINE",
"314 527 LINE",
"283 443 LINE"
);
},
{
closed = 1;
nodes = (
"730 1224 OFFCURVE",
"840 1317 OFFCURVE",
"840 1439 CURVE SMOOTH",
"840 1559 OFFCURVE",
"735 1652 OFFCURVE",
"594 1652 CURVE SMOOTH",
"455 1652 OFFCURVE",
"348 1562 OFFCURVE",
"348 1439 CURVE SMOOTH",
"348 1317 OFFCURVE",
"454 1224 OFFCURVE",
"594 1224 CURVE SMOOTH"
);
},
{
closed = 1;
nodes = (
"539 1304 OFFCURVE",
"500 1360 OFFCURVE",
"500 1439 CURVE SMOOTH",
"500 1513 OFFCURVE",
"541 1577 OFFCURVE",
"594 1577 CURVE SMOOTH",
"646 1577 OFFCURVE",
"689 1516 OFFCURVE",
"689 1439 CURVE SMOOTH",
"689 1361 OFFCURVE",
"651 1304 OFFCURVE",
"594 1304 CURVE SMOOTH"
);
},
{
closed = 1;
nodes = (
"254 0 LINE",
"621 1263 LINE",
"502 1292 LINE",
"105 0 LINE"
);
},
{
closed = 1;
nodes = (
"1201 0 LINE",
"1201 70 LINE",
"992 100 LINE",
"674 70 LINE",
"674 0 LINE"
);
},
{
closed = 1;
nodes = (
"437 0 LINE",
"437 70 LINE",
"191 100 LINE",
"19 70 LINE",
"19 0 LINE"
);
}
);
width = 1219;
}
);
leftKerningGroup = A;
leftMetricsKey = "=A";
note = Aring;
rightKerningGroup = A;
rightMetricsKey = "=A";
unicode = 00C5;
},
{
glyphname = AE;
lastChange = "2018-11-12 15:33:08 +0000";
layers = (
{
anchors = (
{
name = bottom;
position = "{1076, 0}";
},
{
name = top;
position = "{1376, 1358}";
}
);
layerId = "6CE37295-6E30-426D-87AF-6FEE9061C297";
paths = (
{
closed = 1;
nodes = (
"1952 0 LINE",
"1952 354 LINE",
"1897 354 LINE",
"1781 146 LINE SMOOTH",
"1758 104 OFFCURVE",
"1708 90 OFFCURVE",
"1658 90 CURVE SMOOTH",
"1155 90 LINE",
"1247 35 LINE",
"1247 1265 LINE",
"1592 1265 LINE SMOOTH",
"1665 1265 OFFCURVE",
"1689 1253 OFFCURVE",
"1715 1209 CURVE SMOOTH",
"1839 1001 LINE",
"1894 1001 LINE",
"1894 1358 LINE",
"667 1358 LINE",
"667 1272 LINE",
"782 1272 OFFCURVE",
"903 1231 OFFCURVE",
"968 1166 CURVE",
"968 47 LINE",
"1085 126 LINE",
"795 76 LINE",
"795 0 LINE"
);
},
{
closed = 1;
nodes = (
"540 0 LINE",
"540 76 LINE",
"241 106 LINE",
"22 76 LINE",
"22 0 LINE"
);
},
{
closed = 1;
nodes = (
"286 0 LINE",
"972 1248 LINE",
"853 1314 LINE",
"116 0 LINE"
);
},
{
closed = 1;
nodes = (
"1553 594 LINE",
"1553 686 LINE",
"575 686 LINE",
"522 594 LINE"
);
},
{
closed = 1;
nodes = (
"1615 417 LINE",
"1615 881 LINE",
"1498 881 LINE",
"1498 417 LINE"
);
}
);
userData = {
assembly = "NPUSHB[ ]\011/* 13 values pushed */
97 71 57 3 9 6 92 78 2 1 2 2 76 
MPPEM[ ]\011/* MeasurePixelPerEm */
PUSHB[ ]\011/* 1 value pushed */
51 
LT[ ]\011/* LessThan */
IF[ ]\011/* If */
NPUSHB[ ]\011/* 36 values pushed */
12 1 9 10 1 2 1 9 2 103 8 1 6 6 7 95 0 7 7 68 77 11 5 3 3 1 1 0 95 4 1 0 0 69 0 78 
ELSE[ ]\011/* Else */
MPPEM[ ]\011/* MeasurePixelPerEm */
PUSHB[ ]\011/* 1 value pushed */
60 
LT[ ]\011/* LessThan */
IF[ ]\011/* If */
NPUSHB[ ]\011/* 33 values pushed */
12 1 9 10 1 2 1 9 2 103 11 5 3 3 1 4 1 0 1 0 99 8 1 6 6 7 95 0 7 7 68 6 78 
ELSE[ ]\011/* Else */
NPUSHB[ ]\011/* 42 values pushed */
0 7 8 1 6 9 7 6 105 12 1 9 10 1 2 1 9 2 103 11 5 3 3 1 0 0 1 89 11 5 3 3 1 1 0 95 4 1 0 1 0 79 
EIF[ ]\011/* EndIf */
EIF[ ]\011/* EndIf */
NPUSHB[ ]\011/* 20 values pushed */
108 105 91 88 85 82 70 67 56 114 23 34 82 21 51 34 99 13 11 31 
CALL[ ]\011/* CallFunction */";
};
width = 2000;
},
{
anchors = (
{
name = bottom;
position = "{1021, 0}";
},
{
name = top;
position = "{1281, 1358}";
}
);
annotations = (
{
position = "{1818.205, 1031.361}";
text = "Transition of serif is a 123x56 box. Set handles for an abrupt transition. Width at wide end = stem x 1.35, at narrow end stem / 4.8";
type = Text;
width = 137;
}
);
layerId = "EBD25FEC-6C57-4903-A936-5FDFC9C63FB2";
paths = (
{
closed = 1;
nodes = (
"1781 0 LINE",
"1781 342 LINE",
"1757 342 LINE",
"1663 117 LINE SMOOTH",
"1641 65 OFFCURVE",
"1606 61 OFFCURVE",
"1540 61 CURVE SMOOTH",
"1021 61 LINE",
"1066 31 LINE",
"1066 1297 LINE",
"1491 1296 LINE SMOOTH",
"1563 1296 OFFCURVE",
"1595 1282 OFFCURVE",
"1614 1229 CURVE SMOOTH",
"1690 1015 LINE",
"1714 1015 LINE",
"1714 1358 LINE",
"727 1358 LINE",
"727 1298 LINE",
"805 1298 OFFCURVE",
"887 1279 OFFCURVE",
"944 1237 CURVE",
"944 25 LINE",
"996 86 LINE",
"747 48 LINE",
"747 0 LINE"
);
},
{
closed = 1;
nodes = (
"500 0 LINE",
"500 48 LINE",
"231 78 LINE",
"55 48 LINE",
"55 0 LINE"
);
},
{
closed = 1;
nodes = (
"249 0 LINE",
"950 1295 LINE",
"883 1331 LINE",
"148 0 LINE"
);
},
{
closed = 1;
nodes = (
"1450 611 LINE",
"1450 672 LINE",
"559 672 LINE",
"527 611 LINE"
);
},
{
closed = 1;
nodes = (
"1482 424 LINE",
"1482 873 LINE",
"1417 873 LINE",
"1417 424 LINE"
);
}
);
width = 1901;
},
{
anchors = (
{
name = bottom;
position = "{1142, 0}";
},
{
name = top;
position = "{1442, 1358}";
}
);
layerId = "1E14FD48-0E57-4B09-9E12-AF4BF73A87E4";
paths = (
{
closed = 1;
nodes = (
"2088 0 LINE",
"2088 354 LINE",
"2033 354 LINE",
"1917 146 LINE SMOOTH",
"1894 104 OFFCURVE",
"1844 90 OFFCURVE",
"1794 90 CURVE SMOOTH",
"1228 90 LINE",
"1313 31 LINE",
"1313 1265 LINE",
"1728 1265 LINE SMOOTH",
"1801 1265 OFFCURVE",
"1825 1253 OFFCURVE",
"1851 1209 CURVE SMOOTH",
"1975 1001 LINE",
"2030 1001 LINE",
"2030 1358 LINE",
"733 1358 LINE",
"733 1272 LINE",
"848 1272 OFFCURVE",
"984 1225 OFFCURVE",
"1034 1176 CURVE",
"1034 23 LINE",
"1092 99 LINE",
"861 69 LINE",
"861 0 LINE"
);
},
{
closed = 1;
nodes = (
"541 0 LINE",
"541 76 LINE",
"240 106 LINE",
"22 76 LINE",
"22 0 LINE"
);
},
{
closed = 1;
nodes = (
"279 0 LINE",
"1043 1237 LINE",
"930 1307 LINE",
"108 0 LINE"
);
},
{
closed = 1;
nodes = (
"1689 594 LINE",
"1689 686 LINE",
"641 686 LINE",
"588 594 LINE"
);
},
{
closed = 1;
nodes = (
"1750 417 LINE",
"1750 881 LINE",
"1634 881 LINE",
"1634 417 LINE"
);
}
);
userData = {
assembly = "NPUSHB[ ]\011/* 13 values pushed */
97 71 57 3 9 6 92 78 2 1 2 2 76 
MPPEM[ ]\011/* MeasurePixelPerEm */
PUSHB[ ]\011/* 1 value pushed */
51 
LT[ ]\011/* LessThan */
IF[ ]\011/* If */
NPUSHB[ ]\011/* 36 values pushed */
12 1 9 10 1 2 1 9 2 103 8 1 6 6 7 95 0 7 7 68 77 11 5 3 3 1 1 0 95 4 1 0 0 69 0 78 
ELSE[ ]\011/* Else */
MPPEM[ ]\011/* MeasurePixelPerEm */
PUSHB[ ]\011/* 1 value pushed */
60 
LT[ ]\011/* LessThan */
IF[ ]\011/* If */
NPUSHB[ ]\011/* 33 values pushed */
12 1 9 10 1 2 1 9 2 103 11 5 3 3 1 4 1 0 1 0 99 8 1 6 6 7 95 0 7 7 68 6 78 
ELSE[ ]\011/* Else */
NPUSHB[ ]\011/* 42 values pushed */
0 7 8 1 6 9 7 6 105 12 1 9 10 1 2 1 9 2 103 11 5 3 3 1 0 0 1 89 11 5 3 3 1 1 0 95 4 1 0 1 0 79 
EIF[ ]\011/* EndIf */
EIF[ ]\011/* EndIf */
NPUSHB[ ]\011/* 20 values pushed */
108 105 91 88 85 82 70 67 56 114 23 34 82 21 51 34 99 13 11 31 
CALL[ ]\011/* CallFunction */";
};
width = 2136;
},
{
anchors = (
{
name = bottom;
position = "{1081, 0}";
},
{
name = top;
position = "{1341, 1358}";
}
);
layerId = "16DF9356-34D2-4C02-8100-FB39A491A1B7";
paths = (
{
closed = 1;
nodes = (
"1931 0 LINE",
"1931 342 LINE",
"1905 342 LINE",
"1829 126 LINE SMOOTH",
"1817 91 OFFCURVE",
"1761 70 OFFCURVE",
"1706 70 CURVE SMOOTH",
"1081 70 LINE",
"1135 30 LINE",
"1135 1288 LINE",
"1645 1288 LINE SMOOTH",
"1722 1288 OFFCURVE",
"1755 1274 OFFCURVE",
"1768 1232 CURVE SMOOTH",
"1838 1008 LINE",
"1864 1008 LINE",
"1864 1358 LINE",
"787 1358 LINE",
"787 1288 LINE",
"878 1288 OFFCURVE",
"959 1268 OFFCURVE",
"1004 1217 CURVE",
"1004 22 LINE",
"1060 86 LINE",
"807 48 LINE",
"807 0 LINE"
);
},
{
closed = 1;
nodes = (
"506 0 LINE",
"506 48 LINE",
"233 78 LINE",
"55 48 LINE",
"55 0 LINE"
);
},
{
closed = 1;
nodes = (
"250 0 LINE",
"1021 1298 LINE",
"946 1330 LINE",
"143 0 LINE"
);
},
{
closed = 1;
nodes = (
"1594 606 LINE",
"1594 676 LINE",
"609 676 LINE",
"577 606 LINE"
);
},
{
closed = 1;
nodes = (
"1631 419 LINE",
"1631 877 LINE",
"1561 877 LINE",
"1561 419 LINE"
);
}
);
width = 2051;
},
{
anchors = (
{
name = bottom;
position = "{1019, 0}";
},
{
name = top;
position = "{1288, 1358}";
}
);
layerId = "20F63CDD-78BD-4F3A-8DC2-32840B76756A";
paths = (
{
closed = 1;
nodes = (
"1781 0 LINE",
"1781 354 LINE",
"1726 354 LINE",
"1610 140 LINE SMOOTH",
"1587 98 OFFCURVE",
"1537 84 OFFCURVE",
"1487 84 CURVE SMOOTH",
"1078 84 LINE",
"1152 29 LINE",
"1152 1272 LINE",
"1413 1272 LINE SMOOTH",
"1486 1272 OFFCURVE",
"1510 1260 OFFCURVE",
"1536 1216 CURVE SMOOTH",
"1660 1001 LINE",
"1715 1001 LINE",
"1715 1358 LINE",
"642 1358 LINE",
"642 1278 LINE",
"742 1278 OFFCURVE",
"862 1247 OFFCURVE",
"908 1193 CURVE",
"908 23 LINE",
"962 100 LINE",
"750 70 LINE",
"750 0 LINE"
);
},
{
closed = 1;
nodes = (
"520 0 LINE",
"520 70 LINE",
"241 100 LINE",
"55 70 LINE",
"55 0 LINE"
);
},
{
closed = 1;
nodes = (
"288 0 LINE",
"927 1256 LINE",
"818 1315 LINE",
"140 0 LINE"
);
},
{
closed = 1;
nodes = (
"1430 598 LINE",
"1430 683 LINE",
"553 683 LINE",
"506 598 LINE"
);
},
{
closed = 1;
nodes = (
"1487 419 LINE",
"1487 879 LINE",
"1384 879 LINE",
"1384 419 LINE"
);
}
);
width = 1901;
}
);
leftKerningGroup = AE;
note = AE;
unicode = 00C6;
},
{
glyphname = B;
lastChange = "2018-11-17 12:29:54 +0000";
layers = (
{
anchors = (
{
name = bottom;
position = "{578, 0}";
},
{
name = top;
position = "{578, 1358}";
}
);
layerId = "6CE37295-6E30-426D-87AF-6FEE9061C297";
paths = (
{
closed = 1;
nodes = (
"625 0 LINE SMOOTH",
"1004 0 OFFCURVE",
"1206 123 OFFCURVE",
"1206 360 CURVE SMOOTH",
"1206 537 OFFCURVE",
"1080 670 OFFCURVE",
"856 735 CURVE",
"1036 797 OFFCURVE",
"1120 892 OFFCURVE",
"1120 1024 CURVE SMOOTH",
"1120 1228 OFFCURVE",
"933 1358 OFFCURVE",
"621 1358 CURVE SMOOTH",
"202 1358 LINE",
"202 0 LINE"
);
},
{
closed = 1;
nodes = (
"349 0 LINE",
"349 106 LINE",
"29 76 LINE",
"29 0 LINE"
);
},
{
closed = 1;
nodes = (
"481 674 LINE",
"555 674 OFFCURVE",
"623 665 OFFCURVE",
"680 644 CURVE SMOOTH",
"786 605 OFFCURVE",
"856 523 OFFCURVE",
"856 364 CURVE SMOOTH",
"856 170 OFFCURVE",
"782 76 OFFCURVE",
"575 76 CURVE SMOOTH",
"481 76 LINE"
);
},
{
closed = 1;
nodes = (
"349 1358 LINE",
"29 1358 LINE",
"29 1282 LINE",
"349 1252 LINE"
);
},
{
closed = 1;
nodes = (
"481 1280 LINE",
"689 1276 OFFCURVE",
"787 1191 OFFCURVE",
"787 1014 CURVE SMOOTH",
"787 841 OFFCURVE",
"701 771 OFFCURVE",
"481 768 CURVE"
);
}
);
userData = {
assembly = "PUSHB[ ]\011/* 6 values pushed */
47 1 4 1 1 76 
MPPEM[ ]\011/* MeasurePixelPerEm */
PUSHB[ ]\011/* 1 value pushed */
34 
LT[ ]\011/* LessThan */
IF[ ]\011/* If */
NPUSHB[ ]\011/* 32 values pushed */
0 4 0 7 0 4 7 105 5 1 1 1 2 95 0 2 2 68 77 6 1 0 0 3 95 8 1 3 3 69 3 78 
ELSE[ ]\011/* Else */
MPPEM[ ]\011/* MeasurePixelPerEm */
PUSHB[ ]\011/* 1 value pushed */
51 
LT[ ]\011/* LessThan */
IF[ ]\011/* If */
NPUSHB[ ]\011/* 38 values pushed */
0 1 5 4 5 1 114 0 4 0 7 0 4 7 105 0 5 5 2 95 0 2 2 68 77 6 1 0 0 3 95 8 1 3 3 69 3 78 
ELSE[ ]\011/* Else */
MPPEM[ ]\011/* MeasurePixelPerEm */
PUSHB[ ]\011/* 1 value pushed */
60 
LT[ ]\011/* LessThan */
IF[ ]\011/* If */
NPUSHB[ ]\011/* 35 values pushed */
0 1 5 4 5 1 114 0 4 0 7 0 4 7 105 6 1 0 8 1 3 0 3 99 0 5 5 2 95 0 2 2 68 5 78 
ELSE[ ]\011/* Else */
MPPEM[ ]\011/* MeasurePixelPerEm */
PUSHB[ ]\011/* 1 value pushed */
93 
LT[ ]\011/* LessThan */
IF[ ]\011/* If */
NPUSHB[ ]\011/* 42 values pushed */
0 1 5 4 5 1 114 0 2 0 5 1 2 5 105 0 4 0 7 0 4 7 105 6 1 0 3 3 0 89 6 1 0 0 3 95 8 1 3 0 3 79 
ELSE[ ]\011/* Else */
NPUSHB[ ]\011/* 47 values pushed */
0 1 5 4 5 1 114 0 0 7 6 6 0 114 0 2 0 5 1 2 5 105 0 4 0 7 0 4 7 105 0 6 3 3 6 89 0 6 6 3 96 8 1 3 6 3 80 
EIF[ ]\011/* EndIf */
EIF[ ]\011/* EndIf */
EIF[ ]\011/* EndIf */
EIF[ ]\011/* EndIf */
NPUSHB[ ]\011/* 20 values pushed */
0 0 55 54 51 49 45 44 40 38 0 34 0 30 98 20 34 9 11 25 
CALL[ ]\011/* CallFunction */";
};
width = 1221;
},
{
anchors = (
{
name = bottom;
position = "{567, 0}";
},
{
name = top;
position = "{567, 1358}";
}
);
background = {
paths = (
{
closed = 1;
nodes = (
"590 0 LINE SMOOTH",
"978 0 OFFCURVE",
"1069 158 OFFCURVE",
"1069 347 CURVE SMOOTH",
"1069 530 OFFCURVE",
"985 661 OFFCURVE",
"764 731 CURVE",
"929 804 OFFCURVE",
"977 884 OFFCURVE",
"977 1035 CURVE SMOOTH",
"977 1250 OFFCURVE",
"821 1358 OFFCURVE",
"590 1358 CURVE SMOOTH",
"270 1358 LINE",
"270 0 LINE"
);
},
{
closed = 1;
nodes = (
"363 0 LINE",
"363 78 LINE",
"73 48 LINE",
"73 0 LINE"
);
},
{
closed = 1;
nodes = (
"392 687 LINE",
"535 687 OFFCURVE",
"622 679 OFFCURVE",
"687 657 CURVE SMOOTH",
"845 604 OFFCURVE",
"930 513 OFFCURVE",
"930 372 CURVE SMOOTH",
"930 165 OFFCURVE",
"818 61 OFFCURVE",
"576 61 CURVE SMOOTH",
"392 61 LINE"
);
},
{
closed = 1;
nodes = (
"363 1358 LINE",
"73 1358 LINE",
"73 1310 LINE",
"363 1280 LINE"
);
},
{
closed = 1;
nodes = (
"392 1297 LINE",
"712 1297 OFFCURVE",
"845 1235 OFFCURVE",
"845 1032 CURVE SMOOTH",
"845 813 OFFCURVE",
"724 748 OFFCURVE",
"392 748 CURVE"
);
}
);
};
layerId = "EBD25FEC-6C57-4903-A936-5FDFC9C63FB2";
paths = (
{
closed = 1;
nodes = (
"590 0 LINE SMOOTH",
"978 0 OFFCURVE",
"1069 158 OFFCURVE",
"1069 347 CURVE SMOOTH",
"1069 530 OFFCURVE",
"974 661 OFFCURVE",
"724 731 CURVE",
"920 794 OFFCURVE",
"977 884 OFFCURVE",
"977 1035 CURVE SMOOTH",
"977 1250 OFFCURVE",
"821 1358 OFFCURVE",
"590 1358 CURVE SMOOTH",
"270 1358 LINE",
"270 0 LINE"
);
},
{
closed = 1;
nodes = (
"363 0 LINE",
"363 78 LINE",
"73 48 LINE",
"73 0 LINE"
);
},
{
closed = 1;
nodes = (
"392 687 LINE",
"535 687 OFFCURVE",
"622 679 OFFCURVE",
"687 657 CURVE SMOOTH",
"845 604 OFFCURVE",
"930 513 OFFCURVE",
"930 372 CURVE SMOOTH",
"930 165 OFFCURVE",
"818 61 OFFCURVE",
"576 61 CURVE SMOOTH",
"392 61 LINE"
);
},
{
closed = 1;
nodes = (
"363 1358 LINE",
"73 1358 LINE",
"73 1310 LINE",
"363 1280 LINE"
);
},
{
closed = 1;
nodes = (
"392 1297 LINE",
"712 1297 OFFCURVE",
"845 1235 OFFCURVE",
"845 1032 CURVE SMOOTH",
"845 813 OFFCURVE",
"724 748 OFFCURVE",
"392 748 CURVE"
);
}
);
width = 1106;
},
{
anchors = (
{
name = bottom;
position = "{578, 0}";
},
{
name = top;
position = "{578, 1358}";
}
);
layerId = "1E14FD48-0E57-4B09-9E12-AF4BF73A87E4";
paths = (
{
closed = 1;
nodes = (
"688 0 LINE SMOOTH",
"1065 0 OFFCURVE",
"1266 118 OFFCURVE",
"1266 371 CURVE SMOOTH",
"1266 550 OFFCURVE",
"1140 672 OFFCURVE",
"919 735 CURVE",
"1097 796 OFFCURVE",
"1180 896 OFFCURVE",
"1180 1048 CURVE SMOOTH",
"1180 1231 OFFCURVE",
"993 1358 OFFCURVE",
"684 1358 CURVE SMOOTH",
"202 1358 LINE",
"202 0 LINE"
);
},
{
closed = 1;
nodes = (
"349 0 LINE",
"349 106 LINE",
"29 76 LINE",
"29 0 LINE"
);
},
{
closed = 1;
nodes = (
"481 674 LINE",
"636 674 OFFCURVE",
"694 667 OFFCURVE",
"753 645 CURVE SMOOTH",
"861 605 OFFCURVE",
"916 522 OFFCURVE",
"916 371 CURVE SMOOTH",
"916 171 OFFCURVE",
"837 76 OFFCURVE",
"675 76 CURVE SMOOTH",
"481 76 LINE"
);
},
{
closed = 1;
nodes = (
"349 1358 LINE",
"29 1358 LINE",
"29 1282 LINE",
"349 1252 LINE"
);
},
{
closed = 1;
nodes = (
"481 1280 LINE",
"778 1276 OFFCURVE",
"847 1201 OFFCURVE",
"847 1014 CURVE SMOOTH",
"847 831 OFFCURVE",
"761 771 OFFCURVE",
"481 768 CURVE"
);
}
);
userData = {
assembly = "PUSHB[ ]\011/* 6 values pushed */
47 1 4 1 1 76 
MPPEM[ ]\011/* MeasurePixelPerEm */
PUSHB[ ]\011/* 1 value pushed */
34 
LT[ ]\011/* LessThan */
IF[ ]\011/* If */
NPUSHB[ ]\011/* 32 values pushed */
0 4 0 7 0 4 7 105 5 1 1 1 2 95 0 2 2 68 77 6 1 0 0 3 95 8 1 3 3 69 3 78 
ELSE[ ]\011/* Else */
MPPEM[ ]\011/* MeasurePixelPerEm */
PUSHB[ ]\011/* 1 value pushed */
51 
LT[ ]\011/* LessThan */
IF[ ]\011/* If */
NPUSHB[ ]\011/* 38 values pushed */
0 1 5 4 5 1 114 0 4 0 7 0 4 7 105 0 5 5 2 95 0 2 2 68 77 6 1 0 0 3 95 8 1 3 3 69 3 78 
ELSE[ ]\011/* Else */
MPPEM[ ]\011/* MeasurePixelPerEm */
PUSHB[ ]\011/* 1 value pushed */
60 
LT[ ]\011/* LessThan */
IF[ ]\011/* If */
NPUSHB[ ]\011/* 35 values pushed */
0 1 5 4 5 1 114 0 4 0 7 0 4 7 105 6 1 0 8 1 3 0 3 99 0 5 5 2 95 0 2 2 68 5 78 
ELSE[ ]\011/* Else */
MPPEM[ ]\011/* MeasurePixelPerEm */
PUSHB[ ]\011/* 1 value pushed */
93 
LT[ ]\011/* LessThan */
IF[ ]\011/* If */
NPUSHB[ ]\011/* 42 values pushed */
0 1 5 4 5 1 114 0 2 0 5 1 2 5 105 0 4 0 7 0 4 7 105 6 1 0 3 3 0 89 6 1 0 0 3 95 8 1 3 0 3 79 
ELSE[ ]\011/* Else */
NPUSHB[ ]\011/* 47 values pushed */
0 1 5 4 5 1 114 0 0 7 6 6 0 114 0 2 0 5 1 2 5 105 0 4 0 7 0 4 7 105 0 6 3 3 6 89 0 6 6 3 96 8 1 3 6 3 80 
EIF[ ]\011/* EndIf */
EIF[ ]\011/* EndIf */
EIF[ ]\011/* EndIf */
EIF[ ]\011/* EndIf */
NPUSHB[ ]\011/* 20 values pushed */
0 0 55 54 51 49 45 44 40 38 0 34 0 30 98 20 34 9 11 25 
CALL[ ]\011/* CallFunction */";
};
width = 1281;
},
{
anchors = (
{
name = bottom;
position = "{567, 0}";
},
{
name = top;
position = "{567, 1358}";
}
);
layerId = "16DF9356-34D2-4C02-8100-FB39A491A1B7";
paths = (
{
closed = 1;
nodes = (
"615 0 LINE SMOOTH",
"1039 0 OFFCURVE",
"1139 158 OFFCURVE",
"1139 347 CURVE SMOOTH",
"1139 530 OFFCURVE",
"1047 671 OFFCURVE",
"806 731 CURVE",
"986 794 OFFCURVE",
"1038 884 OFFCURVE",
"1038 1035 CURVE SMOOTH",
"1038 1250 OFFCURVE",
"868 1358 OFFCURVE",
"615 1358 CURVE SMOOTH",
"270 1358 LINE",
"270 0 LINE"
);
},
{
closed = 1;
nodes = (
"393 0 LINE",
"393 78 LINE",
"73 48 LINE",
"73 0 LINE"
);
},
{
closed = 1;
nodes = (
"401 683 LINE",
"564 683 OFFCURVE",
"651 678 OFFCURVE",
"721 657 CURVE SMOOTH",
"890 606 OFFCURVE",
"996 513 OFFCURVE",
"996 372 CURVE SMOOTH",
"996 171 OFFCURVE",
"893 70 OFFCURVE",
"570 70 CURVE SMOOTH",
"401 70 LINE"
);
},
{
closed = 1;
nodes = (
"393 1358 LINE",
"73 1358 LINE",
"73 1300 LINE",
"393 1270 LINE"
);
},
{
closed = 1;
nodes = (
"401 1288 LINE",
"767 1288 OFFCURVE",
"896 1235 OFFCURVE",
"896 1032 CURVE SMOOTH",
"896 826 OFFCURVE",
"750 753 OFFCURVE",
"401 753 CURVE"
);
}
);
width = 1176;
},
{
anchors = (
{
name = bottom;
position = "{554, 0}";
},
{
name = top;
position = "{554, 1358}";
}
);
layerId = "20F63CDD-78BD-4F3A-8DC2-32840B76756A";
paths = (
{
closed = 1;
nodes = (
"594 0 LINE SMOOTH",
"899 0 OFFCURVE",
"1069 139 OFFCURVE",
"1069 357 CURVE SMOOTH",
"1069 535 OFFCURVE",
"966 660 OFFCURVE",
"787 734 CURVE",
"930 806 OFFCURVE",
"998 891 OFFCURVE",
"998 1026 CURVE SMOOTH",
"998 1233 OFFCURVE",
"846 1358 OFFCURVE",
"591 1358 CURVE SMOOTH",
"213 1358 LINE",
"213 0 LINE"
);
},
{
closed = 1;
nodes = (
"393 0 LINE",
"393 100 LINE",
"73 70 LINE",
"73 0 LINE"
);
},
{
closed = 1;
nodes = (
"457 677 LINE",
"521 677 OFFCURVE",
"587 671 OFFCURVE",
"636 647 CURVE SMOOTH",
"717 608 OFFCURVE",
"777 526 OFFCURVE",
"777 366 CURVE SMOOTH",
"777 177 OFFCURVE",
"711 72 OFFCURVE",
"604 72 CURVE SMOOTH",
"457 72 LINE"
);
},
{
closed = 1;
nodes = (
"393 1358 LINE",
"73 1358 LINE",
"73 1288 LINE",
"393 1258 LINE"
);
},
{
closed = 1;
nodes = (
"457 1284 LINE",
"637 1281 OFFCURVE",
"721 1198 OFFCURVE",
"721 1018 CURVE SMOOTH",
"721 837 OFFCURVE",
"648 766 OFFCURVE",
"457 764 CURVE"
);
}
);
width = 1106;
}
);
leftMetricsKey = H;
note = B;
rightKerningGroup = B;
rightMetricsKey = "=H/2";
unicode = 0042;
},
{
glyphname = C;
lastChange = "2018-11-20 17:29:28 +0000";
layers = (
{
anchors = (
{
name = bottom;
position = "{685, 0}";
},
{
name = top;
position = "{785, 1358}";
}
);
layerId = "6CE37295-6E30-426D-87AF-6FEE9061C297";
paths = (
{
closed = 1;
nodes = (
"906 -27 OFFCURVE",
"1084 25 OFFCURVE",
"1252 192 CURVE",
"1194 180 LINE",
"1173 0 LINE",
"1286 0 LINE",
"1329 432 LINE",
"1224 432 LINE",
"1183 224 OFFCURVE",
"1054 68 OFFCURVE",
"827 68 CURVE SMOOTH",
"508 68 OFFCURVE",
"384 375 OFFCURVE",
"384 694 CURVE SMOOTH",
"384 1066 OFFCURVE",
"552 1296 OFFCURVE",
"813 1296 CURVE SMOOTH",
"1044 1296 OFFCURVE",
"1171 1115 OFFCURVE",
"1216 948 CURVE",
"1321 948 LINE",
"1328 1370 LINE",
"1223 1370 LINE",
"1219 1135 LINE",
"1274 1187 LINE",
"1133 1322 OFFCURVE",
"960 1385 OFFCURVE",
"766 1385 CURVE SMOOTH",
"327 1385 OFFCURVE",
"23 1063 OFFCURVE",
"23 651 CURVE SMOOTH",
"23 246 OFFCURVE",
"318 -27 OFFCURVE",
"727 -27 CURVE SMOOTH"
);
}
);
userData = {
assembly = "PUSHB[ ]\011/* 6 values pushed */
9 1 3 2 1 76 
MPPEM[ ]\011/* MeasurePixelPerEm */
PUSHB[ ]\011/* 1 value pushed */
37 
LT[ ]\011/* LessThan */
IF[ ]\011/* If */
NPUSHB[ ]\011/* 26 values pushed */
0 1 1 68 77 0 2 2 0 97 0 0 0 74 77 0 3 3 4 97 0 4 4 75 4 78 
ELSE[ ]\011/* Else */
MPPEM[ ]\011/* MeasurePixelPerEm */
PUSHB[ ]\011/* 1 value pushed */
60 
LT[ ]\011/* LessThan */
IF[ ]\011/* If */
NPUSHB[ ]\011/* 29 values pushed */
0 1 0 2 0 1 2 128 0 2 2 0 97 0 0 0 74 77 0 3 3 4 97 0 4 4 75 4 78 
ELSE[ ]\011/* Else */
NPUSHB[ ]\011/* 27 values pushed */
0 1 0 2 0 1 2 128 0 0 0 2 3 0 2 105 0 3 3 4 97 0 4 4 75 4 78 
EIF[ ]\011/* EndIf */
EIF[ ]\011/* EndIf */
PUSHB[ ]\011/* 8 values pushed */
42 36 40 18 34 5 11 27 
CALL[ ]\011/* CallFunction */";
};
width = 1355;
},
{
anchors = (
{
name = bottom;
position = "{624, 0}";
},
{
name = top;
position = "{734, 1358}";
}
);
layerId = "EBD25FEC-6C57-4903-A936-5FDFC9C63FB2";
paths = (
{
closed = 1;
nodes = (
"878 -27 OFFCURVE",
"1043 29 OFFCURVE",
"1192 194 CURVE",
"1163 187 LINE",
"1143 0 LINE",
"1200 0 LINE",
"1244 432 LINE",
"1187 432 LINE",
"1151 200 OFFCURVE",
"1007 38 OFFCURVE",
"750 38 CURVE SMOOTH",
"412 38 OFFCURVE",
"203 317 OFFCURVE",
"203 693 CURVE SMOOTH",
"203 1074 OFFCURVE",
"417 1324 OFFCURVE",
"734 1324 CURVE SMOOTH",
"946 1324 OFFCURVE",
"1114 1212 OFFCURVE",
"1182 948 CURVE",
"1239 948 LINE",
"1242 1370 LINE",
"1185 1370 LINE",
"1184 1184 LINE",
"1208 1182 LINE",
"1070 1322 OFFCURVE",
"923 1385 OFFCURVE",
"740 1385 CURVE SMOOTH",
"337 1385 OFFCURVE",
"60 1077 OFFCURVE",
"60 660 CURVE SMOOTH",
"60 245 OFFCURVE",
"334 -27 OFFCURVE",
"708 -27 CURVE SMOOTH"
);
}
);
width = 1310;
},
{
anchors = (
{
name = bottom;
position = "{686, 0}";
},
{
name = top;
position = "{826, 1358}";
}
);
layerId = "1E14FD48-0E57-4B09-9E12-AF4BF73A87E4";
paths = (
{
closed = 1;
nodes = (
"996 -27 OFFCURVE",
"1186 25 OFFCURVE",
"1366 192 CURVE",
"1304 180 LINE",
"1282 0 LINE",
"1395 0 LINE",
"1441 432 LINE",
"1337 432 LINE",
"1293 224 OFFCURVE",
"1100 68 OFFCURVE",
"857 68 CURVE SMOOTH",
"571 68 OFFCURVE",
"410 375 OFFCURVE",
"410 694 CURVE SMOOTH",
"410 1066 OFFCURVE",
"608 1296 OFFCURVE",
"840 1296 CURVE SMOOTH",
"1088 1296 OFFCURVE",
"1279 1115 OFFCURVE",
"1327 948 CURVE",
"1433 948 LINE",
"1440 1370 LINE",
"1335 1370 LINE",
"1331 1135 LINE",
"1390 1187 LINE",
"1239 1322 OFFCURVE",
"1053 1385 OFFCURVE",
"845 1385 CURVE SMOOTH",
"375 1385 OFFCURVE",
"49 1063 OFFCURVE",
"49 651 CURVE SMOOTH",
"49 246 OFFCURVE",
"365 -27 OFFCURVE",
"804 -27 CURVE SMOOTH"
);
}
);
userData = {
assembly = "PUSHB[ ]\011/* 6 values pushed */
9 1 3 2 1 76 
MPPEM[ ]\011/* MeasurePixelPerEm */
PUSHB[ ]\011/* 1 value pushed */
37 
LT[ ]\011/* LessThan */
IF[ ]\011/* If */
NPUSHB[ ]\011/* 26 values pushed */
0 1 1 68 77 0 2 2 0 97 0 0 0 74 77 0 3 3 4 97 0 4 4 75 4 78 
ELSE[ ]\011/* Else */
MPPEM[ ]\011/* MeasurePixelPerEm */
PUSHB[ ]\011/* 1 value pushed */
60 
LT[ ]\011/* LessThan */
IF[ ]\011/* If */
NPUSHB[ ]\011/* 29 values pushed */
0 1 0 2 0 1 2 128 0 2 2 0 97 0 0 0 74 77 0 3 3 4 97 0 4 4 75 4 78 
ELSE[ ]\011/* Else */
NPUSHB[ ]\011/* 27 values pushed */
0 1 0 2 0 1 2 128 0 0 0 2 3 0 2 105 0 3 3 4 97 0 4 4 75 4 78 
EIF[ ]\011/* EndIf */
EIF[ ]\011/* EndIf */
PUSHB[ ]\011/* 8 values pushed */
42 36 40 18 34 5 11 27 
CALL[ ]\011/* CallFunction */";
};
width = 1467;
},
{
anchors = (
{
name = bottom;
position = "{804, 0}";
},
{
name = top;
position = "{844, 1358}";
}
);
layerId = "16DF9356-34D2-4C02-8100-FB39A491A1B7";
paths = (
{
closed = 1;
nodes = (
"997 -27 OFFCURVE",
"1174 29 OFFCURVE",
"1334 194 CURVE",
"1303 187 LINE",
"1281 0 LINE",
"1342 0 LINE",
"1389 432 LINE",
"1328 432 LINE",
"1290 200 OFFCURVE",
"1135 38 OFFCURVE",
"860 38 CURVE SMOOTH",
"494 38 OFFCURVE",
"269 317 OFFCURVE",
"269 693 CURVE SMOOTH",
"269 1074 OFFCURVE",
"500 1324 OFFCURVE",
"843 1324 CURVE SMOOTH",
"1070 1324 OFFCURVE",
"1250 1212 OFFCURVE",
"1323 948 CURVE",
"1384 948 LINE",
"1387 1370 LINE",
"1326 1370 LINE",
"1325 1184 LINE",
"1351 1182 LINE",
"1203 1322 OFFCURVE",
"1045 1385 OFFCURVE",
"849 1385 CURVE SMOOTH",
"419 1385 OFFCURVE",
"123 1077 OFFCURVE",
"123 660 CURVE SMOOTH",
"123 245 OFFCURVE",
"415 -27 OFFCURVE",
"815 -27 CURVE SMOOTH"
);
}
);
width = 1455;
},
{
anchors = (
{
name = bottom;
position = "{634, 0}";
},
{
name = top;
position = "{723, 1358}";
}
);
layerId = "20F63CDD-78BD-4F3A-8DC2-32840B76756A";
paths = (
{
closed = 1;
nodes = (
"846 -27 OFFCURVE",
"1010 29 OFFCURVE",
"1153 170 CURVE",
"1113 186 LINE",
"1094 0 LINE",
"1199 0 LINE",
"1244 432 LINE",
"1139 432 LINE",
"1083 198 OFFCURVE",
"953 61 OFFCURVE",
"756 61 CURVE SMOOTH",
"469 61 OFFCURVE",
"341 361 OFFCURVE",
"341 692 CURVE SMOOTH",
"341 1055 OFFCURVE",
"494 1302 OFFCURVE",
"741 1302 CURVE SMOOTH",
"954 1302 OFFCURVE",
"1082 1125 OFFCURVE",
"1128 948 CURVE",
"1233 948 LINE",
"1235 1370 LINE",
"1130 1370 LINE",
"1128 1148 LINE",
"1176 1166 LINE",
"1026 1344 OFFCURVE",
"849 1385 OFFCURVE",
"710 1385 CURVE SMOOTH",
"332 1385 OFFCURVE",
"49 1077 OFFCURVE",
"49 654 CURVE SMOOTH",
"49 242 OFFCURVE",
"317 -27 OFFCURVE",
"679 -27 CURVE SMOOTH"
);
}
);
width = 1310;
}
);
leftKerningGroup = C;
leftMetricsKey = O;
note = C;
rightKerningGroup = C;
rightMetricsKey = "=H*0.9";
unicode = 0043;
},
{
glyphname = D;
lastChange = "2018-11-20 17:34:37 +0000";
layers = (
{
anchors = (
{
name = bottom;
position = "{720, 0}";
},
{
name = center;
position = "{720, 679}";
},
{
name = overlay;
position = "{350, 673}";
},
{
name = top;
position = "{650, 1358}";
}
);
layerId = "6CE37295-6E30-426D-87AF-6FEE9061C297";
paths = (
{
closed = 1;
nodes = (
"748 0 LINE SMOOTH",
"1218 0 OFFCURVE",
"1513 291 OFFCURVE",
"1513 702 CURVE SMOOTH",
"1513 1125 OFFCURVE",
"1200 1358 OFFCURVE",
"701 1358 CURVE SMOOTH",
"202 1358 LINE",
"202 0 LINE"
);
},
{
closed = 1;
nodes = (
"349 0 LINE",
"349 106 LINE",
"29 76 LINE",
"29 0 LINE"
);
},
{
closed = 1;
nodes = (
"481 1280 LINE",
"619 1280 LINE SMOOTH",
"962 1280 OFFCURVE",
"1152 1091 OFFCURVE",
"1152 692 CURVE SMOOTH",
"1152 314 OFFCURVE",
"983 72 OFFCURVE",
"679 72 CURVE SMOOTH",
"481 72 LINE"
);
},
{
closed = 1;
nodes = (
"349 1358 LINE",
"29 1358 LINE",
"29 1282 LINE",
"349 1252 LINE"
);
}
);
userData = {
assembly = "MPPEM[ ]\011/* MeasurePixelPerEm */
PUSHB[ ]\011/* 1 value pushed */
34 
LT[ ]\011/* LessThan */
IF[ ]\011/* If */
NPUSHB[ ]\011/* 23 values pushed */
5 1 0 0 1 95 0 1 1 68 77 4 1 3 3 2 95 0 2 2 69 2 78 
ELSE[ ]\011/* Else */
MPPEM[ ]\011/* MeasurePixelPerEm */
PUSHB[ ]\011/* 1 value pushed */
35 
LT[ ]\011/* LessThan */
IF[ ]\011/* If */
NPUSHB[ ]\011/* 34 values pushed */
0 0 5 3 5 0 114 0 3 4 4 3 112 0 5 5 1 95 0 1 1 68 77 0 4 4 2 96 0 2 2 69 2 78 
ELSE[ ]\011/* Else */
MPPEM[ ]\011/* MeasurePixelPerEm */
PUSHB[ ]\011/* 1 value pushed */
37 
LT[ ]\011/* LessThan */
IF[ ]\011/* If */
NPUSHB[ ]\011/* 29 values pushed */
0 0 5 3 5 0 114 0 5 5 1 95 0 1 1 68 77 4 1 3 3 2 95 0 2 2 69 2 78 
ELSE[ ]\011/* Else */
MPPEM[ ]\011/* MeasurePixelPerEm */
PUSHB[ ]\011/* 1 value pushed */
51 
LT[ ]\011/* LessThan */
IF[ ]\011/* If */
NPUSHB[ ]\011/* 34 values pushed */
0 0 5 3 5 0 114 0 3 4 4 3 112 0 5 5 1 95 0 1 1 68 77 0 4 4 2 96 0 2 2 69 2 78 
ELSE[ ]\011/* Else */
MPPEM[ ]\011/* MeasurePixelPerEm */
PUSHB[ ]\011/* 1 value pushed */
60 
LT[ ]\011/* LessThan */
IF[ ]\011/* If */
NPUSHB[ ]\011/* 31 values pushed */
0 0 5 3 5 0 114 0 3 4 4 3 112 0 4 0 2 4 2 100 0 5 5 1 95 0 1 1 68 5 78 
ELSE[ ]\011/* Else */
NPUSHB[ ]\011/* 37 values pushed */
0 0 5 3 5 0 114 0 3 4 4 3 112 0 1 0 5 0 1 5 105 0 4 2 2 4 89 0 4 4 2 96 0 2 4 2 80 
EIF[ ]\011/* EndIf */
EIF[ ]\011/* EndIf */
EIF[ ]\011/* EndIf */
EIF[ ]\011/* EndIf */
EIF[ ]\011/* EndIf */
NPUSHB[ ]\011/* 9 values pushed */
52 36 34 84 98 18 6 11 28 
CALL[ ]\011/* CallFunction */";
};
width = 1536;
},
{
anchors = (
{
name = bottom;
position = "{727, 0}";
},
{
name = center;
position = "{727, 679}";
},
{
name = overlay;
position = "{349, 673}";
},
{
name = top;
position = "{659, 1358}";
}
);
layerId = "EBD25FEC-6C57-4903-A936-5FDFC9C63FB2";
paths = (
{
closed = 1;
nodes = (
"712 0 LINE SMOOTH",
"1086 0 OFFCURVE",
"1368 313 OFFCURVE",
"1368 707 CURVE SMOOTH",
"1368 1108 OFFCURVE",
"1076 1358 OFFCURVE",
"664 1358 CURVE",
"270 1358 LINE",
"270 0 LINE"
);
},
{
closed = 1;
nodes = (
"383 0 LINE",
"383 78 LINE",
"73 48 LINE",
"73 0 LINE"
);
},
{
closed = 1;
nodes = (
"392 1297 LINE",
"582 1297 LINE SMOOTH",
"995 1297 OFFCURVE",
"1225 1107 OFFCURVE",
"1225 679 CURVE SMOOTH",
"1225 275 OFFCURVE",
"1020 61 OFFCURVE",
"563 61 CURVE SMOOTH",
"392 61 LINE"
);
},
{
closed = 1;
nodes = (
"383 1358 LINE",
"73 1358 LINE",
"73 1310 LINE",
"383 1280 LINE"
);
}
);
width = 1428;
},
{
anchors = (
{
name = bottom;
position = "{745, 0}";
},
{
name = center;
position = "{815, 679}";
},
{
name = overlay;
position = "{347, 673}";
},
{
name = top;
position = "{745, 1358}";
}
);
layerId = "1E14FD48-0E57-4B09-9E12-AF4BF73A87E4";
paths = (
{
closed = 1;
nodes = (
"788 0 LINE SMOOTH",
"1305 0 OFFCURVE",
"1592 259 OFFCURVE",
"1592 725 CURVE SMOOTH",
"1592 1132 OFFCURVE",
"1288 1358 OFFCURVE",
"741 1358 CURVE SMOOTH",
"202 1358 LINE",
"202 0 LINE"
);
},
{
closed = 1;
nodes = (
"349 0 LINE",
"349 106 LINE",
"29 76 LINE",
"29 0 LINE"
);
},
{
closed = 1;
nodes = (
"481 1280 LINE",
"659 1280 LINE SMOOTH",
"1010 1280 OFFCURVE",
"1231 1063 OFFCURVE",
"1231 717 CURVE SMOOTH",
"1231 321 OFFCURVE",
"1034 72 OFFCURVE",
"720 72 CURVE SMOOTH",
"481 72 LINE"
);
},
{
closed = 1;
nodes = (
"349 1358 LINE",
"29 1358 LINE",
"29 1282 LINE",
"349 1252 LINE"
);
}
);
userData = {
assembly = "MPPEM[ ]\011/* MeasurePixelPerEm */
PUSHB[ ]\011/* 1 value pushed */
34 
LT[ ]\011/* LessThan */
IF[ ]\011/* If */
NPUSHB[ ]\011/* 23 values pushed */
5 1 0 0 1 95 0 1 1 68 77 4 1 3 3 2 95 0 2 2 69 2 78 
ELSE[ ]\011/* Else */
MPPEM[ ]\011/* MeasurePixelPerEm */
PUSHB[ ]\011/* 1 value pushed */
35 
LT[ ]\011/* LessThan */
IF[ ]\011/* If */
NPUSHB[ ]\011/* 34 values pushed */
0 0 5 3 5 0 114 0 3 4 4 3 112 0 5 5 1 95 0 1 1 68 77 0 4 4 2 96 0 2 2 69 2 78 
ELSE[ ]\011/* Else */
MPPEM[ ]\011/* MeasurePixelPerEm */
PUSHB[ ]\011/* 1 value pushed */
37 
LT[ ]\011/* LessThan */
IF[ ]\011/* If */
NPUSHB[ ]\011/* 29 values pushed */
0 0 5 3 5 0 114 0 5 5 1 95 0 1 1 68 77 4 1 3 3 2 95 0 2 2 69 2 78 
ELSE[ ]\011/* Else */
MPPEM[ ]\011/* MeasurePixelPerEm */
PUSHB[ ]\011/* 1 value pushed */
51 
LT[ ]\011/* LessThan */
IF[ ]\011/* If */
NPUSHB[ ]\011/* 34 values pushed */
0 0 5 3 5 0 114 0 3 4 4 3 112 0 5 5 1 95 0 1 1 68 77 0 4 4 2 96 0 2 2 69 2 78 
ELSE[ ]\011/* Else */
MPPEM[ ]\011/* MeasurePixelPerEm */
PUSHB[ ]\011/* 1 value pushed */
60 
LT[ ]\011/* LessThan */
IF[ ]\011/* If */
NPUSHB[ ]\011/* 31 values pushed */
0 0 5 3 5 0 114 0 3 4 4 3 112 0 4 0 2 4 2 100 0 5 5 1 95 0 1 1 68 5 78 
ELSE[ ]\011/* Else */
NPUSHB[ ]\011/* 37 values pushed */
0 0 5 3 5 0 114 0 3 4 4 3 112 0 1 0 5 0 1 5 105 0 4 2 2 4 89 0 4 4 2 96 0 2 4 2 80 
EIF[ ]\011/* EndIf */
EIF[ ]\011/* EndIf */
EIF[ ]\011/* EndIf */
EIF[ ]\011/* EndIf */
EIF[ ]\011/* EndIf */
NPUSHB[ ]\011/* 9 values pushed */
52 36 34 84 98 18 6 11 28 
CALL[ ]\011/* CallFunction */";
};
width = 1641;
},
{
anchors = (
{
name = bottom;
position = "{687, 0}";
},
{
name = center;
position = "{787, 679}";
},
{
name = overlay;
position = "{350, 673}";
},
{
name = top;
position = "{687, 1358}";
}
);
layerId = "16DF9356-34D2-4C02-8100-FB39A491A1B7";
paths = (
{
closed = 1;
nodes = (
"743 0 LINE SMOOTH",
"1175 0 OFFCURVE",
"1447 281 OFFCURVE",
"1447 728 CURVE SMOOTH",
"1447 1115 OFFCURVE",
"1156 1358 OFFCURVE",
"692 1358 CURVE",
"270 1358 LINE",
"270 0 LINE"
);
},
{
closed = 1;
nodes = (
"393 0 LINE",
"393 78 LINE",
"73 48 LINE",
"73 0 LINE"
);
},
{
closed = 1;
nodes = (
"401 1288 LINE",
"604 1288 LINE SMOOTH",
"1052 1288 OFFCURVE",
"1301 1084 OFFCURVE",
"1301 716 CURVE SMOOTH",
"1301 301 OFFCURVE",
"1075 70 OFFCURVE",
"669 70 CURVE SMOOTH",
"401 70 LINE"
);
},
{
closed = 1;
nodes = (
"393 1358 LINE",
"73 1358 LINE",
"73 1300 LINE",
"393 1270 LINE"
);
}
);
width = 1570;
},
{
anchors = (
{
name = bottom;
position = "{693, 0}";
},
{
name = center;
position = "{693, 679}";
},
{
name = overlay;
position = "{366, 673}";
},
{
name = top;
position = "{631, 1358}";
}
);
layerId = "20F63CDD-78BD-4F3A-8DC2-32840B76756A";
paths = (
{
closed = 1;
nodes = (
"704 0 LINE SMOOTH",
"1119 0 OFFCURVE",
"1379 294 OFFCURVE",
"1379 708 CURVE SMOOTH",
"1379 1118 OFFCURVE",
"1103 1358 OFFCURVE",
"663 1358 CURVE",
"226 1358 LINE",
"226 0 LINE"
);
},
{
closed = 1;
nodes = (
"393 0 LINE",
"393 100 LINE",
"73 70 LINE",
"73 0 LINE"
);
},
{
closed = 1;
nodes = (
"470 1284 LINE",
"590 1284 LINE SMOOTH",
"898 1284 OFFCURVE",
"1068 1091 OFFCURVE",
"1068 697 CURVE SMOOTH",
"1068 309 OFFCURVE",
"917 68 OFFCURVE",
"643 68 CURVE SMOOTH",
"470 68 LINE"
);
},
{
closed = 1;
nodes = (
"393 1358 LINE",
"73 1358 LINE",
"73 1288 LINE",
"393 1258 LINE"
);
}
);
width = 1428;
}
);
leftMetricsKey = H;
note = D;
rightKerningGroup = D;
rightMetricsKey = O;
unicode = 0044;
},
{
glyphname = E;
lastChange = "2018-11-20 17:23:23 +0000";
layers = (
{
anchors = (
{
name = bottom;
position = "{622, 0}";
},
{
name = ogonek;
position = "{1121, 10}";
},
{
name = top;
position = "{672, 1358}";
}
);
layerId = "6CE37295-6E30-426D-87AF-6FEE9061C297";
paths = (
{
closed = 1;
nodes = (
"481 0 LINE",
"481 1358 LINE",
"202 1358 LINE",
"202 0 LINE"
);
},
{
closed = 1;
nodes = (
"1250 0 LINE",
"1250 354 LINE",
"1175 354 LINE",
"1059 146 LINE SMOOTH",
"1036 104 OFFCURVE",
"986 90 OFFCURVE",
"936 90 CURVE SMOOTH",
"202 90 LINE",
"202 0 LINE"
);
},
{
closed = 1;
nodes = (
"1123 1001 LINE",
"1123 1358 LINE",
"202 1358 LINE",
"202 1265 LINE",
"801 1265 LINE SMOOTH",
"874 1265 OFFCURVE",
"898 1253 OFFCURVE",
"924 1209 CURVE SMOOTH",
"1048 1001 LINE"
);
},
{
closed = 1;
nodes = (
"807 636 LINE",
"807 728 LINE",
"306 728 LINE",
"306 636 LINE"
);
},
{
closed = 1;
nodes = (
"869 459 LINE",
"869 923 LINE",
"752 923 LINE",
"752 459 LINE"
);
},
{
closed = 1;
nodes = (
"349 1358 LINE",
"29 1358 LINE",
"29 1282 LINE",
"349 1252 LINE"
);
},
{
closed = 1;
nodes = (
"349 0 LINE",
"349 106 LINE",
"29 76 LINE",
"29 0 LINE"
);
}
);
userData = {
assembly = "MPPEM[ ]\011/* MeasurePixelPerEm */
PUSHB[ ]\011/* 1 value pushed */
79 
LT[ ]\011/* LessThan */
IF[ ]\011/* If */
NPUSHB[ ]\011/* 12 values pushed */
30 13 2 3 0 55 36 2 5 4 2 76 
ELSE[ ]\011/* Else */
NPUSHB[ ]\011/* 12 values pushed */
30 13 2 3 2 55 36 2 5 4 2 76 
EIF[ ]\011/* EndIf */
MPPEM[ ]\011/* MeasurePixelPerEm */
PUSHB[ ]\011/* 1 value pushed */
51 
LT[ ]\011/* LessThan */
IF[ ]\011/* If */
NPUSHB[ ]\011/* 31 values pushed */
0 3 0 4 5 3 4 105 2 1 0 0 1 95 0 1 1 68 77 7 1 5 5 6 95 0 6 6 69 6 78 
ELSE[ ]\011/* Else */
MPPEM[ ]\011/* MeasurePixelPerEm */
PUSHB[ ]\011/* 1 value pushed */
60 
LT[ ]\011/* LessThan */
IF[ ]\011/* If */
NPUSHB[ ]\011/* 28 values pushed */
0 3 0 4 5 3 4 105 7 1 5 0 6 5 6 99 2 1 0 0 1 95 0 1 1 68 0 78 
ELSE[ ]\011/* Else */
MPPEM[ ]\011/* MeasurePixelPerEm */
PUSHB[ ]\011/* 1 value pushed */
79 
LT[ ]\011/* LessThan */
IF[ ]\011/* If */
NPUSHB[ ]\011/* 35 values pushed */
0 1 2 1 0 3 1 0 105 0 3 0 4 5 3 4 105 7 1 5 6 6 5 89 7 1 5 5 6 95 0 6 5 6 79 
ELSE[ ]\011/* Else */
MPPEM[ ]\011/* MeasurePixelPerEm */
PUSHB[ ]\011/* 1 value pushed */
147 
LT[ ]\011/* LessThan */
IF[ ]\011/* If */
NPUSHB[ ]\011/* 41 values pushed */
0 0 1 2 2 0 114 0 1 0 2 3 1 2 103 0 3 0 4 5 3 4 105 7 1 5 6 6 5 89 7 1 5 5 6 95 0 6 5 6 79 
ELSE[ ]\011/* Else */
NPUSHB[ ]\011/* 46 values pushed */
0 0 1 2 2 0 114 0 7 5 6 5 7 114 0 1 0 2 3 1 2 103 0 3 0 4 5 3 4 105 0 5 7 6 5 87 0 5 5 6 95 0 6 5 6 79 
EIF[ ]\011/* EndIf */
EIF[ ]\011/* EndIf */
EIF[ ]\011/* EndIf */
EIF[ ]\011/* EndIf */
NPUSHB[ ]\011/* 11 values pushed */
34 88 53 61 51 56 98 18 8 11 30 
CALL[ ]\011/* CallFunction */";
};
width = 1265;
},
{
anchors = (
{
name = bottom;
position = "{735, 0}";
},
{
name = ogonek;
position = "{1068, 10}";
},
{
name = top;
position = "{665, 1358}";
}
);
layerId = "EBD25FEC-6C57-4903-A936-5FDFC9C63FB2";
paths = (
{
closed = 1;
nodes = (
"392 0 LINE",
"392 1358 LINE",
"270 1358 LINE",
"270 0 LINE"
);
},
{
closed = 1;
nodes = (
"1227 0 LINE",
"1227 342 LINE",
"1187 342 LINE",
"1112 117 LINE SMOOTH",
"1094 63 OFFCURVE",
"1055 61 OFFCURVE",
"989 61 CURVE SMOOTH",
"270 61 LINE",
"270 0 LINE"
);
},
{
closed = 1;
nodes = (
"1100 1015 LINE",
"1100 1358 LINE",
"270 1358 LINE",
"270 1297 LINE",
"871 1297 LINE SMOOTH",
"943 1297 OFFCURVE",
"977 1283 OFFCURVE",
"994 1229 CURVE SMOOTH",
"1060 1015 LINE"
);
},
{
closed = 1;
nodes = (
"860 661 LINE",
"860 722 LINE",
"339 722 LINE",
"339 661 LINE"
);
},
{
closed = 1;
nodes = (
"890 444 LINE",
"890 953 LINE",
"820 953 LINE",
"820 444 LINE"
);
},
{
closed = 1;
nodes = (
"383 1358 LINE",
"73 1358 LINE",
"73 1310 LINE",
"383 1280 LINE"
);
},
{
closed = 1;
nodes = (
"382 0 LINE",
"382 78 LINE",
"73 48 LINE",
"73 0 LINE"
);
}
);
width = 1264;
},
{
anchors = (
{
name = bottom;
position = "{562, 0}";
},
{
name = ogonek;
position = "{1061, 10}";
},
{
name = top;
position = "{612, 1358}";
}
);
layerId = "1E14FD48-0E57-4B09-9E12-AF4BF73A87E4";
paths = (
{
closed = 1;
nodes = (
"481 0 LINE",
"481 1358 LINE",
"202 1358 LINE",
"202 0 LINE"
);
},
{
closed = 1;
nodes = (
"1335 0 LINE",
"1335 354 LINE",
"1260 354 LINE",
"1144 146 LINE SMOOTH",
"1121 104 OFFCURVE",
"1071 90 OFFCURVE",
"1021 90 CURVE SMOOTH",
"202 90 LINE",
"202 0 LINE"
);
},
{
closed = 1;
nodes = (
"1208 1001 LINE",
"1208 1358 LINE",
"202 1358 LINE",
"202 1265 LINE",
"886 1265 LINE SMOOTH",
"959 1265 OFFCURVE",
"983 1253 OFFCURVE",
"1009 1209 CURVE SMOOTH",
"1133 1001 LINE"
);
},
{
closed = 1;
nodes = (
"849 616 LINE",
"849 708 LINE",
"308 708 LINE",
"308 616 LINE"
);
},
{
closed = 1;
nodes = (
"919 439 LINE",
"919 903 LINE",
"803 903 LINE",
"803 439 LINE"
);
},
{
closed = 1;
nodes = (
"349 1358 LINE",
"29 1358 LINE",
"29 1282 LINE",
"349 1252 LINE"
);
},
{
closed = 1;
nodes = (
"349 0 LINE",
"349 106 LINE",
"29 76 LINE",
"29 0 LINE"
);
}
);
userData = {
assembly = "MPPEM[ ]\011/* MeasurePixelPerEm */
PUSHB[ ]\011/* 1 value pushed */
79 
LT[ ]\011/* LessThan */
IF[ ]\011/* If */
NPUSHB[ ]\011/* 12 values pushed */
30 13 2 3 0 55 36 2 5 4 2 76 
ELSE[ ]\011/* Else */
NPUSHB[ ]\011/* 12 values pushed */
30 13 2 3 2 55 36 2 5 4 2 76 
EIF[ ]\011/* EndIf */
MPPEM[ ]\011/* MeasurePixelPerEm */
PUSHB[ ]\011/* 1 value pushed */
51 
LT[ ]\011/* LessThan */
IF[ ]\011/* If */
NPUSHB[ ]\011/* 31 values pushed */
0 3 0 4 5 3 4 105 2 1 0 0 1 95 0 1 1 68 77 7 1 5 5 6 95 0 6 6 69 6 78 
ELSE[ ]\011/* Else */
MPPEM[ ]\011/* MeasurePixelPerEm */
PUSHB[ ]\011/* 1 value pushed */
60 
LT[ ]\011/* LessThan */
IF[ ]\011/* If */
NPUSHB[ ]\011/* 28 values pushed */
0 3 0 4 5 3 4 105 7 1 5 0 6 5 6 99 2 1 0 0 1 95 0 1 1 68 0 78 
ELSE[ ]\011/* Else */
MPPEM[ ]\011/* MeasurePixelPerEm */
PUSHB[ ]\011/* 1 value pushed */
79 
LT[ ]\011/* LessThan */
IF[ ]\011/* If */
NPUSHB[ ]\011/* 35 values pushed */
0 1 2 1 0 3 1 0 105 0 3 0 4 5 3 4 105 7 1 5 6 6 5 89 7 1 5 5 6 95 0 6 5 6 79 
ELSE[ ]\011/* Else */
MPPEM[ ]\011/* MeasurePixelPerEm */
PUSHB[ ]\011/* 1 value pushed */
147 
LT[ ]\011/* LessThan */
IF[ ]\011/* If */
NPUSHB[ ]\011/* 41 values pushed */
0 0 1 2 2 0 114 0 1 0 2 3 1 2 103 0 3 0 4 5 3 4 105 7 1 5 6 6 5 89 7 1 5 5 6 95 0 6 5 6 79 
ELSE[ ]\011/* Else */
NPUSHB[ ]\011/* 46 values pushed */
0 0 1 2 2 0 114 0 7 5 6 5 7 114 0 1 0 2 3 1 2 103 0 3 0 4 5 3 4 105 0 5 7 6 5 87 0 5 5 6 95 0 6 5 6 79 
EIF[ ]\011/* EndIf */
EIF[ ]\011/* EndIf */
EIF[ ]\011/* EndIf */
EIF[ ]\011/* EndIf */
NPUSHB[ ]\011/* 11 values pushed */
34 88 53 61 51 56 98 18 8 11 30 
CALL[ ]\011/* CallFunction */";
};
width = 1350;
},
{
anchors = (
{
name = bottom;
position = "{741, 0}";
},
{
name = ogonek;
position = "{1114, 10}";
},
{
name = top;
position = "{711, 1358}";
}
);
layerId = "16DF9356-34D2-4C02-8100-FB39A491A1B7";
paths = (
{
closed = 1;
nodes = (
"400 0 LINE",
"400 1358 LINE",
"270 1358 LINE",
"270 0 LINE"
);
},
{
closed = 1;
nodes = (
"1294 0 LINE",
"1294 342 LINE",
"1268 342 LINE",
"1192 126 LINE SMOOTH",
"1180 91 OFFCURVE",
"1124 70 OFFCURVE",
"1069 70 CURVE SMOOTH",
"270 70 LINE",
"270 0 LINE"
);
},
{
closed = 1;
nodes = (
"1158 1008 LINE",
"1158 1358 LINE",
"270 1358 LINE",
"270 1288 LINE",
"939 1288 LINE SMOOTH",
"1016 1288 OFFCURVE",
"1049 1274 OFFCURVE",
"1062 1232 CURVE SMOOTH",
"1132 1008 LINE"
);
},
{
closed = 1;
nodes = (
"894 656 LINE",
"894 726 LINE",
"337 726 LINE",
"337 656 LINE"
);
},
{
closed = 1;
nodes = (
"931 439 LINE",
"931 957 LINE",
"861 957 LINE",
"861 439 LINE"
);
},
{
closed = 1;
nodes = (
"393 1358 LINE",
"73 1358 LINE",
"73 1300 LINE",
"393 1270 LINE"
);
},
{
closed = 1;
nodes = (
"393 0 LINE",
"393 78 LINE",
"73 48 LINE",
"73 0 LINE"
);
}
);
width = 1331;
},
{
anchors = (
{
name = bottom;
position = "{662, 0}";
},
{
name = ogonek;
position = "{1124, 10}";
},
{
name = top;
position = "{686, 1358}";
}
);
layerId = "20F63CDD-78BD-4F3A-8DC2-32840B76756A";
paths = (
{
closed = 1;
nodes = (
"476 0 LINE",
"476 1358 LINE",
"232 1358 LINE",
"232 0 LINE"
);
},
{
closed = 1;
nodes = (
"1227 0 LINE",
"1227 354 LINE",
"1162 354 LINE",
"1046 140 LINE SMOOTH",
"1023 98 OFFCURVE",
"973 84 OFFCURVE",
"923 84 CURVE SMOOTH",
"232 84 LINE",
"232 0 LINE"
);
},
{
closed = 1;
nodes = (
"1100 1001 LINE",
"1100 1358 LINE",
"232 1358 LINE",
"232 1272 LINE",
"788 1272 LINE SMOOTH",
"861 1272 OFFCURVE",
"885 1260 OFFCURVE",
"911 1216 CURVE SMOOTH",
"1035 1001 LINE"
);
},
{
closed = 1;
nodes = (
"830 626 LINE",
"830 711 LINE",
"366 711 LINE",
"366 626 LINE"
);
},
{
closed = 1;
nodes = (
"887 441 LINE",
"887 913 LINE",
"784 913 LINE",
"784 441 LINE"
);
},
{
closed = 1;
nodes = (
"393 1358 LINE",
"73 1358 LINE",
"73 1288 LINE",
"393 1258 LINE"
);
},
{
closed = 1;
nodes = (
"393 0 LINE",
"393 100 LINE",
"73 70 LINE",
"73 0 LINE"
);
}
);
width = 1264;
}
);
leftMetricsKey = E;
note = E;
rightKerningGroup = E;
rightMetricsKey = "=H/2";
unicode = 0045;
},
{
glyphname = Eogonek;
lastChange = "2018-10-28 18:41:10 +0000";
layers = (
{
components = (
{
name = E;
}
);
layerId = "6CE37295-6E30-426D-87AF-6FEE9061C297";
paths = (
{
closed = 1;
nodes = (
"1092 -487 OFFCURVE",
"1182 -442 OFFCURVE",
"1232 -368 CURVE",
"1194 -325 LINE",
"1154 -357 OFFCURVE",
"1131 -367 OFFCURVE",
"1086 -367 CURVE SMOOTH",
"1015 -367 OFFCURVE",
"981 -329 OFFCURVE",
"981 -246 CURVE SMOOTH",
"981 -201 OFFCURVE",
"993 -155 OFFCURVE",
"1015 -119 CURVE SMOOTH",
"1068 -32 OFFCURVE",
"1131 12 OFFCURVE",
"1180 -3 CURVE",
"1186 27 OFFCURVE",
"1091 68 OFFCURVE",
"1020 63 CURVE",
"950 -6 LINE SMOOTH",
"832 -122 OFFCURVE",
"769 -215 OFFCURVE",
"769 -303 CURVE SMOOTH",
"769 -363 OFFCURVE",
"783 -398 OFFCURVE",
"819 -436 CURVE SMOOTH",
"848 -467 OFFCURVE",
"914 -487 OFFCURVE",
"991 -487 CURVE SMOOTH"
);
}
);
userData = {
assembly = "MPPEM[ ]\011/* MeasurePixelPerEm */
PUSHB[ ]\011/* 1 value pushed */
79 
LT[ ]\011/* LessThan */
IF[ ]\011/* If */
NPUSHB[ ]\011/* 20 values pushed */
31 14 2 3 0 56 37 2 5 4 69 1 7 6 71 1 8 7 4 76 
ELSE[ ]\011/* Else */
NPUSHB[ ]\011/* 20 values pushed */
31 14 2 3 2 56 37 2 5 4 69 1 7 6 71 1 8 7 4 76 
EIF[ ]\011/* EndIf */
MPPEM[ ]\011/* MeasurePixelPerEm */
PUSHB[ ]\011/* 1 value pushed */
60 
LT[ ]\011/* LessThan */
IF[ ]\011/* If */
NPUSHB[ ]\011/* 39 values pushed */
0 3 0 4 5 3 4 105 0 7 0 8 7 8 101 2 1 0 0 1 95 0 1 1 68 77 10 1 5 5 6 97 9 1 6 6 69 6 78 
ELSE[ ]\011/* Else */
MPPEM[ ]\011/* MeasurePixelPerEm */
PUSHB[ ]\011/* 1 value pushed */
79 
LT[ ]\011/* LessThan */
IF[ ]\011/* If */
NPUSHB[ ]\011/* 43 values pushed */
0 1 2 1 0 3 1 0 105 0 3 0 4 5 3 4 105 10 1 5 9 1 6 7 5 6 105 0 7 8 8 7 89 0 7 7 8 97 0 8 7 8 81 
ELSE[ ]\011/* Else */
MPPEM[ ]\011/* MeasurePixelPerEm */
PUSHB[ ]\011/* 1 value pushed */
147 
LT[ ]\011/* LessThan */
IF[ ]\011/* If */
NPUSHB[ ]\011/* 49 values pushed */
0 0 1 2 2 0 114 0 1 0 2 3 1 2 103 0 3 0 4 5 3 4 105 10 1 5 9 1 6 7 5 6 105 0 7 8 8 7 89 0 7 7 8 97 0 8 7 8 81 
ELSE[ ]\011/* Else */
NPUSHB[ ]\011/* 61 values pushed */
0 0 1 2 2 0 114 0 10 5 9 5 10 114 0 6 9 7 9 6 114 0 1 0 2 3 1 2 103 0 3 0 4 5 3 4 105 0 5 0 9 6 5 9 103 0 7 8 8 7 89 0 7 7 8 97 0 8 7 8 81 
EIF[ ]\011/* EndIf */
EIF[ ]\011/* EndIf */
EIF[ ]\011/* EndIf */
NPUSHB[ ]\011/* 16 values pushed */
87 85 83 77 36 35 40 53 61 51 56 114 18 11 11 31 
CALL[ ]\011/* CallFunction */";
};
width = 1265;
},
{
components = (
{
name = E;
}
);
layerId = "EBD25FEC-6C57-4903-A936-5FDFC9C63FB2";
widthMetricsKey = "=1264";
paths = (
{
closed = 1;
nodes = (
"1075 -488 OFFCURVE",
"1127 -453 OFFCURVE",
"1182 -370 CURVE",
"1156 -343 LINE",
"1131 -366 OFFCURVE",
"1101 -377 OFFCURVE",
"1067 -377 CURVE SMOOTH",
"995 -377 OFFCURVE",
"960 -334 OFFCURVE",
"960 -249 CURVE SMOOTH",
"960 -206 OFFCURVE",
"973 -160 OFFCURVE",
"1000 -109 CURVE SMOOTH",
"1036 -41 OFFCURVE",
"1088 0 OFFCURVE",
"1158 0 CURVE",
"1157 41 OFFCURVE",
"1098 65 OFFCURVE",
"1039 61 CURVE",
"941 -56 LINE SMOOTH",
"869 -141 OFFCURVE",
"837 -229 OFFCURVE",
"837 -311 CURVE SMOOTH",
"837 -359 OFFCURVE",
"851 -401 OFFCURVE",
"878 -436 CURVE SMOOTH",
"905 -471 OFFCURVE",
"944 -488 OFFCURVE",
"995 -488 CURVE SMOOTH"
);
}
);
width = 1264;
},
{
components = (
{
name = E;
}
);
layerId = "1E14FD48-0E57-4B09-9E12-AF4BF73A87E4";
paths = (
{
closed = 1;
nodes = (
"1162 -487 OFFCURVE",
"1252 -442 OFFCURVE",
"1302 -368 CURVE",
"1264 -325 LINE",
"1224 -357 OFFCURVE",
"1201 -367 OFFCURVE",
"1156 -367 CURVE SMOOTH",
"1085 -367 OFFCURVE",
"1051 -329 OFFCURVE",
"1051 -246 CURVE SMOOTH",
"1051 -201 OFFCURVE",
"1063 -155 OFFCURVE",
"1085 -119 CURVE SMOOTH",
"1138 -32 OFFCURVE",
"1201 12 OFFCURVE",
"1250 -3 CURVE",
"1256 27 OFFCURVE",
"1161 68 OFFCURVE",
"1090 63 CURVE",
"1020 -6 LINE SMOOTH",
"902 -122 OFFCURVE",
"839 -215 OFFCURVE",
"839 -303 CURVE SMOOTH",
"839 -363 OFFCURVE",
"853 -398 OFFCURVE",
"889 -436 CURVE SMOOTH",
"918 -467 OFFCURVE",
"984 -487 OFFCURVE",
"1061 -487 CURVE SMOOTH"
);
}
);
userData = {
assembly = "MPPEM[ ]\011/* MeasurePixelPerEm */
PUSHB[ ]\011/* 1 value pushed */
79 
LT[ ]\011/* LessThan */
IF[ ]\011/* If */
NPUSHB[ ]\011/* 20 values pushed */
31 14 2 3 0 56 37 2 5 4 69 1 7 6 71 1 8 7 4 76 
ELSE[ ]\011/* Else */
NPUSHB[ ]\011/* 20 values pushed */
31 14 2 3 2 56 37 2 5 4 69 1 7 6 71 1 8 7 4 76 
EIF[ ]\011/* EndIf */
MPPEM[ ]\011/* MeasurePixelPerEm */
PUSHB[ ]\011/* 1 value pushed */
60 
LT[ ]\011/* LessThan */
IF[ ]\011/* If */
NPUSHB[ ]\011/* 39 values pushed */
0 3 0 4 5 3 4 105 0 7 0 8 7 8 101 2 1 0 0 1 95 0 1 1 68 77 10 1 5 5 6 97 9 1 6 6 69 6 78 
ELSE[ ]\011/* Else */
MPPEM[ ]\011/* MeasurePixelPerEm */
PUSHB[ ]\011/* 1 value pushed */
79 
LT[ ]\011/* LessThan */
IF[ ]\011/* If */
NPUSHB[ ]\011/* 43 values pushed */
0 1 2 1 0 3 1 0 105 0 3 0 4 5 3 4 105 10 1 5 9 1 6 7 5 6 105 0 7 8 8 7 89 0 7 7 8 97 0 8 7 8 81 
ELSE[ ]\011/* Else */
MPPEM[ ]\011/* MeasurePixelPerEm */
PUSHB[ ]\011/* 1 value pushed */
147 
LT[ ]\011/* LessThan */
IF[ ]\011/* If */
NPUSHB[ ]\011/* 49 values pushed */
0 0 1 2 2 0 114 0 1 0 2 3 1 2 103 0 3 0 4 5 3 4 105 10 1 5 9 1 6 7 5 6 105 0 7 8 8 7 89 0 7 7 8 97 0 8 7 8 81 
ELSE[ ]\011/* Else */
NPUSHB[ ]\011/* 61 values pushed */
0 0 1 2 2 0 114 0 10 5 9 5 10 114 0 6 9 7 9 6 114 0 1 0 2 3 1 2 103 0 3 0 4 5 3 4 105 0 5 0 9 6 5 9 103 0 7 8 8 7 89 0 7 7 8 97 0 8 7 8 81 
EIF[ ]\011/* EndIf */
EIF[ ]\011/* EndIf */
EIF[ ]\011/* EndIf */
NPUSHB[ ]\011/* 16 values pushed */
87 85 83 77 36 35 40 53 61 51 56 114 18 11 11 31 
CALL[ ]\011/* CallFunction */";
};
width = 1350;
},
{
components = (
{
name = E;
}
);
layerId = "16DF9356-34D2-4C02-8100-FB39A491A1B7";
paths = (
{
closed = 1;
nodes = (
"1145 -488 OFFCURVE",
"1197 -453 OFFCURVE",
"1252 -370 CURVE",
"1226 -343 LINE",
"1201 -366 OFFCURVE",
"1171 -377 OFFCURVE",
"1137 -377 CURVE SMOOTH",
"1065 -377 OFFCURVE",
"1030 -334 OFFCURVE",
"1030 -249 CURVE SMOOTH",
"1030 -206 OFFCURVE",
"1043 -160 OFFCURVE",
"1070 -109 CURVE SMOOTH",
"1106 -41 OFFCURVE",
"1158 0 OFFCURVE",
"1228 0 CURVE",
"1227 41 OFFCURVE",
"1168 65 OFFCURVE",
"1109 61 CURVE",
"1011 -56 LINE SMOOTH",
"939 -141 OFFCURVE",
"907 -229 OFFCURVE",
"907 -311 CURVE SMOOTH",
"907 -359 OFFCURVE",
"921 -401 OFFCURVE",
"948 -436 CURVE SMOOTH",
"975 -471 OFFCURVE",
"1014 -488 OFFCURVE",
"1065 -488 CURVE SMOOTH"
);
}
);
width = 1331;
},
{
components = (
{
name = E;
}
);
layerId = "20F63CDD-78BD-4F3A-8DC2-32840B76756A";
paths = (
{
closed = 1;
nodes = (
"1075 -488 OFFCURVE",
"1127 -453 OFFCURVE",
"1182 -370 CURVE",
"1156 -343 LINE",
"1131 -366 OFFCURVE",
"1101 -377 OFFCURVE",
"1067 -377 CURVE SMOOTH",
"995 -377 OFFCURVE",
"960 -334 OFFCURVE",
"960 -249 CURVE SMOOTH",
"960 -206 OFFCURVE",
"973 -160 OFFCURVE",
"1000 -109 CURVE SMOOTH",
"1036 -41 OFFCURVE",
"1088 0 OFFCURVE",
"1158 0 CURVE",
"1157 41 OFFCURVE",
"1098 65 OFFCURVE",
"1039 61 CURVE",
"941 -56 LINE SMOOTH",
"869 -141 OFFCURVE",
"837 -229 OFFCURVE",
"837 -311 CURVE SMOOTH",
"837 -359 OFFCURVE",
"851 -401 OFFCURVE",
"878 -436 CURVE SMOOTH",
"905 -471 OFFCURVE",
"944 -488 OFFCURVE",
"995 -488 CURVE SMOOTH"
);
}
);
width = 1264;
}
);
leftMetricsKey = "=E";
widthMetricsKey = E;
note = Eogonek;
rightKerningGroup = E;
unicode = 0118;
},
{
glyphname = F;
lastChange = "2018-11-20 17:35:13 +0000";
layers = (
{
anchors = (
{
name = bottom;
position = "{553, 0}";
},
{
name = top;
position = "{553, 1358}";
}
);
layerId = "6CE37295-6E30-426D-87AF-6FEE9061C297";
paths = (
{
closed = 1;
nodes = (
"481 0 LINE",
"481 1358 LINE",
"202 1358 LINE",
"202 0 LINE"
);
},
{
closed = 1;
nodes = (
"1142 991 LINE",
"1142 1358 LINE",
"202 1358 LINE",
"202 1265 LINE",
"809 1265 LINE SMOOTH",
"884 1265 OFFCURVE",
"909 1252 OFFCURVE",
"936 1207 CURVE SMOOTH",
"1065 991 LINE"
);
},
{
closed = 1;
nodes = (
"654 0 LINE",
"654 76 LINE",
"341 106 LINE",
"29 76 LINE",
"29 0 LINE"
);
},
{
closed = 1;
nodes = (
"787 612 LINE",
"787 704 LINE",
"286 704 LINE",
"286 612 LINE"
);
},
{
closed = 1;
nodes = (
"851 368 LINE",
"851 941 LINE",
"734 941 LINE",
"734 368 LINE"
);
},
{
closed = 1;
nodes = (
"349 1358 LINE",
"29 1358 LINE",
"29 1282 LINE",
"349 1252 LINE"
);
}
);
userData = {
assembly = "MPPEM[ ]\011/* MeasurePixelPerEm */
PUSHB[ ]\011/* 1 value pushed */
70 
LT[ ]\011/* LessThan */
IF[ ]\011/* If */
NPUSHB[ ]\011/* 11 values pushed */
30 13 2 3 0 36 1 5 4 2 76 
ELSE[ ]\011/* Else */
NPUSHB[ ]\011/* 11 values pushed */
30 13 2 3 2 36 1 5 4 2 76 
EIF[ ]\011/* EndIf */
MPPEM[ ]\011/* MeasurePixelPerEm */
PUSHB[ ]\011/* 1 value pushed */
51 
LT[ ]\011/* LessThan */
IF[ ]\011/* If */
NPUSHB[ ]\011/* 31 values pushed */
0 3 0 4 5 3 4 105 2 1 0 0 1 95 0 1 1 68 77 7 1 5 5 6 95 0 6 6 69 6 78 
ELSE[ ]\011/* Else */
MPPEM[ ]\011/* MeasurePixelPerEm */
PUSHB[ ]\011/* 1 value pushed */
60 
LT[ ]\011/* LessThan */
IF[ ]\011/* If */
NPUSHB[ ]\011/* 28 values pushed */
0 3 0 4 5 3 4 105 7 1 5 0 6 5 6 99 2 1 0 0 1 95 0 1 1 68 0 78 
ELSE[ ]\011/* Else */
MPPEM[ ]\011/* MeasurePixelPerEm */
PUSHB[ ]\011/* 1 value pushed */
70 
LT[ ]\011/* LessThan */
IF[ ]\011/* If */
NPUSHB[ ]\011/* 35 values pushed */
0 1 2 1 0 3 1 0 105 0 3 0 4 5 3 4 105 7 1 5 6 6 5 89 7 1 5 5 6 95 0 6 5 6 79 
ELSE[ ]\011/* Else */
NPUSHB[ ]\011/* 41 values pushed */
0 0 1 2 2 0 114 0 1 0 2 3 1 2 103 0 3 0 4 5 3 4 105 7 1 5 6 6 5 89 7 1 5 5 6 95 0 6 5 6 79 
EIF[ ]\011/* EndIf */
EIF[ ]\011/* EndIf */
EIF[ ]\011/* EndIf */
NPUSHB[ ]\011/* 11 values pushed */
34 66 19 61 51 71 98 18 8 11 30 
CALL[ ]\011/* CallFunction */";
};
width = 1157;
},
{
anchors = (
{
name = bottom;
position = "{561, 0}";
},
{
name = top;
position = "{561, 1358}";
}
);
layerId = "EBD25FEC-6C57-4903-A936-5FDFC9C63FB2";
paths = (
{
closed = 1;
nodes = (
"392 0 LINE",
"392 1358 LINE",
"270 1358 LINE",
"270 0 LINE"
);
},
{
closed = 1;
nodes = (
"1054 990 LINE",
"1054 1358 LINE",
"270 1358 LINE",
"270 1297 LINE",
"821 1297 LINE SMOOTH",
"900 1297 OFFCURVE",
"940 1283 OFFCURVE",
"955 1223 CURVE SMOOTH",
"1014 990 LINE"
);
},
{
closed = 1;
nodes = (
"589 0 LINE",
"589 48 LINE",
"335 78 LINE",
"73 48 LINE",
"73 0 LINE"
);
},
{
closed = 1;
nodes = (
"804 627 LINE",
"804 688 LINE",
"323 688 LINE",
"323 627 LINE"
);
},
{
closed = 1;
nodes = (
"834 374 LINE",
"834 943 LINE",
"764 943 LINE",
"764 374 LINE"
);
},
{
closed = 1;
nodes = (
"393 1358 LINE",
"73 1358 LINE",
"73 1310 LINE",
"393 1280 LINE"
);
}
);
width = 1091;
},
{
anchors = (
{
name = bottom;
position = "{553, 0}";
},
{
name = top;
position = "{553, 1358}";
}
);
layerId = "1E14FD48-0E57-4B09-9E12-AF4BF73A87E4";
paths = (
{
closed = 1;
nodes = (
"481 0 LINE",
"481 1358 LINE",
"202 1358 LINE",
"202 0 LINE"
);
},
{
closed = 1;
nodes = (
"1205 991 LINE",
"1205 1358 LINE",
"202 1358 LINE",
"202 1265 LINE",
"872 1265 LINE SMOOTH",
"947 1265 OFFCURVE",
"972 1252 OFFCURVE",
"999 1207 CURVE SMOOTH",
"1128 991 LINE"
);
},
{
closed = 1;
nodes = (
"654 0 LINE",
"654 76 LINE",
"340 106 LINE",
"29 76 LINE",
"29 0 LINE"
);
},
{
closed = 1;
nodes = (
"829 614 LINE",
"829 706 LINE",
"288 706 LINE",
"288 614 LINE"
);
},
{
closed = 1;
nodes = (
"899 369 LINE",
"899 942 LINE",
"783 942 LINE",
"783 369 LINE"
);
},
{
closed = 1;
nodes = (
"349 1358 LINE",
"29 1358 LINE",
"29 1282 LINE",
"349 1252 LINE"
);
}
);
userData = {
assembly = "MPPEM[ ]\011/* MeasurePixelPerEm */
PUSHB[ ]\011/* 1 value pushed */
70 
LT[ ]\011/* LessThan */
IF[ ]\011/* If */
NPUSHB[ ]\011/* 11 values pushed */
30 13 2 3 0 36 1 5 4 2 76 
ELSE[ ]\011/* Else */
NPUSHB[ ]\011/* 11 values pushed */
30 13 2 3 2 36 1 5 4 2 76 
EIF[ ]\011/* EndIf */
MPPEM[ ]\011/* MeasurePixelPerEm */
PUSHB[ ]\011/* 1 value pushed */
51 
LT[ ]\011/* LessThan */
IF[ ]\011/* If */
NPUSHB[ ]\011/* 31 values pushed */
0 3 0 4 5 3 4 105 2 1 0 0 1 95 0 1 1 68 77 7 1 5 5 6 95 0 6 6 69 6 78 
ELSE[ ]\011/* Else */
MPPEM[ ]\011/* MeasurePixelPerEm */
PUSHB[ ]\011/* 1 value pushed */
60 
LT[ ]\011/* LessThan */
IF[ ]\011/* If */
NPUSHB[ ]\011/* 28 values pushed */
0 3 0 4 5 3 4 105 7 1 5 0 6 5 6 99 2 1 0 0 1 95 0 1 1 68 0 78 
ELSE[ ]\011/* Else */
MPPEM[ ]\011/* MeasurePixelPerEm */
PUSHB[ ]\011/* 1 value pushed */
70 
LT[ ]\011/* LessThan */
IF[ ]\011/* If */
NPUSHB[ ]\011/* 35 values pushed */
0 1 2 1 0 3 1 0 105 0 3 0 4 5 3 4 105 7 1 5 6 6 5 89 7 1 5 5 6 95 0 6 5 6 79 
ELSE[ ]\011/* Else */
NPUSHB[ ]\011/* 41 values pushed */
0 0 1 2 2 0 114 0 1 0 2 3 1 2 103 0 3 0 4 5 3 4 105 7 1 5 6 6 5 89 7 1 5 5 6 95 0 6 5 6 79 
EIF[ ]\011/* EndIf */
EIF[ ]\011/* EndIf */
EIF[ ]\011/* EndIf */
NPUSHB[ ]\011/* 11 values pushed */
34 66 19 61 51 71 98 18 8 11 30 
CALL[ ]\011/* CallFunction */";
};
width = 1220;
},
{
anchors = (
{
name = bottom;
position = "{561, 0}";
},
{
name = top;
position = "{561, 1358}";
}
);
layerId = "16DF9356-34D2-4C02-8100-FB39A491A1B7";
paths = (
{
closed = 1;
nodes = (
"401 0 LINE",
"401 1358 LINE",
"270 1358 LINE",
"270 0 LINE"
);
},
{
closed = 1;
nodes = (
"1109 990 LINE",
"1109 1358 LINE",
"270 1358 LINE",
"270 1288 LINE",
"876 1288 LINE SMOOTH",
"958 1288 OFFCURVE",
"993 1273 OFFCURVE",
"1007 1228 CURVE SMOOTH",
"1081 990 LINE"
);
},
{
closed = 1;
nodes = (
"604 0 LINE",
"604 48 LINE",
"344 78 LINE",
"79 48 LINE",
"79 0 LINE"
);
},
{
closed = 1;
nodes = (
"804 622 LINE",
"804 692 LINE",
"337 692 LINE",
"337 622 LINE"
);
},
{
closed = 1;
nodes = (
"841 367 LINE",
"841 951 LINE",
"771 951 LINE",
"771 367 LINE"
);
},
{
closed = 1;
nodes = (
"393 1358 LINE",
"73 1358 LINE",
"73 1300 LINE",
"393 1270 LINE"
);
}
);
width = 1146;
},
{
anchors = (
{
name = bottom;
position = "{548, 0}";
},
{
name = top;
position = "{548, 1358}";
}
);
layerId = "20F63CDD-78BD-4F3A-8DC2-32840B76756A";
leftMetricsKey = "=73";
paths = (
{
closed = 1;
nodes = (
"476 0 LINE",
"476 1358 LINE",
"232 1358 LINE",
"232 0 LINE"
);
},
{
closed = 1;
nodes = (
"1054 991 LINE",
"1054 1358 LINE",
"232 1358 LINE",
"232 1272 LINE",
"731 1272 LINE SMOOTH",
"807 1272 OFFCURVE",
"832 1260 OFFCURVE",
"858 1214 CURVE SMOOTH",
"987 991 LINE"
);
},
{
closed = 1;
nodes = (
"634 0 LINE",
"634 70 LINE",
"355 100 LINE",
"73 70 LINE",
"73 0 LINE"
);
},
{
closed = 1;
nodes = (
"746 616 LINE",
"746 701 LINE",
"322 701 LINE",
"322 616 LINE"
);
},
{
closed = 1;
nodes = (
"803 368 LINE",
"803 943 LINE",
"700 943 LINE",
"700 368 LINE"
);
},
{
closed = 1;
nodes = (
"393 1358 LINE",
"73 1358 LINE",
"73 1288 LINE",
"393 1258 LINE"
);
}
);
width = 1091;
}
);
leftMetricsKey = H;
note = F;
rightKerningGroup = F;
rightMetricsKey = "=H/2";
unicode = 0046;
},
{
glyphname = G;
lastChange = "2018-11-20 17:36:21 +0000";
layers = (
{
anchors = (
{
name = bottom;
position = "{783, 0}";
},
{
name = top;
position = "{797, 1358}";
}
);
layerId = "6CE37295-6E30-426D-87AF-6FEE9061C297";
paths = (
{
closed = 1;
nodes = (
"879 -27 OFFCURVE",
"957 -24 OFFCURVE",
"1105 4 CURVE SMOOTH",
"1236 29 OFFCURVE",
"1274 35 OFFCURVE",
"1325 35 CURVE",
"1325 118 LINE",
"1298 118 OFFCURVE",
"1282 125 OFFCURVE",
"1282 160 CURVE SMOOTH",
"1282 536 LINE",
"1163 457 LINE",
"1401 487 LINE",
"1401 566 LINE",
"800 566 LINE",
"800 487 LINE",
"1121 457 LINE",
"1002 536 LINE",
"1002 40 LINE",
"1136 190 LINE",
"1022 98 OFFCURVE",
"923 68 OFFCURVE",
"823 68 CURVE SMOOTH",
"575 68 OFFCURVE",
"384 276 OFFCURVE",
"384 688 CURVE SMOOTH",
"384 1058 OFFCURVE",
"531 1296 OFFCURVE",
"813 1296 CURVE SMOOTH",
"1044 1296 OFFCURVE",
"1171 1115 OFFCURVE",
"1216 948 CURVE",
"1321 948 LINE",
"1328 1370 LINE",
"1223 1370 LINE",
"1219 1135 LINE",
"1274 1187 LINE",
"1133 1322 OFFCURVE",
"960 1385 OFFCURVE",
"766 1385 CURVE SMOOTH",
"361 1385 OFFCURVE",
"23 1072 OFFCURVE",
"23 658 CURVE SMOOTH",
"23 237 OFFCURVE",
"366 -27 OFFCURVE",
"806 -27 CURVE SMOOTH"
);
}
);
userData = {
assembly = "PUSHB[ ]\011/* 7 values pushed */
32 3 2 0 7 1 76 
MPPEM[ ]\011/* MeasurePixelPerEm */
PUSHB[ ]\011/* 1 value pushed */
34 
LT[ ]\011/* LessThan */
IF[ ]\011/* If */
NPUSHB[ ]\011/* 43 values pushed */
0 0 9 1 1 2 0 1 105 0 2 0 3 4 2 3 105 0 6 6 68 77 0 7 7 5 97 0 5 5 74 77 0 8 8 4 97 0 4 4 75 4 78 
ELSE[ ]\011/* Else */
MPPEM[ ]\011/* MeasurePixelPerEm */
PUSHB[ ]\011/* 1 value pushed */
60 
LT[ ]\011/* LessThan */
IF[ ]\011/* If */
NPUSHB[ ]\011/* 46 values pushed */
0 6 5 7 5 6 7 128 0 0 9 1 1 2 0 1 105 0 2 0 3 4 2 3 105 0 7 7 5 97 0 5 5 74 77 0 8 8 4 97 0 4 4 75 4 78 
ELSE[ ]\011/* Else */
NPUSHB[ ]\011/* 44 values pushed */
0 6 5 7 5 6 7 128 0 5 0 7 0 5 7 105 0 0 9 1 1 2 0 1 105 0 2 0 3 4 2 3 105 0 8 8 4 97 0 4 4 75 4 78 
EIF[ ]\011/* EndIf */
EIF[ ]\011/* EndIf */
NPUSHB[ ]\011/* 14 values pushed */
52 50 36 41 18 38 33 34 19 35 17 10 11 31 
CALL[ ]\011/* CallFunction */";
};
width = 1421;
},
{
anchors = (
{
name = bottom;
position = "{753, 0}";
},
{
name = top;
position = "{703, 1358}";
}
);
layerId = "EBD25FEC-6C57-4903-A936-5FDFC9C63FB2";
paths = (
{
closed = 1;
nodes = (
"840 -27 OFFCURVE",
"941 -21 OFFCURVE",
"1084 13 CURVE SMOOTH",
"1172 34 OFFCURVE",
"1185 37 OFFCURVE",
"1263 51 CURVE",
"1263 87 LINE",
"1238 87 OFFCURVE",
"1226 109 OFFCURVE",
"1226 154 CURVE SMOOTH",
"1226 517 LINE",
"1173 464 LINE",
"1367 494 LINE",
"1367 545 LINE",
"876 545 LINE",
"876 494 LINE",
"1157 464 LINE",
"1104 517 LINE",
"1104 53 LINE",
"1159 154 LINE",
"1045 62 OFFCURVE",
"873 38 OFFCURVE",
"769 38 CURVE SMOOTH",
"421 38 OFFCURVE",
"203 308 OFFCURVE",
"203 680 CURVE SMOOTH",
"203 1064 OFFCURVE",
"436 1324 OFFCURVE",
"741 1324 CURVE SMOOTH",
"944 1324 OFFCURVE",
"1116 1209 OFFCURVE",
"1182 948 CURVE",
"1239 948 LINE",
"1242 1370 LINE",
"1185 1370 LINE",
"1184 1184 LINE",
"1208 1182 LINE",
"1070 1322 OFFCURVE",
"923 1385 OFFCURVE",
"740 1385 CURVE SMOOTH",
"341 1385 OFFCURVE",
"60 1085 OFFCURVE",
"60 675 CURVE SMOOTH",
"60 261 OFFCURVE",
"346 -27 OFFCURVE",
"777 -27 CURVE SMOOTH"
);
}
);
width = 1418;
},
{
anchors = (
{
name = bottom;
position = "{845, 0}";
},
{
name = top;
position = "{859, 1358}";
}
);
layerId = "1E14FD48-0E57-4B09-9E12-AF4BF73A87E4";
paths = (
{
closed = 1;
nodes = (
"953 -27 OFFCURVE",
"1100 -16 OFFCURVE",
"1223 4 CURVE SMOOTH",
"1356 26 OFFCURVE",
"1424 35 OFFCURVE",
"1473 35 CURVE",
"1473 118 LINE",
"1446 118 OFFCURVE",
"1430 121 OFFCURVE",
"1430 160 CURVE SMOOTH",
"1430 520 LINE",
"1327 457 LINE",
"1549 487 LINE",
"1549 566 LINE",
"948 566 LINE",
"948 487 LINE",
"1253 457 LINE",
"1150 520 LINE",
"1150 40 LINE",
"1254 190 LINE",
"1140 98 OFFCURVE",
"1034 68 OFFCURVE",
"927 68 CURVE SMOOTH",
"676 68 OFFCURVE",
"410 268 OFFCURVE",
"410 705 CURVE SMOOTH",
"410 1051 OFFCURVE",
"608 1296 OFFCURVE",
"862 1296 CURVE SMOOTH",
"1110 1296 OFFCURVE",
"1301 1115 OFFCURVE",
"1349 948 CURVE",
"1455 948 LINE",
"1462 1370 LINE",
"1357 1370 LINE",
"1353 1135 LINE",
"1412 1187 LINE",
"1261 1322 OFFCURVE",
"1075 1384 OFFCURVE",
"867 1384 CURVE SMOOTH",
"404 1384 OFFCURVE",
"49 1095 OFFCURVE",
"49 647 CURVE SMOOTH",
"49 222 OFFCURVE",
"426 -27 OFFCURVE",
"852 -27 CURVE SMOOTH"
);
}
);
userData = {
assembly = "PUSHB[ ]\011/* 7 values pushed */
32 3 2 0 7 1 76 
MPPEM[ ]\011/* MeasurePixelPerEm */
PUSHB[ ]\011/* 1 value pushed */
34 
LT[ ]\011/* LessThan */
IF[ ]\011/* If */
NPUSHB[ ]\011/* 43 values pushed */
0 0 9 1 1 2 0 1 105 0 2 0 3 4 2 3 105 0 6 6 68 77 0 7 7 5 97 0 5 5 74 77 0 8 8 4 97 0 4 4 75 4 78 
ELSE[ ]\011/* Else */
MPPEM[ ]\011/* MeasurePixelPerEm */
PUSHB[ ]\011/* 1 value pushed */
60 
LT[ ]\011/* LessThan */
IF[ ]\011/* If */
NPUSHB[ ]\011/* 46 values pushed */
0 6 5 7 5 6 7 128 0 0 9 1 1 2 0 1 105 0 2 0 3 4 2 3 105 0 7 7 5 97 0 5 5 74 77 0 8 8 4 97 0 4 4 75 4 78 
ELSE[ ]\011/* Else */
NPUSHB[ ]\011/* 44 values pushed */
0 6 5 7 5 6 7 128 0 5 0 7 0 5 7 105 0 0 9 1 1 2 0 1 105 0 2 0 3 4 2 3 105 0 8 8 4 97 0 4 4 75 4 78 
EIF[ ]\011/* EndIf */
EIF[ ]\011/* EndIf */
NPUSHB[ ]\011/* 14 values pushed */
52 50 36 41 18 38 33 34 19 35 17 10 11 31 
CALL[ ]\011/* CallFunction */";
};
width = 1569;
},
{
anchors = (
{
name = bottom;
position = "{864, 0}";
},
{
name = top;
position = "{824, 1358}";
}
);
layerId = "16DF9356-34D2-4C02-8100-FB39A491A1B7";
paths = (
{
closed = 1;
nodes = (
"951 -27 OFFCURVE",
"1053 -24 OFFCURVE",
"1217 13 CURVE SMOOTH",
"1350 43 OFFCURVE",
"1395 50 OFFCURVE",
"1408 51 CURVE",
"1408 87 LINE",
"1382 87 OFFCURVE",
"1369 109 OFFCURVE",
"1369 154 CURVE SMOOTH",
"1369 510 LINE",
"1313 454 LINE",
"1510 484 LINE",
"1510 544 LINE",
"1010 544 LINE",
"1010 484 LINE",
"1294 454 LINE",
"1238 510 LINE",
"1238 53 LINE",
"1297 154 LINE",
"1175 62 OFFCURVE",
"991 38 OFFCURVE",
"875 38 CURVE SMOOTH",
"503 38 OFFCURVE",
"269 283 OFFCURVE",
"269 665 CURVE SMOOTH",
"269 1051 OFFCURVE",
"509 1324 OFFCURVE",
"846 1324 CURVE SMOOTH",
"1064 1324 OFFCURVE",
"1248 1207 OFFCURVE",
"1318 948 CURVE",
"1379 948 LINE",
"1382 1370 LINE",
"1321 1370 LINE",
"1320 1184 LINE",
"1346 1182 LINE",
"1198 1322 OFFCURVE",
"1040 1385 OFFCURVE",
"843 1385 CURVE SMOOTH",
"415 1385 OFFCURVE",
"123 1084 OFFCURVE",
"123 669 CURVE SMOOTH",
"123 261 OFFCURVE",
"406 -27 OFFCURVE",
"936 -27 CURVE SMOOTH"
);
}
);
width = 1561;
},
{
anchors = (
{
name = bottom;
position = "{781, 0}";
},
{
name = top;
position = "{786, 1358}";
}
);
layerId = "20F63CDD-78BD-4F3A-8DC2-32840B76756A";
paths = (
{
closed = 1;
nodes = (
"865 -27 OFFCURVE",
"951 -25 OFFCURVE",
"1100 6 CURVE SMOOTH",
"1220 31 OFFCURVE",
"1244 36 OFFCURVE",
"1293 39 CURVE",
"1293 111 LINE",
"1265 111 OFFCURVE",
"1253 125 OFFCURVE",
"1253 159 CURVE SMOOTH",
"1253 524 LINE",
"1148 459 LINE",
"1367 489 LINE",
"1367 561 LINE",
"818 561 LINE",
"818 489 LINE",
"1115 459 LINE",
"1010 524 LINE",
"1010 43 LINE",
"1131 182 LINE",
"1022 92 OFFCURVE",
"915 64 OFFCURVE",
"822 64 CURVE SMOOTH",
"539 64 OFFCURVE",
"361 307 OFFCURVE",
"361 690 CURVE SMOOTH",
"361 1051 OFFCURVE",
"521 1302 OFFCURVE",
"782 1302 CURVE SMOOTH",
"992 1302 OFFCURVE",
"1127 1124 OFFCURVE",
"1173 948 CURVE",
"1278 948 LINE",
"1280 1370 LINE",
"1175 1370 LINE",
"1173 1148 LINE",
"1221 1166 LINE",
"1068 1344 OFFCURVE",
"888 1385 OFFCURVE",
"744 1385 CURVE SMOOTH",
"350 1385 OFFCURVE",
"49 1088 OFFCURVE",
"49 670 CURVE SMOOTH",
"49 237 OFFCURVE",
"370 -27 OFFCURVE",
"823 -27 CURVE SMOOTH"
);
}
);
width = 1418;
}
);
leftKerningGroup = C;
leftMetricsKey = "=O";
note = G;
rightKerningGroup = G;
rightMetricsKey = "=H*0.7";
unicode = 0047;
},
{
glyphname = uni021C;
lastChange = "2018-11-17 05:00:01 +0000";
layers = (
{
layerId = "6CE37295-6E30-426D-87AF-6FEE9061C297";
paths = (
{
closed = 1;
nodes = (
"663 -139 OFFCURVE",
"1023 36 OFFCURVE",
"1023 406 CURVE SMOOTH",
"1023 608 OFFCURVE",
"916 770 OFFCURVE",
"634 801 CURVE",
"668 719 LINE",
"862 821 OFFCURVE",
"953 924 OFFCURVE",
"953 1090 CURVE SMOOTH",
"953 1279 OFFCURVE",
"779 1384 OFFCURVE",
"561 1384 CURVE SMOOTH",
"381 1384 OFFCURVE",
"212 1318 OFFCURVE",
"85 1152 CURVE",
"158 1184 LINE",
"158 1370 LINE",
"63 1370 LINE",
"63 948 LINE",
"158 948 LINE",
"158 1131 OFFCURVE",
"330 1251 OFFCURVE",
"451 1251 CURVE SMOOTH",
"532 1251 OFFCURVE",
"620 1186 OFFCURVE",
"620 1044 CURVE SMOOTH",
"620 919 OFFCURVE",
"554 818 OFFCURVE",
"257 652 CURVE",
"306 577 LINE",
"406 641 OFFCURVE",
"465 666 OFFCURVE",
"516 666 CURVE SMOOTH",
"599 666 OFFCURVE",
"673 560 OFFCURVE",
"673 428 CURVE SMOOTH",
"673 183 OFFCURVE",
"440 -15 OFFCURVE",
"45 -15 CURVE",
"45 -139 LINE"
);
}
);
userData = {
assembly = "NPUSHB[ ]\011/* 10 values pushed */
37 1 4 5 33 1 2 3 2 76 
MPPEM[ ]\011/* MeasurePixelPerEm */
PUSHB[ ]\011/* 1 value pushed */
60 
LT[ ]\011/* LessThan */
IF[ ]\011/* If */
NPUSHB[ ]\011/* 32 values pushed */
0 2 3 1 3 2 1 128 0 4 0 3 2 4 3 106 0 5 5 74 77 0 1 1 0 97 0 0 0 75 0 78 
ELSE[ ]\011/* Else */
MPPEM[ ]\011/* MeasurePixelPerEm */
PUSHB[ ]\011/* 1 value pushed */
84 
LT[ ]\011/* LessThan */
IF[ ]\011/* If */
NPUSHB[ ]\011/* 32 values pushed */
0 5 4 5 133 0 2 3 1 3 2 1 128 0 4 0 3 2 4 3 106 0 1 1 0 97 0 0 0 75 0 78 
ELSE[ ]\011/* Else */
NPUSHB[ ]\011/* 37 values pushed */
0 5 4 5 133 0 2 3 1 3 2 1 128 0 4 0 3 2 4 3 106 0 1 0 0 1 89 0 1 1 0 97 0 0 1 0 81 
EIF[ ]\011/* EndIf */
EIF[ ]\011/* EndIf */
NPUSHB[ ]\011/* 9 values pushed */
35 25 46 38 34 19 6 11 28 
CALL[ ]\011/* CallFunction */";
};
width = 1038;
},
{
layerId = "EBD25FEC-6C57-4903-A936-5FDFC9C63FB2";
paths = (
{
closed = 1;
nodes = (
"498 -156 OFFCURVE",
"911 80 OFFCURVE",
"911 448 CURVE SMOOTH",
"911 627 OFFCURVE",
"808 744 OFFCURVE",
"620 768 CURVE",
"607 734 LINE",
"762 848 OFFCURVE",
"833 963 OFFCURVE",
"833 1099 CURVE SMOOTH",
"833 1287 OFFCURVE",
"691 1386 OFFCURVE",
"512 1386 CURVE SMOOTH",
"366 1386 OFFCURVE",
"266 1322 OFFCURVE",
"124 1156 CURVE",
"158 1164 LINE",
"158 1370 LINE",
"101 1370 LINE",
"101 948 LINE",
"158 948 LINE",
"158 1147 OFFCURVE",
"299 1301 OFFCURVE",
"474 1301 CURVE SMOOTH",
"609 1301 OFFCURVE",
"701 1214 OFFCURVE",
"701 1062 CURVE SMOOTH",
"701 868 OFFCURVE",
"550 778 OFFCURVE",
"339 653 CURVE",
"370 606 LINE",
"443 664 OFFCURVE",
"504 680 OFFCURVE",
"551 680 CURVE SMOOTH",
"684 680 OFFCURVE",
"772 567 OFFCURVE",
"772 416 CURVE SMOOTH",
"772 96 OFFCURVE",
"370 -101 OFFCURVE",
"96 -101 CURVE",
"96 -156 LINE"
);
}
);
width = 948;
},
{
layerId = "1E14FD48-0E57-4B09-9E12-AF4BF73A87E4";
paths = (
{
closed = 1;
nodes = (
"663 -139 OFFCURVE",
"1023 36 OFFCURVE",
"1023 406 CURVE SMOOTH",
"1023 608 OFFCURVE",
"916 770 OFFCURVE",
"634 801 CURVE",
"668 719 LINE",
"862 811 OFFCURVE",
"953 914 OFFCURVE",
"953 1090 CURVE SMOOTH",
"953 1269 OFFCURVE",
"779 1384 OFFCURVE",
"561 1384 CURVE SMOOTH",
"381 1384 OFFCURVE",
"212 1318 OFFCURVE",
"85 1152 CURVE",
"158 1184 LINE",
"158 1370 LINE",
"63 1370 LINE",
"63 948 LINE",
"158 948 LINE",
"158 1131 OFFCURVE",
"330 1251 OFFCURVE",
"451 1251 CURVE SMOOTH",
"532 1251 OFFCURVE",
"620 1186 OFFCURVE",
"620 1044 CURVE SMOOTH",
"620 919 OFFCURVE",
"554 818 OFFCURVE",
"257 652 CURVE",
"306 577 LINE",
"406 641 OFFCURVE",
"465 666 OFFCURVE",
"516 666 CURVE SMOOTH",
"599 666 OFFCURVE",
"673 560 OFFCURVE",
"673 428 CURVE SMOOTH",
"673 183 OFFCURVE",
"440 -15 OFFCURVE",
"45 -15 CURVE",
"45 -139 LINE"
);
}
);
userData = {
assembly = "NPUSHB[ ]\011/* 10 values pushed */
37 1 4 5 33 1 2 3 2 76 
MPPEM[ ]\011/* MeasurePixelPerEm */
PUSHB[ ]\011/* 1 value pushed */
60 
LT[ ]\011/* LessThan */
IF[ ]\011/* If */
NPUSHB[ ]\011/* 32 values pushed */
0 2 3 1 3 2 1 128 0 4 0 3 2 4 3 106 0 5 5 74 77 0 1 1 0 97 0 0 0 75 0 78 
ELSE[ ]\011/* Else */
MPPEM[ ]\011/* MeasurePixelPerEm */
PUSHB[ ]\011/* 1 value pushed */
84 
LT[ ]\011/* LessThan */
IF[ ]\011/* If */
NPUSHB[ ]\011/* 32 values pushed */
0 5 4 5 133 0 2 3 1 3 2 1 128 0 4 0 3 2 4 3 106 0 1 1 0 97 0 0 0 75 0 78 
ELSE[ ]\011/* Else */
NPUSHB[ ]\011/* 37 values pushed */
0 5 4 5 133 0 2 3 1 3 2 1 128 0 4 0 3 2 4 3 106 0 1 0 0 1 89 0 1 1 0 97 0 0 1 0 81 
EIF[ ]\011/* EndIf */
EIF[ ]\011/* EndIf */
NPUSHB[ ]\011/* 9 values pushed */
35 25 46 38 34 19 6 11 28 
CALL[ ]\011/* CallFunction */";
};
width = 1038;
},
{
layerId = "16DF9356-34D2-4C02-8100-FB39A491A1B7";
paths = (
{
closed = 1;
nodes = (
"527 -156 OFFCURVE",
"970 80 OFFCURVE",
"970 448 CURVE SMOOTH",
"970 627 OFFCURVE",
"859 744 OFFCURVE",
"658 768 CURVE",
"644 734 LINE",
"810 848 OFFCURVE",
"886 963 OFFCURVE",
"886 1099 CURVE SMOOTH",
"886 1287 OFFCURVE",
"734 1386 OFFCURVE",
"542 1386 CURVE SMOOTH",
"385 1386 OFFCURVE",
"278 1322 OFFCURVE",
"126 1156 CURVE",
"162 1164 LINE",
"162 1370 LINE",
"101 1370 LINE",
"101 948 LINE",
"162 948 LINE",
"162 1147 OFFCURVE",
"314 1301 OFFCURVE",
"501 1301 CURVE SMOOTH",
"645 1301 OFFCURVE",
"744 1214 OFFCURVE",
"744 1062 CURVE SMOOTH",
"744 868 OFFCURVE",
"582 778 OFFCURVE",
"356 653 CURVE",
"390 606 LINE",
"468 664 OFFCURVE",
"533 680 OFFCURVE",
"584 680 CURVE SMOOTH",
"730 680 OFFCURVE",
"827 567 OFFCURVE",
"827 416 CURVE SMOOTH",
"827 96 OFFCURVE",
"392 -101 OFFCURVE",
"96 -101 CURVE",
"96 -156 LINE"
);
}
);
width = 1007;
},
{
layerId = "20F63CDD-78BD-4F3A-8DC2-32840B76756A";
paths = (
{
closed = 1;
nodes = (
"627 -143 OFFCURVE",
"911 49 OFFCURVE",
"911 408 CURVE SMOOTH",
"911 646 OFFCURVE",
"775 763 OFFCURVE",
"588 774 CURVE",
"622 722 LINE",
"780 831 OFFCURVE",
"835 986 OFFCURVE",
"835 1102 CURVE SMOOTH",
"835 1285 OFFCURVE",
"702 1384 OFFCURVE",
"529 1384 CURVE SMOOTH",
"362 1384 OFFCURVE",
"238 1290 OFFCURVE",
"147 1149 CURVE",
"191 1126 LINE",
"191 1370 LINE",
"96 1370 LINE",
"96 948 LINE",
"191 948 LINE",
"191 1111 OFFCURVE",
"313 1261 OFFCURVE",
"437 1261 CURVE SMOOTH",
"516 1261 OFFCURVE",
"579 1199 OFFCURVE",
"579 1046 CURVE SMOOTH",
"579 910 OFFCURVE",
"527 805 OFFCURVE",
"277 649 CURVE",
"319 583 LINE",
"383 631 OFFCURVE",
"434 649 OFFCURVE",
"486 649 CURVE SMOOTH",
"559 649 OFFCURVE",
"613 554 OFFCURVE",
"613 425 CURVE SMOOTH",
"613 156 OFFCURVE",
"430 -55 OFFCURVE",
"102 -55 CURVE",
"102 -143 LINE"
);
}
);
width = 948;
}
);
note = uni021C;
rightMetricsKey = B;
unicode = 021C;
},
{
glyphname = H;
lastChange = "2018-11-13 03:08:07 +0000";
layers = (
{
anchors = (
{
name = bottom;
position = "{812, 0}";
},
{
name = center;
position = "{812, 679}";
},
{
name = ogonek;
position = "{1547, 10}";
},
{
name = top;
position = "{812, 1358}";
},
{
name = topleft;
position = "{-19, 1358}";
}
);
layerId = "6CE37295-6E30-426D-87AF-6FEE9061C297";
paths = (
{
closed = 1;
nodes = (
"481 0 LINE",
"481 1358 LINE",
"202 1358 LINE",
"202 0 LINE"
);
},
{
closed = 1;
nodes = (
"1431 0 LINE",
"1431 1358 LINE",
"1152 1358 LINE",
"1152 0 LINE"
);
},
{
closed = 1;
nodes = (
"1202 653 LINE",
"1202 748 LINE",
"389 748 LINE",
"389 653 LINE"
);
},
{
closed = 1;
nodes = (
"654 0 LINE",
"654 76 LINE",
"341 106 LINE",
"29 76 LINE",
"29 0 LINE"
);
},
{
closed = 1;
nodes = (
"1604 0 LINE",
"1604 76 LINE",
"1291 106 LINE",
"979 76 LINE",
"979 0 LINE"
);
},
{
closed = 1;
nodes = (
"654 1282 LINE",
"654 1358 LINE",
"29 1358 LINE",
"29 1282 LINE",
"330 1252 LINE"
);
},
{
closed = 1;
nodes = (
"1604 1282 LINE",
"1604 1358 LINE",
"979 1358 LINE",
"979 1282 LINE",
"1280 1252 LINE"
);
}
);
userData = {
assembly = "PUSHB[ ]\011/* 5 values pushed */
62 42 2 8 74 
MPPEM[ ]\011/* MeasurePixelPerEm */
PUSHB[ ]\011/* 1 value pushed */
51 
LT[ ]\011/* LessThan */
IF[ ]\011/* If */
NPUSHB[ ]\011/* 37 values pushed */
0 10 0 3 0 10 3 103 13 11 9 3 7 7 8 97 12 1 8 8 68 77 6 4 2 3 0 0 1 95 5 1 1 1 69 1 78 
ELSE[ ]\011/* Else */
MPPEM[ ]\011/* MeasurePixelPerEm */
PUSHB[ ]\011/* 1 value pushed */
60 
LT[ ]\011/* LessThan */
IF[ ]\011/* If */
NPUSHB[ ]\011/* 34 values pushed */
0 10 0 3 0 10 3 103 6 4 2 3 0 5 1 1 0 1 99 13 11 9 3 7 7 8 97 12 1 8 8 68 7 78 
ELSE[ ]\011/* Else */
NPUSHB[ ]\011/* 43 values pushed */
12 1 8 13 11 9 3 7 10 8 7 105 0 10 0 3 0 10 3 103 6 4 2 3 0 1 1 0 89 6 4 2 3 0 0 1 95 5 1 1 0 1 79 
EIF[ ]\011/* EndIf */
EIF[ ]\011/* EndIf */
NPUSHB[ ]\011/* 22 values pushed */
66 64 61 60 56 55 52 49 46 44 20 19 34 66 19 51 34 66 17 14 11 31 
CALL[ ]\011/* CallFunction */";
};
width = 1633;
},
{
anchors = (
{
name = bottom;
position = "{807, 0}";
},
{
name = center;
position = "{807, 679}";
},
{
name = ogonek;
position = "{1545, 10}";
},
{
name = top;
position = "{807, 1358}";
},
{
name = topleft;
position = "{25, 1358}";
}
);
layerId = "EBD25FEC-6C57-4903-A936-5FDFC9C63FB2";
paths = (
{
closed = 1;
nodes = (
"392 0 LINE",
"392 1358 LINE",
"270 1358 LINE",
"270 0 LINE"
);
},
{
closed = 1;
nodes = (
"1353 0 LINE",
"1353 1358 LINE",
"1231 1358 LINE",
"1231 0 LINE"
);
},
{
closed = 1;
nodes = (
"1287 670 LINE",
"1287 731 LINE",
"335 731 LINE",
"335 670 LINE"
);
},
{
closed = 1;
nodes = (
"589 0 LINE",
"589 48 LINE",
"335 78 LINE",
"73 48 LINE",
"73 0 LINE"
);
},
{
closed = 1;
nodes = (
"1550 0 LINE",
"1550 48 LINE",
"1296 78 LINE",
"1034 48 LINE",
"1034 0 LINE"
);
},
{
closed = 1;
nodes = (
"589 1310 LINE",
"589 1358 LINE",
"73 1358 LINE",
"73 1310 LINE",
"330 1280 LINE"
);
},
{
closed = 1;
nodes = (
"1550 1310 LINE",
"1550 1358 LINE",
"1034 1358 LINE",
"1034 1310 LINE",
"1291 1280 LINE"
);
}
);
width = 1623;
},
{
anchors = (
{
name = bottom;
position = "{812, 0}";
},
{
name = center;
position = "{812, 679}";
},
{
name = ogonek;
position = "{1547, 10}";
},
{
name = top;
position = "{812, 1358}";
},
{
name = topleft;
position = "{-19, 1358}";
}
);
layerId = "1E14FD48-0E57-4B09-9E12-AF4BF73A87E4";
paths = (
{
closed = 1;
nodes = (
"481 0 LINE",
"481 1358 LINE",
"202 1358 LINE",
"202 0 LINE"
);
},
{
closed = 1;
nodes = (
"1541 0 LINE",
"1541 1358 LINE",
"1262 1358 LINE",
"1262 0 LINE"
);
},
{
closed = 1;
nodes = (
"1312 653 LINE",
"1312 748 LINE",
"389 748 LINE",
"389 653 LINE"
);
},
{
closed = 1;
nodes = (
"654 0 LINE",
"654 76 LINE",
"340 106 LINE",
"29 76 LINE",
"29 0 LINE"
);
},
{
closed = 1;
nodes = (
"1713 0 LINE",
"1713 76 LINE",
"1399 106 LINE",
"1088 76 LINE",
"1088 0 LINE"
);
},
{
closed = 1;
nodes = (
"654 1282 LINE",
"654 1358 LINE",
"29 1358 LINE",
"29 1282 LINE",
"344 1252 LINE"
);
},
{
closed = 1;
nodes = (
"1714 1282 LINE",
"1714 1358 LINE",
"1089 1358 LINE",
"1089 1282 LINE",
"1404 1252 LINE"
);
}
);
userData = {
assembly = "PUSHB[ ]\011/* 5 values pushed */
62 42 2 8 74 
MPPEM[ ]\011/* MeasurePixelPerEm */
PUSHB[ ]\011/* 1 value pushed */
51 
LT[ ]\011/* LessThan */
IF[ ]\011/* If */
NPUSHB[ ]\011/* 37 values pushed */
0 10 0 3 0 10 3 103 13 11 9 3 7 7 8 97 12 1 8 8 68 77 6 4 2 3 0 0 1 95 5 1 1 1 69 1 78 
ELSE[ ]\011/* Else */
MPPEM[ ]\011/* MeasurePixelPerEm */
PUSHB[ ]\011/* 1 value pushed */
60 
LT[ ]\011/* LessThan */
IF[ ]\011/* If */
NPUSHB[ ]\011/* 34 values pushed */
0 10 0 3 0 10 3 103 6 4 2 3 0 5 1 1 0 1 99 13 11 9 3 7 7 8 97 12 1 8 8 68 7 78 
ELSE[ ]\011/* Else */
NPUSHB[ ]\011/* 43 values pushed */
12 1 8 13 11 9 3 7 10 8 7 105 0 10 0 3 0 10 3 103 6 4 2 3 0 1 1 0 89 6 4 2 3 0 0 1 95 5 1 1 0 1 79 
EIF[ ]\011/* EndIf */
EIF[ ]\011/* EndIf */
NPUSHB[ ]\011/* 22 values pushed */
66 64 61 60 56 55 52 49 46 44 20 19 34 66 19 51 34 66 17 14 11 31 
CALL[ ]\011/* CallFunction */";
};
width = 1743;
},
{
anchors = (
{
name = bottom;
position = "{807, 0}";
},
{
name = center;
position = "{807, 679}";
},
{
name = ogonek;
position = "{1545, 10}";
},
{
name = top;
position = "{807, 1358}";
},
{
name = topleft;
position = "{25, 1358}";
}
);
layerId = "16DF9356-34D2-4C02-8100-FB39A491A1B7";
paths = (
{
closed = 1;
nodes = (
"414 0 LINE",
"414 1358 LINE",
"284 1358 LINE",
"284 0 LINE"
);
},
{
closed = 1;
nodes = (
"1443 0 LINE",
"1443 1358 LINE",
"1312 1358 LINE",
"1312 0 LINE"
);
},
{
closed = 1;
nodes = (
"1351 665 LINE",
"1351 735 LINE",
"407 735 LINE",
"407 665 LINE"
);
},
{
closed = 1;
nodes = (
"625 0 LINE",
"625 48 LINE",
"352 78 LINE",
"73 48 LINE",
"73 0 LINE"
);
},
{
closed = 1;
nodes = (
"1653 0 LINE",
"1653 48 LINE",
"1380 78 LINE",
"1101 48 LINE",
"1101 0 LINE"
);
},
{
closed = 1;
nodes = (
"625 1310 LINE",
"625 1358 LINE",
"73 1358 LINE",
"73 1310 LINE",
"346 1280 LINE"
);
},
{
closed = 1;
nodes = (
"1653 1310 LINE",
"1653 1358 LINE",
"1101 1358 LINE",
"1101 1310 LINE",
"1374 1280 LINE"
);
}
);
width = 1726;
},
{
anchors = (
{
name = bottom;
position = "{807, 0}";
},
{
name = center;
position = "{807, 679}";
},
{
name = ogonek;
position = "{1513, 10}";
},
{
name = top;
position = "{807, 1358}";
},
{
name = topleft;
position = "{-13, 1358}";
}
);
layerId = "20F63CDD-78BD-4F3A-8DC2-32840B76756A";
leftMetricsKey = "=73";
rightMetricsKey = "=73";
paths = (
{
closed = 1;
nodes = (
"495 0 LINE",
"495 1358 LINE",
"251 1358 LINE",
"251 0 LINE"
);
},
{
closed = 1;
nodes = (
"1372 0 LINE",
"1372 1358 LINE",
"1128 1358 LINE",
"1128 0 LINE"
);
},
{
closed = 1;
nodes = (
"1175 656 LINE",
"1175 745 LINE",
"422 745 LINE",
"422 656 LINE"
);
},
{
closed = 1;
nodes = (
"674 0 LINE",
"674 70 LINE",
"377 100 LINE",
"73 70 LINE",
"73 0 LINE"
);
},
{
closed = 1;
nodes = (
"1550 0 LINE",
"1550 70 LINE",
"1253 100 LINE",
"949 70 LINE",
"949 0 LINE"
);
},
{
closed = 1;
nodes = (
"674 1288 LINE",
"674 1358 LINE",
"73 1358 LINE",
"73 1288 LINE",
"365 1258 LINE"
);
},
{
closed = 1;
nodes = (
"1550 1288 LINE",
"1550 1358 LINE",
"949 1358 LINE",
"949 1288 LINE",
"1238 1258 LINE"
);
}
);
width = 1623;
}
);
note = H;
unicode = 0048;
},
{
glyphname = I;
lastChange = "2018-11-13 03:14:12 +0000";
layers = (
{
anchors = (
{
name = bottom;
position = "{344, 0}";
},
{
name = ogonek;
position = "{597, 10}";
},
{
name = top;
position = "{344, 1358}";
}
);
layerId = "6CE37295-6E30-426D-87AF-6FEE9061C297";
paths = (
{
closed = 1;
nodes = (
"481 0 LINE",
"481 1358 LINE",
"202 1358 LINE",
"202 0 LINE"
);
},
{
closed = 1;
nodes = (
"654 0 LINE",
"654 76 LINE",
"341 106 LINE",
"29 76 LINE",
"29 0 LINE"
);
},
{
closed = 1;
nodes = (
"654 1282 LINE",
"654 1358 LINE",
"29 1358 LINE",
"29 1282 LINE",
"330 1252 LINE"
);
}
);
userData = {
assembly = "PUSHB[ ]\011/* 4 values pushed */
14 1 2 74 
MPPEM[ ]\011/* MeasurePixelPerEm */
PUSHB[ ]\011/* 1 value pushed */
51 
LT[ ]\011/* LessThan */
IF[ ]\011/* If */
NPUSHB[ ]\011/* 24 values pushed */
3 1 1 1 2 97 0 2 2 68 77 4 1 0 0 5 95 6 1 5 5 69 5 78 
ELSE[ ]\011/* Else */
MPPEM[ ]\011/* MeasurePixelPerEm */
PUSHB[ ]\011/* 1 value pushed */
60 
LT[ ]\011/* LessThan */
IF[ ]\011/* If */
NPUSHB[ ]\011/* 21 values pushed */
4 1 0 6 1 5 0 5 99 3 1 1 1 2 97 0 2 2 68 1 78 
ELSE[ ]\011/* Else */
NPUSHB[ ]\011/* 28 values pushed */
0 2 3 1 1 0 2 1 105 4 1 0 5 5 0 89 4 1 0 0 5 95 6 1 5 0 5 79 
EIF[ ]\011/* EndIf */
EIF[ ]\011/* EndIf */
NPUSHB[ ]\011/* 14 values pushed */
0 0 0 27 0 24 19 35 20 19 34 7 11 27 
CALL[ ]\011/* CallFunction */";
};
width = 683;
},
{
anchors = (
{
name = bottom;
position = "{327, 0}";
},
{
name = ogonek;
position = "{544, 10}";
},
{
name = top;
position = "{327, 1358}";
}
);
layerId = "EBD25FEC-6C57-4903-A936-5FDFC9C63FB2";
paths = (
{
closed = 1;
nodes = (
"392 0 LINE",
"392 1358 LINE",
"270 1358 LINE",
"270 0 LINE"
);
},
{
closed = 1;
nodes = (
"589 0 LINE",
"589 48 LINE",
"335 78 LINE",
"73 48 LINE",
"73 0 LINE"
);
},
{
closed = 1;
nodes = (
"589 1310 LINE",
"589 1358 LINE",
"73 1358 LINE",
"73 1310 LINE",
"330 1280 LINE"
);
}
);
width = 662;
},
{
anchors = (
{
name = bottom;
position = "{344, 0}";
},
{
name = ogonek;
position = "{597, 10}";
},
{
name = top;
position = "{344, 1358}";
}
);
layerId = "1E14FD48-0E57-4B09-9E12-AF4BF73A87E4";
paths = (
{
closed = 1;
nodes = (
"481 0 LINE",
"481 1358 LINE",
"202 1358 LINE",
"202 0 LINE"
);
},
{
closed = 1;
nodes = (
"654 0 LINE",
"654 76 LINE",
"340 106 LINE",
"29 76 LINE",
"29 0 LINE"
);
},
{
closed = 1;
nodes = (
"654 1282 LINE",
"654 1358 LINE",
"29 1358 LINE",
"29 1282 LINE",
"344 1252 LINE"
);
}
);
userData = {
assembly = "PUSHB[ ]\011/* 4 values pushed */
14 1 2 74 
MPPEM[ ]\011/* MeasurePixelPerEm */
PUSHB[ ]\011/* 1 value pushed */
51 
LT[ ]\011/* LessThan */
IF[ ]\011/* If */
NPUSHB[ ]\011/* 24 values pushed */
3 1 1 1 2 97 0 2 2 68 77 4 1 0 0 5 95 6 1 5 5 69 5 78 
ELSE[ ]\011/* Else */
MPPEM[ ]\011/* MeasurePixelPerEm */
PUSHB[ ]\011/* 1 value pushed */
60 
LT[ ]\011/* LessThan */
IF[ ]\011/* If */
NPUSHB[ ]\011/* 21 values pushed */
4 1 0 6 1 5 0 5 99 3 1 1 1 2 97 0 2 2 68 1 78 
ELSE[ ]\011/* Else */
NPUSHB[ ]\011/* 28 values pushed */
0 2 3 1 1 0 2 1 105 4 1 0 5 5 0 89 4 1 0 0 5 95 6 1 5 0 5 79 
EIF[ ]\011/* EndIf */
EIF[ ]\011/* EndIf */
NPUSHB[ ]\011/* 14 values pushed */
0 0 0 27 0 24 19 35 20 19 34 7 11 27 
CALL[ ]\011/* CallFunction */";
};
width = 683;
},
{
anchors = (
{
name = bottom;
position = "{341, 0}";
},
{
name = ogonek;
position = "{584, 10}";
},
{
name = top;
position = "{335, 1358}";
}
);
layerId = "16DF9356-34D2-4C02-8100-FB39A491A1B7";
paths = (
{
closed = 1;
nodes = (
"401 0 LINE",
"401 1358 LINE",
"270 1358 LINE",
"270 0 LINE"
);
},
{
closed = 1;
nodes = (
"598 0 LINE",
"598 48 LINE",
"338 78 LINE",
"73 48 LINE",
"73 0 LINE"
);
},
{
closed = 1;
nodes = (
"598 1310 LINE",
"598 1358 LINE",
"73 1358 LINE",
"73 1310 LINE",
"332 1280 LINE"
);
}
);
width = 671;
},
{
anchors = (
{
name = bottom;
position = "{332, 0}";
},
{
name = ogonek;
position = "{586, 10}";
},
{
name = top;
position = "{332, 1358}";
}
);
layerId = "20F63CDD-78BD-4F3A-8DC2-32840B76756A";
leftMetricsKey = "=H-22";
rightMetricsKey = "=H-23";
paths = (
{
closed = 1;
nodes = (
"453 0 LINE",
"453 1358 LINE",
"209 1358 LINE",
"209 0 LINE"
);
},
{
closed = 1;
nodes = (
"612 0 LINE",
"612 70 LINE",
"333 100 LINE",
"51 70 LINE",
"51 0 LINE"
);
},
{
closed = 1;
nodes = (
"612 1288 LINE",
"612 1358 LINE",
"51 1358 LINE",
"51 1288 LINE",
"322 1258 LINE"
);
}
);
width = 662;
}
);
leftMetricsKey = H;
note = I;
rightMetricsKey = H;
unicode = 0049;
},
{
glyphname = Igrave;
lastChange = "2018-10-28 18:51:17 +0000";
layers = (
{
components = (
{
name = I;
},
{
name = gravecomb.case;
transform = "{1, 0, 0, 1, 344, 0}";
}
);
layerId = "6CE37295-6E30-426D-87AF-6FEE9061C297";
width = 683;
},
{
background = {
paths = (
{
closed = 0;
nodes = (
"89 1777 LINE",
"89 475 LINE"
);
}
);
};
components = (
{
name = I;
},
{
name = gravecomb.case;
transform = "{1, 0, 0, 1, 327, 0}";
}
);
layerId = "EBD25FEC-6C57-4903-A936-5FDFC9C63FB2";
width = 662;
},
{
components = (
{
name = I;
},
{
name = gravecomb.case;
transform = "{1, 0, 0, 1, 344, 0}";
}
);
layerId = "1E14FD48-0E57-4B09-9E12-AF4BF73A87E4";
width = 683;
},
{
background = {
paths = (
{
closed = 0;
nodes = (
"89 1777 LINE",
"89 475 LINE"
);
}
);
};
components = (
{
name = I;
},
{
name = gravecomb.case;
transform = "{1, 0, 0, 1, 335, 0}";
}
);
layerId = "16DF9356-34D2-4C02-8100-FB39A491A1B7";
width = 671;
},
{
background = {
paths = (
{
closed = 0;
nodes = (
"89 1777 LINE",
"89 475 LINE"
);
}
);
};
components = (
{
name = I;
},
{
name = gravecomb.case;
transform = "{1, 0, 0, 1, 332, 0}";
}
);
layerId = "20F63CDD-78BD-4F3A-8DC2-32840B76756A";
width = 662;
}
);
leftMetricsKey = "=I";
note = Igrave;
rightMetricsKey = "=I";
unicode = 00CC;
},
{
glyphname = J;
lastChange = "2018-11-21 17:26:23 +0000";
layers = (
{
anchors = (
{
name = bottom;
position = "{470, 0}";
},
{
name = top;
position = "{470, 1358}";
}
);
layerId = "6CE37295-6E30-426D-87AF-6FEE9061C297";
paths = (
{
closed = 1;
nodes = (
"208 -420 OFFCURVE",
"268 -399 OFFCURVE",
"321 -371 CURVE SMOOTH",
"514 -269 OFFCURVE",
"605 -77 OFFCURVE",
"614 195 CURVE SMOOTH",
"621 414 OFFCURVE",
"624 558 OFFCURVE",
"624 629 CURVE SMOOTH",
"624 1358 LINE",
"345 1358 LINE",
"345 254 LINE SMOOTH",
"345 61 OFFCURVE",
"345 -257 OFFCURVE",
"276 -257 CURVE SMOOTH",
"257 -257 OFFCURVE",
"228 -232 OFFCURVE",
"213 -213 CURVE SMOOTH",
"192 -187 OFFCURVE",
"157 -158 OFFCURVE",
"98 -158 CURVE SMOOTH",
"22 -158 OFFCURVE",
"-42 -206 OFFCURVE",
"-42 -274 CURVE SMOOTH",
"-42 -352 OFFCURVE",
"41 -420 OFFCURVE",
"148 -420 CURVE SMOOTH"
);
},
{
closed = 1;
nodes = (
"797 1282 LINE",
"797 1358 LINE",
"172 1358 LINE",
"172 1282 LINE",
"473 1252 LINE"
);
}
);
userData = {
assembly = "NPUSHB[ ]\011/* 10 values pushed */
7 1 4 0 1 76 20 1 2 74 
MPPEM[ ]\011/* MeasurePixelPerEm */
PUSHB[ ]\011/* 1 value pushed */
60 
LT[ ]\011/* LessThan */
IF[ ]\011/* If */
NPUSHB[ ]\011/* 19 values pushed */
0 0 0 4 0 4 101 3 1 1 1 2 97 0 2 2 68 1 78 
ELSE[ ]\011/* Else */
NPUSHB[ ]\011/* 25 values pushed */
0 2 3 1 1 0 2 1 105 0 0 4 4 0 89 0 0 0 4 97 0 4 0 4 81 
EIF[ ]\011/* EndIf */
PUSHB[ ]\011/* 8 values pushed */
40 35 20 25 34 5 11 27 
CALL[ ]\011/* CallFunction */";
};
width = 819;
},
{
anchors = (
{
name = bottom;
position = "{311, 0}";
},
{
name = top;
position = "{311, 1358}";
}
);
layerId = "EBD25FEC-6C57-4903-A936-5FDFC9C63FB2";
paths = (
{
closed = 1;
nodes = (
"63 -529 OFFCURVE",
"108 -513 OFFCURVE",
"155 -481 CURVE SMOOTH",
"319 -370 OFFCURVE",
"357 -182 OFFCURVE",
"367 90 CURVE SMOOTH",
"371 198 OFFCURVE",
"374 339 OFFCURVE",
"374 524 CURVE SMOOTH",
"374 1358 LINE",
"252 1358 LINE",
"252 150 LINE SMOOTH",
"252 -133 OFFCURVE",
"246 -431 OFFCURVE",
"144 -431 CURVE SMOOTH",
"118 -431 OFFCURVE",
"92 -412 OFFCURVE",
"75 -393 CURVE SMOOTH",
"57 -373 OFFCURVE",
"22 -347 OFFCURVE",
"-18 -347 CURVE SMOOTH",
"-67 -347 OFFCURVE",
"-105 -384 OFFCURVE",
"-105 -434 CURVE SMOOTH",
"-105 -492 OFFCURVE",
"-53 -529 OFFCURVE",
"17 -529 CURVE SMOOTH"
);
},
{
closed = 1;
nodes = (
"571 1310 LINE",
"571 1358 LINE",
"55 1358 LINE",
"55 1310 LINE",
"312 1280 LINE"
);
}
);
width = 626;
},
{
anchors = (
{
name = bottom;
position = "{457, 0}";
},
{
name = top;
position = "{457, 1358}";
}
);
layerId = "1E14FD48-0E57-4B09-9E12-AF4BF73A87E4";
paths = (
{
closed = 1;
nodes = (
"202 -420 OFFCURVE",
"269 -401 OFFCURVE",
"339 -361 CURVE SMOOTH",
"514 -260 OFFCURVE",
"605 -88 OFFCURVE",
"614 195 CURVE SMOOTH",
"621 414 OFFCURVE",
"624 558 OFFCURVE",
"624 629 CURVE SMOOTH",
"624 1358 LINE",
"345 1358 LINE",
"345 254 LINE SMOOTH",
"345 -61 OFFCURVE",
"329 -257 OFFCURVE",
"280 -257 CURVE SMOOTH",
"252 -257 OFFCURVE",
"234 -238 OFFCURVE",
"215 -216 CURVE SMOOTH",
"191 -188 OFFCURVE",
"159 -158 OFFCURVE",
"98 -158 CURVE SMOOTH",
"22 -158 OFFCURVE",
"-42 -205 OFFCURVE",
"-42 -275 CURVE SMOOTH",
"-42 -352 OFFCURVE",
"36 -420 OFFCURVE",
"144 -420 CURVE SMOOTH"
);
},
{
closed = 1;
nodes = (
"797 1282 LINE",
"797 1358 LINE",
"172 1358 LINE",
"172 1282 LINE",
"487 1252 LINE"
);
}
);
userData = {
assembly = "NPUSHB[ ]\011/* 10 values pushed */
7 1 4 0 1 76 20 1 2 74 
MPPEM[ ]\011/* MeasurePixelPerEm */
PUSHB[ ]\011/* 1 value pushed */
60 
LT[ ]\011/* LessThan */
IF[ ]\011/* If */
NPUSHB[ ]\011/* 19 values pushed */
0 0 0 4 0 4 101 3 1 1 1 2 97 0 2 2 68 1 78 
ELSE[ ]\011/* Else */
NPUSHB[ ]\011/* 25 values pushed */
0 2 3 1 1 0 2 1 105 0 0 4 4 0 89 0 0 0 4 97 0 4 0 4 81 
EIF[ ]\011/* EndIf */
PUSHB[ ]\011/* 8 values pushed */
40 35 20 25 34 5 11 27 
CALL[ ]\011/* CallFunction */";
};
width = 819;
},
{
anchors = (
{
name = bottom;
position = "{311, 0}";
},
{
name = top;
position = "{319, 1358}";
}
);
layerId = "16DF9356-34D2-4C02-8100-FB39A491A1B7";
paths = (
{
closed = 1;
nodes = (
"63 -529 OFFCURVE",
"108 -513 OFFCURVE",
"157 -480 CURVE SMOOTH",
"319 -370 OFFCURVE",
"366 -182 OFFCURVE",
"376 90 CURVE SMOOTH",
"380 198 OFFCURVE",
"383 339 OFFCURVE",
"383 524 CURVE SMOOTH",
"383 1358 LINE",
"252 1358 LINE",
"252 150 LINE SMOOTH",
"252 -133 OFFCURVE",
"252 -416 OFFCURVE",
"145 -416 CURVE SMOOTH",
"121 -416 OFFCURVE",
"96 -404 OFFCURVE",
"75 -385 CURVE SMOOTH",
"56 -367 OFFCURVE",
"22 -347 OFFCURVE",
"-16 -347 CURVE SMOOTH",
"-67 -347 OFFCURVE",
"-105 -384 OFFCURVE",
"-105 -434 CURVE SMOOTH",
"-105 -492 OFFCURVE",
"-53 -529 OFFCURVE",
"17 -529 CURVE SMOOTH"
);
},
{
closed = 1;
nodes = (
"580 1310 LINE",
"580 1358 LINE",
"55 1358 LINE",
"55 1310 LINE",
"314 1280 LINE"
);
}
);
width = 635;
},
{
anchors = (
{
name = bottom;
position = "{359, 0}";
},
{
name = top;
position = "{359, 1358}";
}
);
layerId = "20F63CDD-78BD-4F3A-8DC2-32840B76756A";
paths = (
{
closed = 1;
nodes = (
"39 -444 OFFCURVE",
"97 -425 OFFCURVE",
"147 -397 CURVE SMOOTH",
"337 -291 OFFCURVE",
"414 -96 OFFCURVE",
"424 172 CURVE SMOOTH",
"430 341 OFFCURVE",
"433 519 OFFCURVE",
"433 605 CURVE SMOOTH",
"433 1358 LINE",
"189 1358 LINE",
"189 231 LINE SMOOTH",
"189 18 OFFCURVE",
"189 -296 OFFCURVE",
"112 -296 CURVE SMOOTH",
"91 -296 OFFCURVE",
"65 -272 OFFCURVE",
"49 -256 CURVE SMOOTH",
"22 -229 OFFCURVE",
"-8 -200 OFFCURVE",
"-63 -200 CURVE SMOOTH",
"-132 -200 OFFCURVE",
"-191 -246 OFFCURVE",
"-191 -310 CURVE SMOOTH",
"-191 -383 OFFCURVE",
"-115 -444 OFFCURVE",
"-18 -444 CURVE SMOOTH"
);
},
{
closed = 1;
nodes = (
"592 1288 LINE",
"592 1358 LINE",
"31 1358 LINE",
"31 1288 LINE",
"302 1258 LINE"
);
}
);
width = 626;
}
);
leftKerningGroup = J;
note = J;
rightKerningGroup = J;
unicode = 004A;
},
{
glyphname = K;
lastChange = "2018-11-20 17:37:21 +0000";
layers = (
{
anchors = (
{
name = bottom;
position = "{711, 0}";
},
{
name = top;
position = "{711, 1358}";
}
);
layerId = "6CE37295-6E30-426D-87AF-6FEE9061C297";
paths = (
{
closed = 1;
nodes = (
"1411 0 LINE",
"1411 76 LINE",
"1119 106 LINE",
"1300 27 LINE",
"672 759 LINE",
"1154 1319 LINE",
"1047 1252 LINE",
"1266 1282 LINE",
"1266 1358 LINE",
"812 1358 LINE",
"812 1282 LINE",
"1036 1252 LINE",
"975 1319 LINE",
"560 825 LINE SMOOTH",
"529 789 OFFCURVE",
"508 770 OFFCURVE",
"499 770 CURVE SMOOTH",
"444 770 LINE",
"444 598 LINE",
"495 598 LINE SMOOTH",
"510 598 OFFCURVE",
"548 561 OFFCURVE",
"578 524 CURVE SMOOTH",
"976 27 LINE",
"1096 106 LINE",
"778 76 LINE",
"778 0 LINE"
);
},
{
closed = 1;
nodes = (
"481 0 LINE",
"481 1358 LINE",
"202 1358 LINE",
"202 0 LINE"
);
},
{
closed = 1;
nodes = (
"654 1282 LINE",
"654 1358 LINE",
"29 1358 LINE",
"29 1282 LINE",
"330 1252 LINE"
);
},
{
closed = 1;
nodes = (
"654 0 LINE",
"654 76 LINE",
"341 106 LINE",
"29 76 LINE",
"29 0 LINE"
);
}
);
userData = {
assembly = "PUSHB[ ]\011/* 5 values pushed */
64 44 2 8 74 
MPPEM[ ]\011/* MeasurePixelPerEm */
PUSHB[ ]\011/* 1 value pushed */
51 
LT[ ]\011/* LessThan */
IF[ ]\011/* If */
NPUSHB[ ]\011/* 37 values pushed */
0 10 0 3 0 10 3 105 13 11 9 3 7 7 8 97 12 1 8 8 68 77 6 4 2 3 0 0 1 95 5 1 1 1 69 1 78 
ELSE[ ]\011/* Else */
MPPEM[ ]\011/* MeasurePixelPerEm */
PUSHB[ ]\011/* 1 value pushed */
60 
LT[ ]\011/* LessThan */
IF[ ]\011/* If */
NPUSHB[ ]\011/* 34 values pushed */
0 10 0 3 0 10 3 105 6 4 2 3 0 5 1 1 0 1 99 13 11 9 3 7 7 8 97 12 1 8 8 68 7 78 
ELSE[ ]\011/* Else */
NPUSHB[ ]\011/* 43 values pushed */
12 1 8 13 11 9 3 7 10 8 7 105 0 10 0 3 0 10 3 105 6 4 2 3 0 1 1 0 89 6 4 2 3 0 0 1 95 5 1 1 0 1 79 
EIF[ ]\011/* EndIf */
EIF[ ]\011/* EndIf */
NPUSHB[ ]\011/* 22 values pushed */
68 66 63 62 58 57 53 51 48 46 20 19 34 66 19 21 34 66 19 14 11 31 
CALL[ ]\011/* CallFunction */";
};
width = 1433;
},
{
anchors = (
{
name = bottom;
position = "{656, 0}";
},
{
name = top;
position = "{656, 1358}";
}
);
background = {
paths = (
{
closed = 1;
nodes = (
"1253 0 LINE",
"1253 48 LINE",
"1038 78 LINE",
"1133 33 LINE",
"555 742 LINE",
"1053 1340 LINE",
"981 1280 LINE",
"1151 1310 LINE",
"1151 1358 LINE",
"788 1358 LINE",
"788 1310 LINE",
"962 1280 LINE",
"956 1340 LINE",
"530 810 LINE SMOOTH",
"513 789 OFFCURVE",
"445 709 OFFCURVE",
"411 709 CURVE SMOOTH",
"378 709 LINE",
"378 648 LINE",
"415 648 LINE SMOOTH",
"465 648 OFFCURVE",
"531 595 OFFCURVE",
"574 539 CURVE SMOOTH",
"961 33 LINE",
"1031 78 LINE",
"757 48 LINE",
"757 0 LINE"
);
},
{
closed = 1;
nodes = (
"392 0 LINE",
"392 1358 LINE",
"270 1358 LINE",
"270 0 LINE"
);
},
{
closed = 1;
nodes = (
"589 1310 LINE",
"589 1358 LINE",
"73 1358 LINE",
"73 1310 LINE",
"330 1280 LINE"
);
},
{
closed = 1;
nodes = (
"589 0 LINE",
"589 48 LINE",
"335 78 LINE",
"73 48 LINE",
"73 0 LINE"
);
}
);
};
layerId = "EBD25FEC-6C57-4903-A936-5FDFC9C63FB2";
paths = (
{
closed = 1;
nodes = (
"1253 0 LINE",
"1253 48 LINE",
"1038 78 LINE",
"1128 33 LINE",
"552 739 LINE",
"1053 1340 LINE",
"981 1280 LINE",
"1151 1310 LINE",
"1151 1358 LINE",
"788 1358 LINE",
"788 1310 LINE",
"962 1280 LINE",
"956 1340 LINE",
"530 810 LINE SMOOTH",
"513 789 OFFCURVE",
"445 709 OFFCURVE",
"411 709 CURVE SMOOTH",
"378 709 LINE",
"378 648 LINE",
"415 648 LINE SMOOTH",
"465 648 OFFCURVE",
"531 595 OFFCURVE",
"574 539 CURVE SMOOTH",
"961 33 LINE",
"1031 78 LINE",
"757 48 LINE",
"757 0 LINE"
);
},
{
closed = 1;
nodes = (
"392 0 LINE",
"392 1358 LINE",
"270 1358 LINE",
"270 0 LINE"
);
},
{
closed = 1;
nodes = (
"589 1310 LINE",
"589 1358 LINE",
"73 1358 LINE",
"73 1310 LINE",
"330 1280 LINE"
);
},
{
closed = 1;
nodes = (
"589 0 LINE",
"589 48 LINE",
"335 78 LINE",
"73 48 LINE",
"73 0 LINE"
);
}
);
width = 1273;
},
{
anchors = (
{
name = bottom;
position = "{760, 0}";
},
{
name = top;
position = "{760, 1358}";
}
);
layerId = "1E14FD48-0E57-4B09-9E12-AF4BF73A87E4";
paths = (
{
closed = 1;
nodes = (
"1508 0 LINE",
"1508 76 LINE",
"1226 106 LINE",
"1394 39 LINE",
"739 759 LINE",
"1261 1323 LINE",
"1131 1252 LINE",
"1363 1282 LINE",
"1363 1358 LINE",
"902 1358 LINE",
"902 1282 LINE",
"1125 1252 LINE",
"1077 1323 LINE",
"617 825 LINE SMOOTH",
"585 791 OFFCURVE",
"565 770 OFFCURVE",
"506 770 CURVE SMOOTH",
"441 770 LINE",
"441 598 LINE",
"512 598 LINE SMOOTH",
"565 598 OFFCURVE",
"601 560 OFFCURVE",
"634 524 CURVE SMOOTH",
"1069 39 LINE",
"1214 106 LINE",
"865 76 LINE",
"865 0 LINE"
);
},
{
closed = 1;
nodes = (
"481 0 LINE",
"481 1358 LINE",
"202 1358 LINE",
"202 0 LINE"
);
},
{
closed = 1;
nodes = (
"654 1282 LINE",
"654 1358 LINE",
"29 1358 LINE",
"29 1282 LINE",
"344 1252 LINE"
);
},
{
closed = 1;
nodes = (
"654 0 LINE",
"654 76 LINE",
"340 106 LINE",
"29 76 LINE",
"29 0 LINE"
);
}
);
userData = {
assembly = "PUSHB[ ]\011/* 5 values pushed */
64 44 2 8 74 
MPPEM[ ]\011/* MeasurePixelPerEm */
PUSHB[ ]\011/* 1 value pushed */
51 
LT[ ]\011/* LessThan */
IF[ ]\011/* If */
NPUSHB[ ]\011/* 37 values pushed */
0 10 0 3 0 10 3 105 13 11 9 3 7 7 8 97 12 1 8 8 68 77 6 4 2 3 0 0 1 95 5 1 1 1 69 1 78 
ELSE[ ]\011/* Else */
MPPEM[ ]\011/* MeasurePixelPerEm */
PUSHB[ ]\011/* 1 value pushed */
60 
LT[ ]\011/* LessThan */
IF[ ]\011/* If */
NPUSHB[ ]\011/* 34 values pushed */
0 10 0 3 0 10 3 105 6 4 2 3 0 5 1 1 0 1 99 13 11 9 3 7 7 8 97 12 1 8 8 68 7 78 
ELSE[ ]\011/* Else */
NPUSHB[ ]\011/* 43 values pushed */
12 1 8 13 11 9 3 7 10 8 7 105 0 10 0 3 0 10 3 105 6 4 2 3 0 1 1 0 89 6 4 2 3 0 0 1 95 5 1 1 0 1 79 
EIF[ ]\011/* EndIf */
EIF[ ]\011/* EndIf */
NPUSHB[ ]\011/* 22 values pushed */
68 66 63 62 58 57 53 51 48 46 20 19 34 66 19 21 34 66 19 14 11 31 
CALL[ ]\011/* CallFunction */";
};
width = 1530;
},
{
anchors = (
{
name = bottom;
position = "{656, 0}";
},
{
name = top;
position = "{656, 1358}";
}
);
layerId = "16DF9356-34D2-4C02-8100-FB39A491A1B7";
paths = (
{
closed = 1;
nodes = (
"1302 0 LINE",
"1302 48 LINE",
"1081 78 LINE",
"1195 31 LINE",
"575 742 LINE",
"1105 1336 LINE",
"1023 1280 LINE",
"1191 1310 LINE",
"1191 1358 LINE",
"815 1358 LINE",
"815 1310 LINE",
"1012 1280 LINE",
"1002 1336 LINE",
"548 810 LINE SMOOTH",
"530 789 OFFCURVE",
"461 713 OFFCURVE",
"421 713 CURVE SMOOTH",
"366 713 LINE",
"366 643 LINE",
"425 643 LINE SMOOTH",
"483 643 OFFCURVE",
"545 594 OFFCURVE",
"590 539 CURVE SMOOTH",
"1007 31 LINE",
"1069 78 LINE",
"781 48 LINE",
"781 0 LINE"
);
},
{
closed = 1;
nodes = (
"401 0 LINE",
"401 1358 LINE",
"270 1358 LINE",
"270 0 LINE"
);
},
{
closed = 1;
nodes = (
"598 1310 LINE",
"598 1358 LINE",
"73 1358 LINE",
"73 1310 LINE",
"332 1280 LINE"
);
},
{
closed = 1;
nodes = (
"598 0 LINE",
"598 48 LINE",
"338 78 LINE",
"73 48 LINE",
"73 0 LINE"
);
}
);
width = 1357;
},
{
anchors = (
{
name = bottom;
position = "{665, 0}";
},
{
name = top;
position = "{665, 1358}";
}
);
layerId = "20F63CDD-78BD-4F3A-8DC2-32840B76756A";
leftMetricsKey = "=73";
paths = (
{
closed = 1;
nodes = (
"1255 0 LINE",
"1255 70 LINE",
"1044 100 LINE",
"1155 32 LINE",
"632 755 LINE",
"1082 1325 LINE",
"979 1258 LINE",
"1168 1288 LINE",
"1168 1358 LINE",
"781 1358 LINE",
"781 1288 LINE",
"969 1258 LINE",
"924 1325 LINE",
"545 822 LINE SMOOTH",
"520 788 OFFCURVE",
"495 756 OFFCURVE",
"474 756 CURVE SMOOTH",
"417 756 LINE",
"417 610 LINE",
"470 610 LINE SMOOTH",
"496 610 OFFCURVE",
"526 566 OFFCURVE",
"552 528 CURVE SMOOTH",
"889 32 LINE",
"1030 100 LINE",
"726 70 LINE",
"726 0 LINE"
);
},
{
closed = 1;
nodes = (
"475 0 LINE",
"475 1358 LINE",
"231 1358 LINE",
"231 0 LINE"
);
},
{
closed = 1;
nodes = (
"634 1288 LINE",
"634 1358 LINE",
"73 1358 LINE",
"73 1288 LINE",
"344 1258 LINE"
);
},
{
closed = 1;
nodes = (
"634 0 LINE",
"634 70 LINE",
"355 100 LINE",
"73 70 LINE",
"73 0 LINE"
);
}
);
width = 1273;
}
);
leftMetricsKey = H;
note = K;
rightKerningGroup = K;
rightMetricsKey = A;
unicode = 004B;
},
{
glyphname = L;
lastChange = "2018-11-20 17:37:46 +0000";
layers = (
{
anchors = (
{
name = bottom;
position = "{701, 0}";
},
{
name = center;
position = "{345, 679}";
},
{
name = top;
position = "{351, 1358}";
},
{
name = topright;
position = "{864, 742}";
}
);
layerId = "6CE37295-6E30-426D-87AF-6FEE9061C297";
paths = (
{
closed = 1;
nodes = (
"481 0 LINE",
"481 1358 LINE",
"202 1358 LINE",
"202 0 LINE"
);
},
{
closed = 1;
nodes = (
"1240 0 LINE",
"1240 401 LINE",
"1155 401 LINE",
"1019 156 LINE SMOOTH",
"991 106 OFFCURVE",
"933 90 OFFCURVE",
"874 90 CURVE SMOOTH",
"202 90 LINE",
"202 0 LINE"
);
},
{
closed = 1;
nodes = (
"654 1282 LINE",
"654 1358 LINE",
"29 1358 LINE",
"29 1282 LINE",
"330 1252 LINE"
);
},
{
closed = 1;
nodes = (
"349 0 LINE",
"349 106 LINE",
"29 76 LINE",
"29 0 LINE"
);
}
);
userData = {
assembly = "NPUSHB[ ]\011/* 10 values pushed */
9 1 0 3 1 76 35 1 4 74 
MPPEM[ ]\011/* MeasurePixelPerEm */
PUSHB[ ]\011/* 1 value pushed */
51 
LT[ ]\011/* LessThan */
IF[ ]\011/* If */
NPUSHB[ ]\011/* 23 values pushed */
5 1 3 3 4 97 0 4 4 68 77 2 1 0 0 1 95 0 1 1 69 1 78 
ELSE[ ]\011/* Else */
MPPEM[ ]\011/* MeasurePixelPerEm */
PUSHB[ ]\011/* 1 value pushed */
60 
LT[ ]\011/* LessThan */
IF[ ]\011/* If */
NPUSHB[ ]\011/* 20 values pushed */
2 1 0 0 1 0 1 99 5 1 3 3 4 97 0 4 4 68 3 78 
ELSE[ ]\011/* Else */
NPUSHB[ ]\011/* 27 values pushed */
0 4 5 1 3 0 4 3 105 2 1 0 1 1 0 89 2 1 0 0 1 95 0 1 0 1 79 
EIF[ ]\011/* EndIf */
EIF[ ]\011/* EndIf */
NPUSHB[ ]\011/* 9 values pushed */
35 20 19 34 75 51 6 11 28 
CALL[ ]\011/* CallFunction */";
};
width = 1262;
},
{
anchors = (
{
name = bottom;
position = "{631, 0}";
},
{
name = center;
position = "{331, 679}";
},
{
name = top;
position = "{331, 1358}";
},
{
name = topright;
position = "{729, 765}";
}
);
layerId = "EBD25FEC-6C57-4903-A936-5FDFC9C63FB2";
paths = (
{
closed = 1;
nodes = (
"392 0 LINE",
"392 1358 LINE",
"270 1358 LINE",
"270 0 LINE"
);
},
{
closed = 1;
nodes = (
"1178 0 LINE",
"1178 381 LINE",
"1138 381 LINE",
"1080 125 LINE SMOOTH",
"1066 63 OFFCURVE",
"1015 61 OFFCURVE",
"940 61 CURVE SMOOTH",
"220 61 LINE",
"220 0 LINE"
);
},
{
closed = 1;
nodes = (
"589 1310 LINE",
"589 1358 LINE",
"73 1358 LINE",
"73 1310 LINE",
"330 1280 LINE"
);
},
{
closed = 1;
nodes = (
"383 0 LINE",
"383 78 LINE",
"73 48 LINE",
"73 0 LINE"
);
}
);
width = 1198;
},
{
anchors = (
{
name = bottom;
position = "{701, 0}";
},
{
name = center;
position = "{341, 679}";
},
{
name = top;
position = "{331, 1358}";
},
{
name = topright;
position = "{859, 835}";
}
);
layerId = "1E14FD48-0E57-4B09-9E12-AF4BF73A87E4";
paths = (
{
closed = 1;
nodes = (
"481 0 LINE",
"481 1358 LINE",
"202 1358 LINE",
"202 0 LINE"
);
},
{
closed = 1;
nodes = (
"1305 0 LINE",
"1305 401 LINE",
"1220 401 LINE",
"1084 156 LINE SMOOTH",
"1056 106 OFFCURVE",
"998 90 OFFCURVE",
"939 90 CURVE SMOOTH",
"202 90 LINE",
"202 0 LINE"
);
},
{
closed = 1;
nodes = (
"654 1282 LINE",
"654 1358 LINE",
"29 1358 LINE",
"29 1282 LINE",
"344 1252 LINE"
);
},
{
closed = 1;
nodes = (
"349 0 LINE",
"349 106 LINE",
"29 76 LINE",
"29 0 LINE"
);
}
);
userData = {
assembly = "NPUSHB[ ]\011/* 10 values pushed */
9 1 0 3 1 76 35 1 4 74 
MPPEM[ ]\011/* MeasurePixelPerEm */
PUSHB[ ]\011/* 1 value pushed */
51 
LT[ ]\011/* LessThan */
IF[ ]\011/* If */
NPUSHB[ ]\011/* 23 values pushed */
5 1 3 3 4 97 0 4 4 68 77 2 1 0 0 1 95 0 1 1 69 1 78 
ELSE[ ]\011/* Else */
MPPEM[ ]\011/* MeasurePixelPerEm */
PUSHB[ ]\011/* 1 value pushed */
60 
LT[ ]\011/* LessThan */
IF[ ]\011/* If */
NPUSHB[ ]\011/* 20 values pushed */
2 1 0 0 1 0 1 99 5 1 3 3 4 97 0 4 4 68 3 78 
ELSE[ ]\011/* Else */
NPUSHB[ ]\011/* 27 values pushed */
0 4 5 1 3 0 4 3 105 2 1 0 1 1 0 89 2 1 0 0 1 95 0 1 0 1 79 
EIF[ ]\011/* EndIf */
EIF[ ]\011/* EndIf */
NPUSHB[ ]\011/* 9 values pushed */
35 20 19 34 75 51 6 11 28 
CALL[ ]\011/* CallFunction */";
};
width = 1327;
},
{
anchors = (
{
name = bottom;
position = "{631, 0}";
},
{
name = center;
position = "{341, 679}";
},
{
name = top;
position = "{331, 1358}";
},
{
name = topright;
position = "{777, 829}";
}
);
layerId = "16DF9356-34D2-4C02-8100-FB39A491A1B7";
paths = (
{
closed = 1;
nodes = (
"401 0 LINE",
"401 1358 LINE",
"270 1358 LINE",
"270 0 LINE"
);
},
{
closed = 1;
nodes = (
"1240 0 LINE",
"1240 381 LINE",
"1210 381 LINE",
"1123 134 LINE SMOOTH",
"1109 94 OFFCURVE",
"1045 70 OFFCURVE",
"982 70 CURVE SMOOTH",
"270 70 LINE",
"270 0 LINE"
);
},
{
closed = 1;
nodes = (
"598 1310 LINE",
"598 1358 LINE",
"73 1358 LINE",
"73 1310 LINE",
"332 1280 LINE"
);
},
{
closed = 1;
nodes = (
"393 0 LINE",
"393 78 LINE",
"73 48 LINE",
"73 0 LINE"
);
}
);
width = 1295;
},
{
anchors = (
{
name = bottom;
position = "{671, 0}";
},
{
name = center;
position = "{357, 679}";
},
{
name = top;
position = "{362, 1358}";
},
{
name = topright;
position = "{813, 747}";
}
);
layerId = "20F63CDD-78BD-4F3A-8DC2-32840B76756A";
leftMetricsKey = "=73";
paths = (
{
closed = 1;
nodes = (
"470 0 LINE",
"470 1358 LINE",
"226 1358 LINE",
"226 0 LINE"
);
},
{
closed = 1;
nodes = (
"1180 0 LINE",
"1180 354 LINE",
"1115 354 LINE",
"999 140 LINE SMOOTH",
"976 98 OFFCURVE",
"926 84 OFFCURVE",
"876 84 CURVE SMOOTH",
"226 84 LINE",
"226 0 LINE"
);
},
{
closed = 1;
nodes = (
"625 1288 LINE",
"625 1358 LINE",
"73 1358 LINE",
"73 1288 LINE",
"339 1258 LINE"
);
},
{
closed = 1;
nodes = (
"393 0 LINE",
"393 100 LINE",
"73 70 LINE",
"73 0 LINE"
);
}
);
width = 1198;
}
);
leftMetricsKey = H;
note = L;
rightKerningGroup = L;
rightMetricsKey = A;
unicode = 004C;
},
{
glyphname = M;
lastChange = "2018-11-20 17:38:51 +0000";
layers = (
{
anchors = (
{
name = bottom;
position = "{928, 0}";
},
{
name = top;
position = "{928, 1358}";
}
);
guideLines = (
{
position = "{452, 981}";
}
);
layerId = "6CE37295-6E30-426D-87AF-6FEE9061C297";
paths = (
{
closed = 1;
nodes = (
"1665 0 LINE",
"1629 1358 LINE",
"1475 1358 LINE",
"1413 1358 OFFCURVE",
"1374 1339 OFFCURVE",
"1354 1291 CURVE SMOOTH",
"934 279 LINE",
"1013 279 LINE",
"536 1285 LINE SMOOTH",
"510 1340 OFFCURVE",
"476 1358 OFFCURVE",
"410 1358 CURVE SMOOTH",
"99 1358 LINE",
"99 1282 LINE",
"229 1282 OFFCURVE",
"263 1233 OFFCURVE",
"362 1028 CURVE SMOOTH",
"842 31 LINE",
"984 31 LINE",
"1455 1176 LINE",
"1370 1176 LINE",
"1399 0 LINE"
);
},
{
closed = 1;
nodes = (
"327 0 LINE",
"401 1289 LINE",
"262 1299 LINE",
"183 0 LINE"
);
},
{
closed = 1;
nodes = (
"504 0 LINE",
"504 76 LINE",
"268 106 LINE",
"26 76 LINE",
"26 0 LINE"
);
},
{
closed = 1;
nodes = (
"1830 0 LINE",
"1830 76 LINE",
"1533 106 LINE",
"1236 76 LINE",
"1236 0 LINE"
);
},
{
closed = 1;
nodes = (
"1794 1282 LINE",
"1794 1358 LINE",
"1514 1358 LINE",
"1514 1252 LINE"
);
}
);
userData = {
assembly = "MPPEM[ ]\011/* MeasurePixelPerEm */
PUSHB[ ]\011/* 1 value pushed */
34 
LT[ ]\011/* LessThan */
IF[ ]\011/* If */
NPUSHB[ ]\011/* 14 values pushed */
25 1 9 7 1 76 62 1 8 74 35 1 1 73 
ELSE[ ]\011/* Else */
NPUSHB[ ]\011/* 14 values pushed */
25 1 9 7 35 1 3 1 2 76 62 1 8 74 
EIF[ ]\011/* EndIf */
MPPEM[ ]\011/* MeasurePixelPerEm */
PUSHB[ ]\011/* 1 value pushed */
34 
LT[ ]\011/* LessThan */
IF[ ]\011/* If */
NPUSHB[ ]\011/* 36 values pushed */
0 9 7 0 7 9 0 128 11 1 7 7 8 97 10 1 8 8 68 77 6 4 2 3 0 0 1 97 5 3 2 1 1 69 1 78 
ELSE[ ]\011/* Else */
MPPEM[ ]\011/* MeasurePixelPerEm */
PUSHB[ ]\011/* 1 value pushed */
51 
LT[ ]\011/* LessThan */
IF[ ]\011/* If */
NPUSHB[ ]\011/* 40 values pushed */
0 9 7 0 7 9 0 128 11 1 7 7 8 97 10 1 8 8 68 77 6 4 2 3 0 0 1 97 5 1 1 1 69 77 0 3 3 69 3 78 
ELSE[ ]\011/* Else */
MPPEM[ ]\011/* MeasurePixelPerEm */
PUSHB[ ]\011/* 1 value pushed */
60 
LT[ ]\011/* LessThan */
IF[ ]\011/* If */
NPUSHB[ ]\011/* 38 values pushed */
0 9 7 0 7 9 0 128 6 4 2 3 0 5 1 1 3 0 1 105 11 1 7 7 8 97 10 1 8 8 68 77 0 3 3 69 3 78 
ELSE[ ]\011/* Else */
MPPEM[ ]\011/* MeasurePixelPerEm */
PUSHB[ ]\011/* 1 value pushed */
147 
LT[ ]\011/* LessThan */
IF[ ]\011/* If */
NPUSHB[ ]\011/* 36 values pushed */
0 9 7 0 7 9 0 128 10 1 8 11 1 7 9 8 7 105 6 4 2 3 0 5 1 1 3 0 1 105 0 3 3 69 3 78 
ELSE[ ]\011/* Else */
NPUSHB[ ]\011/* 41 values pushed */
0 9 7 0 7 9 0 128 0 8 10 7 8 87 0 10 11 1 7 9 10 7 105 6 4 2 3 0 5 1 1 3 0 1 105 0 3 3 69 3 78 
EIF[ ]\011/* EndIf */
EIF[ ]\011/* EndIf */
EIF[ ]\011/* EndIf */
EIF[ ]\011/* EndIf */
NPUSHB[ ]\011/* 18 values pushed */
66 64 61 58 55 54 82 20 35 50 24 23 34 66 17 12 11 31 
CALL[ ]\011/* CallFunction */";
};
width = 1856;
},
{
anchors = (
{
name = bottom;
position = "{888, 0}";
},
{
name = top;
position = "{888, 1358}";
}
);
layerId = "EBD25FEC-6C57-4903-A936-5FDFC9C63FB2";
paths = (
{
closed = 1;
nodes = (
"1515 0 LINE",
"1479 1358 LINE",
"1438 1358 LINE",
"1376 1358 OFFCURVE",
"1337 1339 OFFCURVE",
"1317 1291 CURVE SMOOTH",
"897 279 LINE",
"911 279 LINE",
"474 1285 LINE SMOOTH",
"450 1340 OFFCURVE",
"414 1358 OFFCURVE",
"348 1358 CURVE SMOOTH",
"136 1358 LINE",
"136 1310 LINE",
"292 1310 OFFCURVE",
"371 1203 OFFCURVE",
"435 1058 CURVE SMOOTH",
"863 87 LINE",
"893 87 LINE",
"1376 1261 LINE",
"1361 1261 LINE",
"1393 0 LINE"
);
},
{
closed = 1;
nodes = (
"305 0 LINE",
"380 1289 LINE",
"302 1299 LINE",
"222 0 LINE"
);
},
{
closed = 1;
nodes = (
"483 0 LINE",
"483 48 LINE",
"278 78 LINE",
"66 48 LINE",
"66 0 LINE"
);
},
{
closed = 1;
nodes = (
"1679 0 LINE",
"1679 48 LINE",
"1460 78 LINE",
"1229 48 LINE",
"1229 0 LINE"
);
},
{
closed = 1;
nodes = (
"1643 1310 LINE",
"1643 1358 LINE",
"1456 1358 LINE",
"1456 1280 LINE"
);
}
);
width = 1745;
},
{
anchors = (
{
name = bottom;
position = "{971, 0}";
},
{
name = top;
position = "{971, 1358}";
}
);
guideLines = (
{
position = "{930, 336}";
}
);
layerId = "1E14FD48-0E57-4B09-9E12-AF4BF73A87E4";
paths = (
{
closed = 1;
nodes = (
"1799 0 LINE",
"1764 1358 LINE",
"1609 1358 LINE",
"1547 1358 OFFCURVE",
"1511 1337 OFFCURVE",
"1488 1291 CURVE SMOOTH",
"994 279 LINE",
"1013 279 LINE",
"516 1285 LINE SMOOTH",
"489 1340 OFFCURVE",
"456 1358 OFFCURVE",
"390 1358 CURVE SMOOTH",
"99 1358 LINE",
"99 1270 LINE",
"219 1270 OFFCURVE",
"260 1231 OFFCURVE",
"362 1028 CURVE SMOOTH",
"862 31 LINE",
"1044 31 LINE",
"1589 1176 LINE",
"1504 1176 LINE",
"1533 0 LINE"
);
},
{
closed = 1;
nodes = (
"327 0 LINE",
"401 1289 LINE",
"262 1299 LINE",
"183 0 LINE"
);
},
{
closed = 1;
nodes = (
"504 0 LINE",
"504 76 LINE",
"264 106 LINE",
"26 76 LINE",
"26 0 LINE"
);
},
{
closed = 1;
nodes = (
"1964 0 LINE",
"1964 76 LINE",
"1665 106 LINE",
"1370 76 LINE",
"1370 0 LINE"
);
},
{
closed = 1;
nodes = (
"1929 1282 LINE",
"1929 1358 LINE",
"1678 1358 LINE",
"1678 1252 LINE"
);
}
);
userData = {
assembly = "MPPEM[ ]\011/* MeasurePixelPerEm */
PUSHB[ ]\011/* 1 value pushed */
34 
LT[ ]\011/* LessThan */
IF[ ]\011/* If */
NPUSHB[ ]\011/* 14 values pushed */
25 1 9 7 1 76 62 1 8 74 35 1 1 73 
ELSE[ ]\011/* Else */
NPUSHB[ ]\011/* 14 values pushed */
25 1 9 7 35 1 3 1 2 76 62 1 8 74 
EIF[ ]\011/* EndIf */
MPPEM[ ]\011/* MeasurePixelPerEm */
PUSHB[ ]\011/* 1 value pushed */
34 
LT[ ]\011/* LessThan */
IF[ ]\011/* If */
NPUSHB[ ]\011/* 36 values pushed */
0 9 7 0 7 9 0 128 11 1 7 7 8 97 10 1 8 8 68 77 6 4 2 3 0 0 1 97 5 3 2 1 1 69 1 78 
ELSE[ ]\011/* Else */
MPPEM[ ]\011/* MeasurePixelPerEm */
PUSHB[ ]\011/* 1 value pushed */
51 
LT[ ]\011/* LessThan */
IF[ ]\011/* If */
NPUSHB[ ]\011/* 40 values pushed */
0 9 7 0 7 9 0 128 11 1 7 7 8 97 10 1 8 8 68 77 6 4 2 3 0 0 1 97 5 1 1 1 69 77 0 3 3 69 3 78 
ELSE[ ]\011/* Else */
MPPEM[ ]\011/* MeasurePixelPerEm */
PUSHB[ ]\011/* 1 value pushed */
60 
LT[ ]\011/* LessThan */
IF[ ]\011/* If */
NPUSHB[ ]\011/* 38 values pushed */
0 9 7 0 7 9 0 128 6 4 2 3 0 5 1 1 3 0 1 105 11 1 7 7 8 97 10 1 8 8 68 77 0 3 3 69 3 78 
ELSE[ ]\011/* Else */
MPPEM[ ]\011/* MeasurePixelPerEm */
PUSHB[ ]\011/* 1 value pushed */
147 
LT[ ]\011/* LessThan */
IF[ ]\011/* If */
NPUSHB[ ]\011/* 36 values pushed */
0 9 7 0 7 9 0 128 10 1 8 11 1 7 9 8 7 105 6 4 2 3 0 5 1 1 3 0 1 105 0 3 3 69 3 78 
ELSE[ ]\011/* Else */
NPUSHB[ ]\011/* 41 values pushed */
0 9 7 0 7 9 0 128 0 8 10 7 8 87 0 10 11 1 7 9 10 7 105 6 4 2 3 0 5 1 1 3 0 1 105 0 3 3 69 3 78 
EIF[ ]\011/* EndIf */
EIF[ ]\011/* EndIf */
EIF[ ]\011/* EndIf */
EIF[ ]\011/* EndIf */
NPUSHB[ ]\011/* 18 values pushed */
66 64 61 58 55 54 82 20 35 50 24 23 34 66 17 12 11 31 
CALL[ ]\011/* CallFunction */";
};
width = 1990;
},
{
anchors = (
{
name = bottom;
position = "{875, 0}";
},
{
name = top;
position = "{875, 1358}";
}
);
guideLines = (
{
angle = 90;
position = "{319, 1202}";
}
);
layerId = "16DF9356-34D2-4C02-8100-FB39A491A1B7";
paths = (
{
closed = 1;
nodes = (
"1622 0 LINE",
"1583 1358 LINE",
"1537 1358 LINE",
"1470 1358 OFFCURVE",
"1428 1339 OFFCURVE",
"1407 1291 CURVE SMOOTH",
"957 279 LINE",
"979 279 LINE",
"511 1285 LINE SMOOTH",
"485 1340 OFFCURVE",
"447 1358 OFFCURVE",
"376 1358 CURVE SMOOTH",
"154 1358 LINE",
"154 1300 LINE",
"261 1300 OFFCURVE",
"360 1274 OFFCURVE",
"462 1058 CURVE SMOOTH",
"920 87 LINE",
"953 87 LINE",
"1471 1263 LINE",
"1454 1263 LINE",
"1488 0 LINE"
);
},
{
closed = 1;
nodes = (
"322 0 LINE",
"403 1289 LINE",
"319 1299 LINE",
"233 0 LINE"
);
},
{
closed = 1;
nodes = (
"513 0 LINE",
"513 48 LINE",
"289 78 LINE",
"66 48 LINE",
"66 0 LINE"
);
},
{
closed = 1;
nodes = (
"1798 0 LINE",
"1798 48 LINE",
"1560 78 LINE",
"1313 48 LINE",
"1313 0 LINE"
);
},
{
closed = 1;
nodes = (
"1759 1300 LINE",
"1759 1358 LINE",
"1553 1358 LINE",
"1553 1270 LINE"
);
}
);
width = 1864;
},
{
anchors = (
{
name = bottom;
position = "{925, 0}";
},
{
name = top;
position = "{925, 1358}";
}
);
guideLines = (
{
position = "{541, 972}";
}
);
layerId = "20F63CDD-78BD-4F3A-8DC2-32840B76756A";
paths = (
{
closed = 1;
nodes = (
"1514 0 LINE",
"1479 1358 LINE",
"1355 1358 LINE",
"1293 1358 OFFCURVE",
"1250 1339 OFFCURVE",
"1234 1291 CURVE SMOOTH",
"871 221 LINE",
"922 231 LINE",
"525 1285 LINE SMOOTH",
"504 1340 OFFCURVE",
"465 1358 OFFCURVE",
"399 1358 CURVE SMOOTH",
"116 1358 LINE",
"116 1270 LINE",
"236 1270 OFFCURVE",
"297 1243 OFFCURVE",
"379 1028 CURVE SMOOTH",
"759 31 LINE",
"921 31 LINE",
"1315 1176 LINE",
"1240 1176 LINE",
"1269 0 LINE"
);
},
{
closed = 1;
nodes = (
"366 0 LINE",
"438 1289 LINE",
"299 1299 LINE",
"222 0 LINE"
);
},
{
closed = 1;
nodes = (
"544 0 LINE",
"544 70 LINE",
"307 100 LINE",
"66 70 LINE",
"66 0 LINE"
);
},
{
closed = 1;
nodes = (
"1679 0 LINE",
"1679 70 LINE",
"1395 100 LINE",
"1106 70 LINE",
"1106 0 LINE"
);
},
{
closed = 1;
nodes = (
"1644 1288 LINE",
"1644 1358 LINE",
"1383 1358 LINE",
"1383 1258 LINE"
);
}
);
width = 1745;
}
);
leftMetricsKey = "=H*0.9";
note = M;
rightMetricsKey = "=H*0.9";
unicode = 004D;
},
{
glyphname = N;
lastChange = "2018-11-20 17:40:20 +0000";
layers = (
{
anchors = (
{
name = bottom;
position = "{739, 0}";
},
{
name = top;
position = "{739, 1358}";
}
);
layerId = "6CE37295-6E30-426D-87AF-6FEE9061C297";
paths = (
{
closed = 1;
nodes = (
"1327 -21 LINE",
"1327 1358 LINE",
"1186 1358 LINE",
"1186 239 LINE",
"1286 327 LINE",
"420 1309 LINE SMOOTH",
"386 1348 OFFCURVE",
"340 1358 OFFCURVE",
"282 1358 CURVE SMOOTH",
"23 1358 LINE",
"23 1282 LINE",
"122 1282 OFFCURVE",
"185 1209 OFFCURVE",
"287 1090 CURVE SMOOTH",
"1245 -21 LINE"
);
},
{
closed = 1;
nodes = (
"341 0 LINE",
"341 1294 LINE",
"200 1294 LINE",
"200 0 LINE"
);
},
{
closed = 1;
nodes = (
"510 0 LINE",
"510 76 LINE",
"273 106 LINE",
"23 76 LINE",
"23 0 LINE"
);
},
{
closed = 1;
nodes = (
"1473 1282 LINE",
"1473 1358 LINE",
"1005 1358 LINE",
"1005 1282 LINE",
"1249 1252 LINE"
);
}
);
userData = {
assembly = "PUSHB[ ]\011/* 6 values pushed */
9 1 6 4 1 76 
MPPEM[ ]\011/* MeasurePixelPerEm */
PUSHB[ ]\011/* 1 value pushed */
51 
LT[ ]\011/* LessThan */
IF[ ]\011/* If */
NPUSHB[ ]\011/* 38 values pushed */
0 6 4 1 4 6 1 128 9 7 2 4 4 5 95 8 1 5 5 68 77 3 1 1 1 2 95 0 2 2 69 77 0 0 0 69 0 78 
ELSE[ ]\011/* Else */
MPPEM[ ]\011/* MeasurePixelPerEm */
PUSHB[ ]\011/* 1 value pushed */
60 
LT[ ]\011/* LessThan */
IF[ ]\011/* If */
NPUSHB[ ]\011/* 36 values pushed */
0 6 4 1 4 6 1 128 3 1 1 0 2 0 1 2 103 9 7 2 4 4 5 95 8 1 5 5 68 77 0 0 0 69 0 78 
ELSE[ ]\011/* Else */
NPUSHB[ ]\011/* 34 values pushed */
0 6 4 1 4 6 1 128 8 1 5 9 7 2 4 6 5 4 105 3 1 1 0 2 0 1 2 103 0 0 0 69 0 78 
EIF[ ]\011/* EndIf */
EIF[ ]\011/* EndIf */
NPUSHB[ ]\011/* 14 values pushed */
55 53 82 19 37 66 19 34 52 24 33 10 11 31 
CALL[ ]\011/* CallFunction */";
};
width = 1493;
},
{
anchors = (
{
name = bottom;
position = "{763, 0}";
},
{
name = top;
position = "{763, 1358}";
}
);
backgroundImage = {
crop = "{{0, 0}, {993, 778}}";
imagePath = "Images/N_.glif-Light.tif";
locked = "1";
transform = "{2.04884, 0, 0, 2.04884, -338, -120}";
};
layerId = "EBD25FEC-6C57-4903-A936-5FDFC9C63FB2";
paths = (
{
closed = 1;
nodes = (
"1322 -21 LINE",
"1322 1358 LINE",
"1259 1358 LINE",
"1259 219 LINE",
"1272 234 LINE",
"324 1309 LINE SMOOTH",
"289 1348 OFFCURVE",
"244 1358 OFFCURVE",
"186 1358 CURVE SMOOTH",
"58 1358 LINE",
"58 1310 LINE",
"155 1310 OFFCURVE",
"220 1235 OFFCURVE",
"321 1117 CURVE SMOOTH",
"1302 -21 LINE"
);
},
{
closed = 1;
nodes = (
"298 0 LINE",
"298 1284 LINE",
"235 1284 LINE",
"235 0 LINE"
);
},
{
closed = 1;
nodes = (
"467 0 LINE",
"467 48 LINE",
"267 78 LINE",
"58 48 LINE",
"58 0 LINE"
);
},
{
closed = 1;
nodes = (
"1468 1310 LINE",
"1468 1358 LINE",
"1078 1358 LINE",
"1078 1310 LINE",
"1289 1280 LINE"
);
}
);
width = 1519;
},
{
anchors = (
{
name = bottom;
position = "{740, 0}";
},
{
name = top;
position = "{790, 1358}";
}
);
layerId = "1E14FD48-0E57-4B09-9E12-AF4BF73A87E4";
paths = (
{
closed = 1;
nodes = (
"1435 -21 LINE",
"1435 1358 LINE",
"1294 1358 LINE",
"1294 239 LINE",
"1394 327 LINE",
"420 1309 LINE SMOOTH",
"384 1346 OFFCURVE",
"340 1358 OFFCURVE",
"282 1358 CURVE SMOOTH",
"23 1358 LINE",
"23 1282 LINE",
"101 1282 OFFCURVE",
"184 1197 OFFCURVE",
"287 1090 CURVE SMOOTH",
"1353 -21 LINE"
);
},
{
closed = 1;
nodes = (
"341 0 LINE",
"341 1294 LINE",
"200 1294 LINE",
"200 0 LINE"
);
},
{
closed = 1;
nodes = (
"510 0 LINE",
"510 76 LINE",
"274 106 LINE",
"23 76 LINE",
"23 0 LINE"
);
},
{
closed = 1;
nodes = (
"1581 1282 LINE",
"1581 1358 LINE",
"1113 1358 LINE",
"1113 1282 LINE",
"1368 1252 LINE"
);
}
);
userData = {
assembly = "PUSHB[ ]\011/* 6 values pushed */
9 1 6 4 1 76 
MPPEM[ ]\011/* MeasurePixelPerEm */
PUSHB[ ]\011/* 1 value pushed */
51 
LT[ ]\011/* LessThan */
IF[ ]\011/* If */
NPUSHB[ ]\011/* 38 values pushed */
0 6 4 1 4 6 1 128 9 7 2 4 4 5 95 8 1 5 5 68 77 3 1 1 1 2 95 0 2 2 69 77 0 0 0 69 0 78 
ELSE[ ]\011/* Else */
MPPEM[ ]\011/* MeasurePixelPerEm */
PUSHB[ ]\011/* 1 value pushed */
60 
LT[ ]\011/* LessThan */
IF[ ]\011/* If */
NPUSHB[ ]\011/* 36 values pushed */
0 6 4 1 4 6 1 128 3 1 1 0 2 0 1 2 103 9 7 2 4 4 5 95 8 1 5 5 68 77 0 0 0 69 0 78 
ELSE[ ]\011/* Else */
NPUSHB[ ]\011/* 34 values pushed */
0 6 4 1 4 6 1 128 8 1 5 9 7 2 4 6 5 4 105 3 1 1 0 2 0 1 2 103 0 0 0 69 0 78 
EIF[ ]\011/* EndIf */
EIF[ ]\011/* EndIf */
NPUSHB[ ]\011/* 14 values pushed */
55 53 82 19 37 66 19 34 52 24 33 10 11 31 
CALL[ ]\011/* CallFunction */";
};
width = 1601;
},
{
anchors = (
{
name = bottom;
position = "{728, 0}";
},
{
name = top;
position = "{788, 1358}";
}
);
layerId = "16DF9356-34D2-4C02-8100-FB39A491A1B7";
paths = (
{
closed = 1;
nodes = (
"1413 -21 LINE",
"1413 1358 LINE",
"1345 1358 LINE",
"1345 219 LINE",
"1376 229 LINE",
"356 1309 LINE SMOOTH",
"319 1349 OFFCURVE",
"270 1358 OFFCURVE",
"208 1358 CURVE SMOOTH",
"58 1358 LINE",
"58 1310 LINE",
"160 1310 OFFCURVE",
"231 1235 OFFCURVE",
"340 1117 CURVE SMOOTH",
"1391 -21 LINE"
);
},
{
closed = 1;
nodes = (
"315 0 LINE",
"315 1294 LINE",
"247 1294 LINE",
"247 0 LINE"
);
},
{
closed = 1;
nodes = (
"496 0 LINE",
"496 48 LINE",
"286 78 LINE",
"58 48 LINE",
"58 0 LINE"
);
},
{
closed = 1;
nodes = (
"1569 1310 LINE",
"1569 1358 LINE",
"1151 1358 LINE",
"1151 1310 LINE",
"1377 1280 LINE"
);
}
);
width = 1620;
},
{
anchors = (
{
name = bottom;
position = "{693, 0}";
},
{
name = top;
position = "{753, 1358}";
}
);
layerId = "20F63CDD-78BD-4F3A-8DC2-32840B76756A";
paths = (
{
closed = 1;
nodes = (
"1332 -21 LINE",
"1332 1358 LINE",
"1191 1358 LINE",
"1191 239 LINE",
"1291 327 LINE",
"464 1309 LINE SMOOTH",
"431 1349 OFFCURVE",
"384 1358 OFFCURVE",
"326 1358 CURVE SMOOTH",
"58 1358 LINE",
"58 1270 LINE",
"180 1270 OFFCURVE",
"234 1208 OFFCURVE",
"331 1090 CURVE SMOOTH",
"1250 -21 LINE"
);
},
{
closed = 1;
nodes = (
"365 0 LINE",
"365 1294 LINE",
"224 1294 LINE",
"224 0 LINE"
);
},
{
closed = 1;
nodes = (
"534 0 LINE",
"534 70 LINE",
"294 100 LINE",
"58 70 LINE",
"58 0 LINE"
);
},
{
closed = 1;
nodes = (
"1468 1288 LINE",
"1468 1358 LINE",
"1020 1358 LINE",
"1020 1288 LINE",
"1256 1258 LINE"
);
}
);
width = 1519;
}
);
leftMetricsKey = "=H*0.8";
note = N;
rightMetricsKey = "=H*0.7";
unicode = 004E;
},
{
glyphname = Eng;
lastChange = "2018-11-17 00:30:03 +0000";
layers = (
{
anchors = (
{
name = bottom;
position = "{704, 0}";
},
{
name = top;
position = "{704, 1358}";
}
);
layerId = "EBD25FEC-6C57-4903-A936-5FDFC9C63FB2";
paths = (
{
closed = 1;
nodes = (
"1015 -518 OFFCURVE",
"1108 -430 OFFCURVE",
"1159 -309 CURVE SMOOTH",
"1211 -186 OFFCURVE",
"1213 -59 OFFCURVE",
"1213 120 CURVE SMOOTH",
"1213 1358 LINE",
"1150 1358 LINE",
"1150 199 LINE",
"1177 230 LINE",
"365 1309 LINE SMOOTH",
"333 1351 OFFCURVE",
"285 1358 OFFCURVE",
"227 1358 CURVE SMOOTH",
"58 1358 LINE",
"58 1300 LINE",
"175 1300 OFFCURVE",
"216 1286 OFFCURVE",
"342 1117 CURVE SMOOTH",
"1145 43 LINE",
"1145 -160 LINE SMOOTH",
"1145 -288 OFFCURVE",
"1045 -436 OFFCURVE",
"978 -436 CURVE SMOOTH",
"964 -436 OFFCURVE",
"944 -424 OFFCURVE",
"918 -400 CURVE SMOOTH",
"891 -375 OFFCURVE",
"864 -363 OFFCURVE",
"835 -363 CURVE SMOOTH",
"787 -363 OFFCURVE",
"763 -385 OFFCURVE",
"763 -428 CURVE SMOOTH",
"763 -480 OFFCURVE",
"805 -518 OFFCURVE",
"868 -518 CURVE SMOOTH"
);
},
{
closed = 1;
nodes = (
"488 0 LINE",
"488 48 LINE",
"288 78 LINE",
"79 48 LINE",
"79 0 LINE"
);
},
{
closed = 1;
nodes = (
"319 0 LINE",
"319 1300 LINE",
"256 1300 LINE",
"256 0 LINE"
);
},
{
closed = 1;
nodes = (
"1359 1310 LINE",
"1359 1358 LINE",
"969 1358 LINE",
"969 1310 LINE",
"1182 1280 LINE"
);
}
);
width = 1434;
},
{
anchors = (
{
name = bottom;
position = "{740, 0}";
},
{
name = top;
position = "{740, 1358}";
}
);
layerId = "6CE37295-6E30-426D-87AF-6FEE9061C297";
paths = (
{
closed = 1;
nodes = (
"1065 -518 OFFCURVE",
"1170 -452 OFFCURVE",
"1248 -324 CURVE SMOOTH",
"1302 -235 OFFCURVE",
"1306 -161 OFFCURVE",
"1306 63 CURVE SMOOTH",
"1306 1358 LINE",
"1168 1358 LINE",
"1168 358 LINE",
"1204 367 LINE",
"440 1298 LINE SMOOTH",
"418 1325 OFFCURVE",
"379 1358 OFFCURVE",
"286 1358 CURVE SMOOTH",
"23 1358 LINE",
"23 1270 LINE",
"120 1270 OFFCURVE",
"139 1265 OFFCURVE",
"259 1122 CURVE SMOOTH",
"1168 39 LINE",
"1168 -105 LINE SMOOTH",
"1168 -230 OFFCURVE",
"1126 -385 OFFCURVE",
"1054 -385 CURVE SMOOTH",
"1015 -385 OFFCURVE",
"998 -373 OFFCURVE",
"973 -349 CURVE SMOOTH",
"948 -325 OFFCURVE",
"918 -313 OFFCURVE",
"883 -313 CURVE SMOOTH",
"813 -313 OFFCURVE",
"785 -354 OFFCURVE",
"785 -403 CURVE SMOOTH",
"785 -467 OFFCURVE",
"837 -518 OFFCURVE",
"916 -518 CURVE SMOOTH"
);
},
{
closed = 1;
nodes = (
"507 0 LINE",
"507 76 LINE",
"275 106 LINE",
"38 76 LINE",
"38 0 LINE"
);
},
{
closed = 1;
nodes = (
"346 0 LINE",
"346 1270 LINE",
"205 1270 LINE",
"205 0 LINE"
);
},
{
closed = 1;
nodes = (
"1451 1282 LINE",
"1451 1358 LINE",
"1004 1358 LINE",
"1004 1282 LINE",
"1241 1252 LINE"
);
}
);
width = 1481;
},
{
anchors = (
{
name = bottom;
position = "{740, 0}";
},
{
name = top;
position = "{740, 1358}";
}
);
layerId = "1E14FD48-0E57-4B09-9E12-AF4BF73A87E4";
paths = (
{
closed = 1;
nodes = (
"1212 -518 OFFCURVE",
"1317 -452 OFFCURVE",
"1395 -324 CURVE SMOOTH",
"1449 -235 OFFCURVE",
"1453 -161 OFFCURVE",
"1453 63 CURVE SMOOTH",
"1453 1358 LINE",
"1315 1358 LINE",
"1315 358 LINE",
"1368 358 LINE",
"440 1298 LINE SMOOTH",
"415 1323 OFFCURVE",
"379 1358 OFFCURVE",
"286 1358 CURVE SMOOTH",
"23 1358 LINE",
"23 1270 LINE",
"91 1270 OFFCURVE",
"125 1237 OFFCURVE",
"217 1145 CURVE SMOOTH",
"1315 39 LINE",
"1315 -105 LINE SMOOTH",
"1315 -230 OFFCURVE",
"1273 -385 OFFCURVE",
"1201 -385 CURVE SMOOTH",
"1162 -385 OFFCURVE",
"1145 -373 OFFCURVE",
"1120 -349 CURVE SMOOTH",
"1095 -325 OFFCURVE",
"1065 -313 OFFCURVE",
"1030 -313 CURVE SMOOTH",
"960 -313 OFFCURVE",
"932 -354 OFFCURVE",
"932 -403 CURVE SMOOTH",
"932 -467 OFFCURVE",
"984 -518 OFFCURVE",
"1063 -518 CURVE SMOOTH"
);
},
{
closed = 1;
nodes = (
"507 0 LINE",
"507 76 LINE",
"284 106 LINE",
"38 76 LINE",
"38 0 LINE"
);
},
{
closed = 1;
nodes = (
"346 0 LINE",
"346 1270 LINE",
"205 1270 LINE",
"205 0 LINE"
);
},
{
closed = 1;
nodes = (
"1598 1282 LINE",
"1598 1358 LINE",
"1151 1358 LINE",
"1151 1282 LINE",
"1387 1252 LINE"
);
}
);
width = 1628;
},
{
anchors = (
{
name = bottom;
position = "{744, 0}";
},
{
name = top;
position = "{744, 1358}";
}
);
layerId = "16DF9356-34D2-4C02-8100-FB39A491A1B7";
paths = (
{
closed = 1;
nodes = (
"1076 -518 OFFCURVE",
"1166 -429 OFFCURVE",
"1222 -309 CURVE SMOOTH",
"1279 -186 OFFCURVE",
"1280 -59 OFFCURVE",
"1280 120 CURVE SMOOTH",
"1280 1358 LINE",
"1213 1358 LINE",
"1213 219 LINE",
"1250 219 LINE",
"372 1309 LINE SMOOTH",
"339 1350 OFFCURVE",
"287 1358 OFFCURVE",
"227 1358 CURVE SMOOTH",
"58 1358 LINE",
"58 1288 LINE",
"197 1288 OFFCURVE",
"212 1288 OFFCURVE",
"297 1181 CURVE SMOOTH",
"1207 43 LINE",
"1207 -70 LINE SMOOTH",
"1207 -288 OFFCURVE",
"1100 -436 OFFCURVE",
"1028 -436 CURVE SMOOTH",
"1014 -436 OFFCURVE",
"995 -424 OFFCURVE",
"969 -400 CURVE SMOOTH",
"942 -375 OFFCURVE",
"915 -363 OFFCURVE",
"886 -363 CURVE SMOOTH",
"838 -363 OFFCURVE",
"814 -385 OFFCURVE",
"814 -428 CURVE SMOOTH",
"814 -480 OFFCURVE",
"856 -518 OFFCURVE",
"919 -518 CURVE SMOOTH"
);
},
{
closed = 1;
nodes = (
"504 0 LINE",
"504 48 LINE",
"292 78 LINE",
"79 48 LINE",
"79 0 LINE"
);
},
{
closed = 1;
nodes = (
"323 0 LINE",
"323 1288 LINE",
"256 1288 LINE",
"256 0 LINE"
);
},
{
closed = 1;
nodes = (
"1426 1310 LINE",
"1426 1358 LINE",
"1032 1358 LINE",
"1032 1310 LINE",
"1247 1280 LINE"
);
}
);
width = 1501;
},
{
anchors = (
{
name = bottom;
position = "{713, 0}";
},
{
name = top;
position = "{713, 1358}";
}
);
layerId = "20F63CDD-78BD-4F3A-8DC2-32840B76756A";
paths = (
{
closed = 1;
nodes = (
"1008 -518 OFFCURVE",
"1104 -446 OFFCURVE",
"1171 -320 CURVE SMOOTH",
"1224 -220 OFFCURVE",
"1224 -117 OFFCURVE",
"1224 76 CURVE SMOOTH",
"1224 1358 LINE",
"1105 1358 LINE",
"1105 331 LINE",
"1141 331 LINE",
"431 1301 LINE SMOOTH",
"405 1337 OFFCURVE",
"363 1358 OFFCURVE",
"291 1358 CURVE SMOOTH",
"58 1358 LINE",
"58 1277 LINE",
"144 1277 OFFCURVE",
"178 1271 OFFCURVE",
"247 1179 CURVE SMOOTH",
"1104 40 LINE",
"1104 -117 LINE SMOOTH",
"1104 -243 OFFCURVE",
"1060 -396 OFFCURVE",
"994 -396 CURVE SMOOTH",
"959 -396 OFFCURVE",
"945 -384 OFFCURVE",
"922 -360 CURVE SMOOTH",
"899 -336 OFFCURVE",
"870 -324 OFFCURVE",
"840 -324 CURVE SMOOTH",
"778 -324 OFFCURVE",
"752 -361 OFFCURVE",
"752 -409 CURVE SMOOTH",
"752 -470 OFFCURVE",
"800 -518 OFFCURVE",
"870 -518 CURVE SMOOTH"
);
},
{
closed = 1;
nodes = (
"497 0 LINE",
"497 70 LINE",
"295 100 LINE",
"72 70 LINE",
"72 0 LINE"
);
},
{
closed = 1;
nodes = (
"349 0 LINE",
"349 1277 LINE",
"227 1277 LINE",
"227 0 LINE"
);
},
{
closed = 1;
nodes = (
"1359 1288 LINE",
"1359 1358 LINE",
"952 1358 LINE",
"952 1288 LINE",
"1167 1258 LINE"
);
}
);
width = 1434;
}
);
leftMetricsKey = N;
unicode = 014A;
},
{
glyphname = O;
lastChange = "2018-11-17 05:00:44 +0000";
layers = (
{
anchors = (
{
name = bottom;
position = "{774, 0}";
},
{
name = center;
position = "{774, 659}";
},
{
name = ogonek;
position = "{884, 0}";
},
{
name = top;
position = "{774, 1358}";
},
{
name = topleft;
position = "{32, 1358}";
},
{
name = topright;
position = "{1515, 1358}";
}
);
layerId = "6CE37295-6E30-426D-87AF-6FEE9061C297";
paths = (
{
closed = 1;
nodes = (
"1161 -27 OFFCURVE",
"1486 272 OFFCURVE",
"1486 674 CURVE SMOOTH",
"1486 1073 OFFCURVE",
"1167 1384 OFFCURVE",
"759 1384 CURVE SMOOTH",
"353 1384 OFFCURVE",
"23 1076 OFFCURVE",
"23 659 CURVE SMOOTH",
"23 252 OFFCURVE",
"337 -27 OFFCURVE",
"742 -27 CURVE SMOOTH"
);
},
{
closed = 1;
nodes = (
"529 68 OFFCURVE",
"384 342 OFFCURVE",
"384 718 CURVE SMOOTH",
"384 1055 OFFCURVE",
"558 1296 OFFCURVE",
"753 1296 CURVE SMOOTH",
"968 1296 OFFCURVE",
"1125 989 OFFCURVE",
"1125 621 CURVE SMOOTH",
"1125 297 OFFCURVE",
"973 68 OFFCURVE",
"769 68 CURVE SMOOTH"
);
}
);
userData = {
assembly = "MPPEM[ ]\011/* MeasurePixelPerEm */
PUSHB[ ]\011/* 1 value pushed */
60 
LT[ ]\011/* LessThan */
IF[ ]\011/* If */
NPUSHB[ ]\011/* 21 values pushed */
0 2 2 1 97 0 1 1 74 77 0 3 3 0 97 0 0 0 75 0 78 
ELSE[ ]\011/* Else */
NPUSHB[ ]\011/* 19 values pushed */
0 1 0 2 3 1 2 105 0 3 3 0 97 0 0 0 75 0 78 
EIF[ ]\011/* EndIf */
PUSHB[ ]\011/* 7 values pushed */
38 38 38 35 4 11 26 
CALL[ ]\011/* CallFunction */";
};
width = 1509;
},
{
anchors = (
{
name = bottom;
position = "{673, 0}";
},
{
name = center;
position = "{673, 679}";
},
{
name = ogonek;
position = "{781, -5}";
},
{
name = top;
position = "{673, 1358}";
},
{
name = topleft;
position = "{-15, 1358}";
},
{
name = topright;
position = "{1360, 1358}";
}
);
layerId = "EBD25FEC-6C57-4903-A936-5FDFC9C63FB2";
paths = (
{
closed = 1;
nodes = (
"1075 -27 OFFCURVE",
"1299 316 OFFCURVE",
"1299 677 CURVE SMOOTH",
"1299 1068 OFFCURVE",
"1035 1385 OFFCURVE",
"676 1385 CURVE SMOOTH",
"289 1385 OFFCURVE",
"60 1018 OFFCURVE",
"60 659 CURVE SMOOTH",
"60 291 OFFCURVE",
"292 -27 OFFCURVE",
"677 -27 CURVE SMOOTH"
);
},
{
closed = 1;
nodes = (
"406 38 OFFCURVE",
"203 327 OFFCURVE",
"203 710 CURVE SMOOTH",
"203 1063 OFFCURVE",
"410 1324 OFFCURVE",
"673 1324 CURVE SMOOTH",
"951 1324 OFFCURVE",
"1156 1029 OFFCURVE",
"1156 642 CURVE SMOOTH",
"1156 299 OFFCURVE",
"962 38 OFFCURVE",
"691 38 CURVE SMOOTH"
);
}
);
width = 1359;
},
{
anchors = (
{
name = bottom;
position = "{804, 0}";
},
{
name = center;
position = "{794, 659}";
},
{
name = ogonek;
position = "{896, -7}";
},
{
name = top;
position = "{804, 1358}";
},
{
name = topleft;
position = "{32, 1358}";
},
{
name = topright;
position = "{1515, 1358}";
}
);
layerId = "1E14FD48-0E57-4B09-9E12-AF4BF73A87E4";
paths = (
{
closed = 1;
nodes = (
"1223 -27 OFFCURVE",
"1559 282 OFFCURVE",
"1559 674 CURVE SMOOTH",
"1559 1062 OFFCURVE",
"1230 1384 OFFCURVE",
"809 1384 CURVE SMOOTH",
"390 1384 OFFCURVE",
"49 1066 OFFCURVE",
"49 659 CURVE SMOOTH",
"49 262 OFFCURVE",
"374 -27 OFFCURVE",
"791 -27 CURVE SMOOTH"
);
},
{
closed = 1;
nodes = (
"560 68 OFFCURVE",
"410 401 OFFCURVE",
"410 719 CURVE SMOOTH",
"410 1039 OFFCURVE",
"595 1296 OFFCURVE",
"800 1296 CURVE SMOOTH",
"1027 1296 OFFCURVE",
"1198 1032 OFFCURVE",
"1198 671 CURVE SMOOTH",
"1198 355 OFFCURVE",
"1037 68 OFFCURVE",
"821 68 CURVE SMOOTH"
);
}
);
userData = {
assembly = "MPPEM[ ]\011/* MeasurePixelPerEm */
PUSHB[ ]\011/* 1 value pushed */
60 
LT[ ]\011/* LessThan */
IF[ ]\011/* If */
NPUSHB[ ]\011/* 21 values pushed */
0 2 2 1 97 0 1 1 74 77 0 3 3 0 97 0 0 0 75 0 78 
ELSE[ ]\011/* Else */
NPUSHB[ ]\011/* 19 values pushed */
0 1 0 2 3 1 2 105 0 3 3 0 97 0 0 0 75 0 78 
EIF[ ]\011/* EndIf */
PUSHB[ ]\011/* 7 values pushed */
38 38 38 35 4 11 26 
CALL[ ]\011/* CallFunction */";
};
width = 1608;
},
{
anchors = (
{
name = bottom;
position = "{770, 0}";
},
{
name = center;
position = "{770, 679}";
},
{
name = ogonek;
position = "{886, -6}";
},
{
name = top;
position = "{770, 1358}";
},
{
name = topleft;
position = "{52, 1358}";
},
{
name = topright;
position = "{1427, 1358}";
}
);
layerId = "16DF9356-34D2-4C02-8100-FB39A491A1B7";
paths = (
{
closed = 1;
nodes = (
"1215 -27 OFFCURVE",
"1456 316 OFFCURVE",
"1456 676 CURVE SMOOTH",
"1456 1067 OFFCURVE",
"1172 1385 OFFCURVE",
"789 1385 CURVE SMOOTH",
"399 1385 OFFCURVE",
"123 1054 OFFCURVE",
"123 660 CURVE SMOOTH",
"123 292 OFFCURVE",
"373 -27 OFFCURVE",
"787 -27 CURVE SMOOTH"
);
},
{
closed = 1;
nodes = (
"500 38 OFFCURVE",
"269 342 OFFCURVE",
"269 711 CURVE SMOOTH",
"269 1053 OFFCURVE",
"505 1324 OFFCURVE",
"781 1324 CURVE SMOOTH",
"1074 1324 OFFCURVE",
"1310 1019 OFFCURVE",
"1310 642 CURVE SMOOTH",
"1310 310 OFFCURVE",
"1090 38 OFFCURVE",
"803 38 CURVE SMOOTH"
);
}
);
width = 1579;
},
{
anchors = (
{
name = bottom;
position = "{668, 0}";
},
{
name = center;
position = "{762, 663}";
},
{
name = ogonek;
position = "{772, -3}";
},
{
name = top;
position = "{762, 1358}";
},
{
name = topleft;
position = "{107, 1358}";
},
{
name = topright;
position = "{1417, 1358}";
}
);
layerId = "20F63CDD-78BD-4F3A-8DC2-32840B76756A";
paths = (
{
closed = 1;
nodes = (
"1032 -27 OFFCURVE",
"1310 290 OFFCURVE",
"1310 675 CURVE SMOOTH",
"1310 1063 OFFCURVE",
"1035 1384 OFFCURVE",
"683 1384 CURVE SMOOTH",
"330 1384 OFFCURVE",
"49 1055 OFFCURVE",
"49 659 CURVE SMOOTH",
"49 269 OFFCURVE",
"318 -27 OFFCURVE",
"668 -27 CURVE SMOOTH"
);
},
{
closed = 1;
nodes = (
"460 70 OFFCURVE",
"316 385 OFFCURVE",
"316 716 CURVE SMOOTH",
"316 1033 OFFCURVE",
"486 1293 OFFCURVE",
"677 1293 CURVE SMOOTH",
"888 1293 OFFCURVE",
"1043 983 OFFCURVE",
"1043 626 CURVE SMOOTH",
"1043 313 OFFCURVE",
"893 70 OFFCURVE",
"692 70 CURVE SMOOTH"
);
}
);
width = 1359;
}
);
leftKerningGroup = C;
note = O;
rightKerningGroup = O;
unicode = 004F;
},
{
glyphname = OE;
lastChange = "2018-11-20 17:41:00 +0000";
layers = (
{
anchors = (
{
name = bottom;
position = "{1021, 0}";
},
{
name = top;
position = "{1021, 1358}";
}
);
layerId = "6CE37295-6E30-426D-87AF-6FEE9061C297";
paths = (
{
closed = 1;
nodes = (
"1275 0 LINE",
"1275 1358 LINE",
"736 1358 LINE",
"313 1358 OFFCURVE",
"23 1047 OFFCURVE",
"23 668 CURVE SMOOTH",
"23 278 OFFCURVE",
"288 0 OFFCURVE",
"732 0 CURVE"
);
},
{
closed = 1;
nodes = (
"555 80 OFFCURVE",
"384 386 OFFCURVE",
"384 723 CURVE SMOOTH",
"384 1034 OFFCURVE",
"534 1272 OFFCURVE",
"730 1272 CURVE SMOOTH",
"891 1272 OFFCURVE",
"942 1255 OFFCURVE",
"996 1176 CURVE",
"996 173 LINE",
"930 92 OFFCURVE",
"895 80 OFFCURVE",
"746 80 CURVE SMOOTH"
);
},
{
closed = 1;
nodes = (
"1936 1001 LINE",
"1936 1358 LINE",
"1015 1358 LINE",
"1015 1265 LINE",
"1634 1265 LINE SMOOTH",
"1707 1265 OFFCURVE",
"1731 1253 OFFCURVE",
"1757 1209 CURVE SMOOTH",
"1881 1001 LINE"
);
},
{
closed = 1;
nodes = (
"1991 0 LINE",
"1991 354 LINE",
"1936 354 LINE",
"1820 146 LINE SMOOTH",
"1797 104 OFFCURVE",
"1747 90 OFFCURVE",
"1697 90 CURVE SMOOTH",
"996 90 LINE",
"996 0 LINE"
);
},
{
closed = 1;
nodes = (
"1604 636 LINE",
"1604 728 LINE",
"1103 728 LINE",
"1103 636 LINE"
);
},
{
closed = 1;
nodes = (
"1666 459 LINE",
"1666 923 LINE",
"1549 923 LINE",
"1549 459 LINE"
);
}
);
userData = {
assembly = "NPUSHB[ ]\011/* 13 values pushed */
45 39 27 3 3 2 71 52 2 5 4 2 76 
MPPEM[ ]\011/* MeasurePixelPerEm */
PUSHB[ ]\011/* 1 value pushed */
48 
LT[ ]\011/* LessThan */
IF[ ]\011/* If */
NPUSHB[ ]\011/* 31 values pushed */
0 3 0 4 5 3 4 105 6 1 2 2 1 95 0 1 1 68 77 7 1 5 5 0 95 0 0 0 69 0 78 
ELSE[ ]\011/* Else */
MPPEM[ ]\011/* MeasurePixelPerEm */
PUSHB[ ]\011/* 1 value pushed */
56 
LT[ ]\011/* LessThan */
IF[ ]\011/* If */
NPUSHB[ ]\011/* 43 values pushed */
0 2 6 3 6 2 114 0 5 4 7 7 5 114 0 3 0 4 5 3 4 105 0 6 6 1 95 0 1 1 68 77 0 7 7 0 96 0 0 0 69 0 78 
ELSE[ ]\011/* Else */
MPPEM[ ]\011/* MeasurePixelPerEm */
PUSHB[ ]\011/* 1 value pushed */
60 
LT[ ]\011/* LessThan */
IF[ ]\011/* If */
NPUSHB[ ]\011/* 40 values pushed */
0 2 6 3 6 2 114 0 5 4 7 7 5 114 0 3 0 4 5 3 4 105 0 7 0 0 7 0 100 0 6 6 1 95 0 1 1 68 6 78 
ELSE[ ]\011/* Else */
NPUSHB[ ]\011/* 46 values pushed */
0 2 6 3 6 2 114 0 5 4 7 7 5 114 0 1 0 6 2 1 6 105 0 3 0 4 5 3 4 105 0 7 0 0 7 89 0 7 7 0 96 0 0 7 0 80 
EIF[ ]\011/* EndIf */
EIF[ ]\011/* EndIf */
EIF[ ]\011/* EndIf */
NPUSHB[ ]\011/* 11 values pushed */
36 58 53 62 36 74 132 131 8 11 30 
CALL[ ]\011/* CallFunction */";
};
width = 2006;
},
{
anchors = (
{
name = bottom;
position = "{905, 0}";
},
{
name = top;
position = "{905, 1358}";
}
);
layerId = "EBD25FEC-6C57-4903-A936-5FDFC9C63FB2";
paths = (
{
closed = 1;
nodes = (
"1047 0 LINE",
"1047 1358 LINE",
"666 1358 LINE",
"285 1358 OFFCURVE",
"60 1005 OFFCURVE",
"60 667 CURVE SMOOTH",
"60 303 OFFCURVE",
"289 0 OFFCURVE",
"661 0 CURVE"
);
},
{
closed = 1;
nodes = (
"458 68 OFFCURVE",
"203 327 OFFCURVE",
"203 724 CURVE SMOOTH",
"203 1014 OFFCURVE",
"382 1289 OFFCURVE",
"654 1289 CURVE SMOOTH",
"778 1289 OFFCURVE",
"862 1283 OFFCURVE",
"925 1208 CURVE",
"925 122 LINE",
"865 73 OFFCURVE",
"817 68 OFFCURVE",
"675 68 CURVE SMOOTH"
);
},
{
closed = 1;
nodes = (
"1695 1015 LINE",
"1695 1358 LINE",
"925 1358 LINE",
"925 1296 LINE",
"1472 1296 LINE SMOOTH",
"1544 1296 OFFCURVE",
"1576 1282 OFFCURVE",
"1595 1229 CURVE SMOOTH",
"1671 1015 LINE"
);
},
{
closed = 1;
nodes = (
"1762 0 LINE",
"1762 342 LINE",
"1738 342 LINE",
"1644 117 LINE SMOOTH",
"1622 65 OFFCURVE",
"1587 61 OFFCURVE",
"1521 61 CURVE SMOOTH",
"925 61 LINE",
"925 0 LINE"
);
},
{
closed = 1;
nodes = (
"1429 661 LINE",
"1429 722 LINE",
"978 722 LINE",
"978 661 LINE"
);
},
{
closed = 1;
nodes = (
"1457 444 LINE",
"1457 953 LINE",
"1392 953 LINE",
"1392 444 LINE"
);
}
);
width = 1799;
},
{
anchors = (
{
name = bottom;
position = "{1228, 0}";
},
{
name = top;
position = "{1228, 1358}";
}
);
layerId = "1E14FD48-0E57-4B09-9E12-AF4BF73A87E4";
paths = (
{
closed = 1;
nodes = (
"1362 0 LINE",
"1362 1358 LINE",
"823 1358 LINE",
"399 1358 OFFCURVE",
"49 1097 OFFCURVE",
"49 668 CURVE SMOOTH",
"49 228 OFFCURVE",
"375 0 OFFCURVE",
"819 0 CURVE"
);
},
{
closed = 1;
nodes = (
"612 80 OFFCURVE",
"410 386 OFFCURVE",
"410 723 CURVE SMOOTH",
"410 1034 OFFCURVE",
"590 1272 OFFCURVE",
"817 1272 CURVE SMOOTH",
"948 1272 OFFCURVE",
"1029 1255 OFFCURVE",
"1083 1176 CURVE",
"1083 173 LINE",
"1017 92 OFFCURVE",
"952 80 OFFCURVE",
"833 80 CURVE SMOOTH"
);
},
{
closed = 1;
nodes = (
"2089 1001 LINE",
"2089 1358 LINE",
"1083 1358 LINE",
"1083 1265 LINE",
"1787 1265 LINE SMOOTH",
"1860 1265 OFFCURVE",
"1884 1253 OFFCURVE",
"1910 1209 CURVE SMOOTH",
"2034 1001 LINE"
);
},
{
closed = 1;
nodes = (
"2216 0 LINE",
"2216 354 LINE",
"2161 354 LINE",
"2045 146 LINE SMOOTH",
"2022 104 OFFCURVE",
"1972 90 OFFCURVE",
"1922 90 CURVE SMOOTH",
"1083 90 LINE",
"1083 0 LINE"
);
},
{
closed = 1;
nodes = (
"1740 616 LINE",
"1740 708 LINE",
"1199 708 LINE",
"1199 616 LINE"
);
},
{
closed = 1;
nodes = (
"1810 439 LINE",
"1810 903 LINE",
"1694 903 LINE",
"1694 439 LINE"
);
}
);
userData = {
assembly = "NPUSHB[ ]\011/* 13 values pushed */
45 39 27 3 3 2 71 52 2 5 4 2 76 
MPPEM[ ]\011/* MeasurePixelPerEm */
PUSHB[ ]\011/* 1 value pushed */
48 
LT[ ]\011/* LessThan */
IF[ ]\011/* If */
NPUSHB[ ]\011/* 31 values pushed */
0 3 0 4 5 3 4 105 6 1 2 2 1 95 0 1 1 68 77 7 1 5 5 0 95 0 0 0 69 0 78 
ELSE[ ]\011/* Else */
MPPEM[ ]\011/* MeasurePixelPerEm */
PUSHB[ ]\011/* 1 value pushed */
56 
LT[ ]\011/* LessThan */
IF[ ]\011/* If */
NPUSHB[ ]\011/* 43 values pushed */
0 2 6 3 6 2 114 0 5 4 7 7 5 114 0 3 0 4 5 3 4 105 0 6 6 1 95 0 1 1 68 77 0 7 7 0 96 0 0 0 69 0 78 
ELSE[ ]\011/* Else */
MPPEM[ ]\011/* MeasurePixelPerEm */
PUSHB[ ]\011/* 1 value pushed */
60 
LT[ ]\011/* LessThan */
IF[ ]\011/* If */
NPUSHB[ ]\011/* 40 values pushed */
0 2 6 3 6 2 114 0 5 4 7 7 5 114 0 3 0 4 5 3 4 105 0 7 0 0 7 0 100 0 6 6 1 95 0 1 1 68 6 78 
ELSE[ ]\011/* Else */
NPUSHB[ ]\011/* 46 values pushed */
0 2 6 3 6 2 114 0 5 4 7 7 5 114 0 1 0 6 2 1 6 105 0 3 0 4 5 3 4 105 0 7 0 0 7 89 0 7 7 0 96 0 0 7 0 80 
EIF[ ]\011/* EndIf */
EIF[ ]\011/* EndIf */
EIF[ ]\011/* EndIf */
NPUSHB[ ]\011/* 11 values pushed */
36 58 53 62 36 74 132 131 8 11 30 
CALL[ ]\011/* CallFunction */";
};
width = 2231;
},
{
anchors = (
{
name = bottom;
position = "{1118, 0}";
},
{
name = top;
position = "{1118, 1358}";
}
);
layerId = "16DF9356-34D2-4C02-8100-FB39A491A1B7";
paths = (
{
closed = 1;
nodes = (
"1179 0 LINE",
"1179 1358 LINE",
"771 1358 LINE",
"364 1358 OFFCURVE",
"123 1005 OFFCURVE",
"123 667 CURVE SMOOTH",
"123 303 OFFCURVE",
"368 0 OFFCURVE",
"766 0 CURVE"
);
},
{
closed = 1;
nodes = (
"546 68 OFFCURVE",
"269 327 OFFCURVE",
"269 724 CURVE SMOOTH",
"269 1014 OFFCURVE",
"463 1289 OFFCURVE",
"759 1289 CURVE SMOOTH",
"891 1289 OFFCURVE",
"981 1283 OFFCURVE",
"1049 1208 CURVE",
"1049 122 LINE",
"984 73 OFFCURVE",
"933 68 OFFCURVE",
"781 68 CURVE SMOOTH"
);
},
{
closed = 1;
nodes = (
"1872 1008 LINE",
"1872 1358 LINE",
"1049 1358 LINE",
"1049 1288 LINE",
"1653 1288 LINE SMOOTH",
"1730 1288 OFFCURVE",
"1763 1274 OFFCURVE",
"1776 1232 CURVE SMOOTH",
"1846 1008 LINE"
);
},
{
closed = 1;
nodes = (
"2008 0 LINE",
"2008 342 LINE",
"1982 342 LINE",
"1906 126 LINE SMOOTH",
"1894 91 OFFCURVE",
"1838 70 OFFCURVE",
"1783 70 CURVE SMOOTH",
"1049 70 LINE",
"1049 0 LINE"
);
},
{
closed = 1;
nodes = (
"1581 656 LINE",
"1581 726 LINE",
"1094 726 LINE",
"1094 656 LINE"
);
},
{
closed = 1;
nodes = (
"1618 439 LINE",
"1618 957 LINE",
"1548 957 LINE",
"1548 439 LINE"
);
}
);
width = 2045;
},
{
anchors = (
{
name = bottom;
position = "{905, 0}";
},
{
name = top;
position = "{905, 1358}";
}
);
layerId = "20F63CDD-78BD-4F3A-8DC2-32840B76756A";
paths = (
{
closed = 1;
nodes = (
"1133 0 LINE",
"1133 1358 LINE",
"665 1358 LINE",
"300 1358 OFFCURVE",
"49 1038 OFFCURVE",
"49 668 CURVE SMOOTH",
"49 284 OFFCURVE",
"278 0 OFFCURVE",
"662 0 CURVE"
);
},
{
closed = 1;
nodes = (
"508 91 OFFCURVE",
"360 382 OFFCURVE",
"360 723 CURVE SMOOTH",
"360 1025 OFFCURVE",
"490 1267 OFFCURVE",
"660 1267 CURVE SMOOTH",
"801 1267 OFFCURVE",
"843 1253 OFFCURVE",
"889 1183 CURVE",
"889 176 LINE",
"832 102 OFFCURVE",
"803 91 OFFCURVE",
"674 91 CURVE SMOOTH"
);
},
{
closed = 1;
nodes = (
"1714 1001 LINE",
"1714 1358 LINE",
"889 1358 LINE",
"889 1272 LINE",
"1412 1272 LINE SMOOTH",
"1485 1272 OFFCURVE",
"1509 1260 OFFCURVE",
"1535 1216 CURVE SMOOTH",
"1659 1001 LINE"
);
},
{
closed = 1;
nodes = (
"1762 0 LINE",
"1762 354 LINE",
"1707 354 LINE",
"1591 140 LINE SMOOTH",
"1568 98 OFFCURVE",
"1518 84 OFFCURVE",
"1468 84 CURVE SMOOTH",
"889 84 LINE",
"889 0 LINE"
);
},
{
closed = 1;
nodes = (
"1423 626 LINE",
"1423 711 LINE",
"988 711 LINE",
"988 626 LINE"
);
},
{
closed = 1;
nodes = (
"1480 441 LINE",
"1480 913 LINE",
"1377 913 LINE",
"1377 441 LINE"
);
}
);
width = 1799;
}
);
leftKerningGroup = C;
leftMetricsKey = "=O";
note = OE;
rightMetricsKey = "=E";
unicode = 0152;
},
{
glyphname = P;
lastChange = "2018-11-20 17:41:35 +0000";
layers = (
{
anchors = (
{
name = bottom;
position = "{595, 0}";
},
{
name = top;
position = "{595, 1358}";
}
);
layerId = "6CE37295-6E30-426D-87AF-6FEE9061C297";
paths = (
{
closed = 1;
nodes = (
"481 0 LINE",
"481 647 LINE",
"398 620 LINE",
"457 597 OFFCURVE",
"544 596 OFFCURVE",
"635 596 CURVE SMOOTH",
"964 596 OFFCURVE",
"1190 719 OFFCURVE",
"1190 969 CURVE SMOOTH",
"1190 1211 OFFCURVE",
"965 1358 OFFCURVE",
"641 1358 CURVE SMOOTH",
"202 1358 LINE",
"202 0 LINE"
);
},
{
closed = 1;
nodes = (
"654 0 LINE",
"654 76 LINE",
"341 106 LINE",
"29 76 LINE",
"29 0 LINE"
);
},
{
closed = 1;
nodes = (
"349 1358 LINE",
"29 1358 LINE",
"29 1282 LINE",
"349 1252 LINE"
);
},
{
closed = 1;
nodes = (
"474 676 OFFCURVE",
"453 687 OFFCURVE",
"383 738 CURVE",
"481 605 LINE",
"481 1278 LINE",
"559 1278 LINE SMOOTH",
"753 1278 OFFCURVE",
"857 1135 OFFCURVE",
"857 969 CURVE SMOOTH",
"857 777 OFFCURVE",
"761 676 OFFCURVE",
"574 676 CURVE SMOOTH"
);
}
);
userData = {
assembly = "PUSHB[ ]\011/* 6 values pushed */
44 1 8 3 1 76 
MPPEM[ ]\011/* MeasurePixelPerEm */
PUSHB[ ]\011/* 1 value pushed */
39 
LT[ ]\011/* LessThan */
IF[ ]\011/* If */
NPUSHB[ ]\011/* 32 values pushed */
0 8 6 1 5 0 8 5 105 7 1 3 3 4 95 0 4 4 68 77 2 1 0 0 1 95 0 1 1 69 1 78 
ELSE[ ]\011/* Else */
MPPEM[ ]\011/* MeasurePixelPerEm */
PUSHB[ ]\011/* 1 value pushed */
51 
LT[ ]\011/* LessThan */
IF[ ]\011/* If */
NPUSHB[ ]\011/* 38 values pushed */
0 3 7 8 7 3 114 0 8 6 1 5 0 8 5 105 0 7 7 4 95 0 4 4 68 77 2 1 0 0 1 95 0 1 1 69 1 78 
ELSE[ ]\011/* Else */
MPPEM[ ]\011/* MeasurePixelPerEm */
PUSHB[ ]\011/* 1 value pushed */
60 
LT[ ]\011/* LessThan */
IF[ ]\011/* If */
NPUSHB[ ]\011/* 35 values pushed */
0 3 7 8 7 3 114 0 8 6 1 5 0 8 5 105 2 1 0 0 1 0 1 99 0 7 7 4 95 0 4 4 68 7 78 
ELSE[ ]\011/* Else */
MPPEM[ ]\011/* MeasurePixelPerEm */
PUSHB[ ]\011/* 1 value pushed */
93 
LT[ ]\011/* LessThan */
IF[ ]\011/* If */
NPUSHB[ ]\011/* 42 values pushed */
0 3 7 8 7 3 114 0 4 0 7 3 4 7 105 0 8 6 1 5 0 8 5 105 2 1 0 1 1 0 89 2 1 0 0 1 95 0 1 0 1 79 
ELSE[ ]\011/* Else */
NPUSHB[ ]\011/* 49 values pushed */
0 3 7 8 7 3 114 0 6 8 5 8 6 5 128 0 4 0 7 3 4 7 105 0 8 0 5 0 8 5 105 2 1 0 1 1 0 89 2 1 0 0 1 95 0 1 0 1 79 
EIF[ ]\011/* EndIf */
EIF[ ]\011/* EndIf */
EIF[ ]\011/* EndIf */
EIF[ ]\011/* EndIf */
NPUSHB[ ]\011/* 12 values pushed */
39 37 17 38 114 19 34 82 17 9 11 31 
CALL[ ]\011/* CallFunction */";
};
width = 1206;
},
{
anchors = (
{
name = bottom;
position = "{555, 0}";
},
{
name = top;
position = "{555, 1358}";
}
);
layerId = "EBD25FEC-6C57-4903-A936-5FDFC9C63FB2";
paths = (
{
closed = 1;
nodes = (
"392 0 LINE",
"392 619 LINE",
"334 623 LINE",
"408 597 OFFCURVE",
"484 596 OFFCURVE",
"599 596 CURVE SMOOTH",
"887 596 OFFCURVE",
"1057 740 OFFCURVE",
"1057 980 CURVE SMOOTH",
"1057 1220 OFFCURVE",
"874 1358 OFFCURVE",
"605 1358 CURVE SMOOTH",
"270 1358 LINE",
"270 0 LINE"
);
},
{
closed = 1;
nodes = (
"589 0 LINE",
"589 48 LINE",
"335 78 LINE",
"73 48 LINE",
"73 0 LINE"
);
},
{
closed = 1;
nodes = (
"392 1358 LINE",
"73 1358 LINE",
"73 1310 LINE",
"392 1280 LINE"
);
},
{
closed = 1;
nodes = (
"440 650 OFFCURVE",
"361 667 OFFCURVE",
"320 699 CURVE",
"392 643 LINE",
"392 1304 LINE",
"528 1304 LINE SMOOTH",
"756 1304 OFFCURVE",
"925 1156 OFFCURVE",
"925 984 CURVE SMOOTH",
"925 767 OFFCURVE",
"782 650 OFFCURVE",
"537 650 CURVE SMOOTH"
);
}
);
width = 1099;
},
{
anchors = (
{
name = bottom;
position = "{595, 0}";
},
{
name = top;
position = "{595, 1358}";
}
);
layerId = "1E14FD48-0E57-4B09-9E12-AF4BF73A87E4";
paths = (
{
closed = 1;
nodes = (
"481 0 LINE",
"481 647 LINE",
"398 620 LINE",
"457 597 OFFCURVE",
"551 596 OFFCURVE",
"653 596 CURVE SMOOTH",
"1091 596 OFFCURVE",
"1291 713 OFFCURVE",
"1291 969 CURVE SMOOTH",
"1291 1236 OFFCURVE",
"1093 1358 OFFCURVE",
"660 1358 CURVE SMOOTH",
"202 1358 LINE",
"202 0 LINE"
);
},
{
closed = 1;
nodes = (
"654 0 LINE",
"654 76 LINE",
"340 106 LINE",
"29 76 LINE",
"29 0 LINE"
);
},
{
closed = 1;
nodes = (
"349 1358 LINE",
"29 1358 LINE",
"29 1282 LINE",
"349 1252 LINE"
);
},
{
closed = 1;
nodes = (
"493 676 OFFCURVE",
"453 687 OFFCURVE",
"383 738 CURVE",
"481 605 LINE",
"481 1278 LINE",
"575 1278 LINE SMOOTH",
"837 1278 OFFCURVE",
"958 1181 OFFCURVE",
"958 969 CURVE SMOOTH",
"958 768 OFFCURVE",
"843 676 OFFCURVE",
"593 676 CURVE SMOOTH"
);
}
);
userData = {
assembly = "PUSHB[ ]\011/* 6 values pushed */
44 1 8 3 1 76 
MPPEM[ ]\011/* MeasurePixelPerEm */
PUSHB[ ]\011/* 1 value pushed */
39 
LT[ ]\011/* LessThan */
IF[ ]\011/* If */
NPUSHB[ ]\011/* 32 values pushed */
0 8 6 1 5 0 8 5 105 7 1 3 3 4 95 0 4 4 68 77 2 1 0 0 1 95 0 1 1 69 1 78 
ELSE[ ]\011/* Else */
MPPEM[ ]\011/* MeasurePixelPerEm */
PUSHB[ ]\011/* 1 value pushed */
51 
LT[ ]\011/* LessThan */
IF[ ]\011/* If */
NPUSHB[ ]\011/* 38 values pushed */
0 3 7 8 7 3 114 0 8 6 1 5 0 8 5 105 0 7 7 4 95 0 4 4 68 77 2 1 0 0 1 95 0 1 1 69 1 78 
ELSE[ ]\011/* Else */
MPPEM[ ]\011/* MeasurePixelPerEm */
PUSHB[ ]\011/* 1 value pushed */
60 
LT[ ]\011/* LessThan */
IF[ ]\011/* If */
NPUSHB[ ]\011/* 35 values pushed */
0 3 7 8 7 3 114 0 8 6 1 5 0 8 5 105 2 1 0 0 1 0 1 99 0 7 7 4 95 0 4 4 68 7 78 
ELSE[ ]\011/* Else */
MPPEM[ ]\011/* MeasurePixelPerEm */
PUSHB[ ]\011/* 1 value pushed */
93 
LT[ ]\011/* LessThan */
IF[ ]\011/* If */
NPUSHB[ ]\011/* 42 values pushed */
0 3 7 8 7 3 114 0 4 0 7 3 4 7 105 0 8 6 1 5 0 8 5 105 2 1 0 1 1 0 89 2 1 0 0 1 95 0 1 0 1 79 
ELSE[ ]\011/* Else */
NPUSHB[ ]\011/* 49 values pushed */
0 3 7 8 7 3 114 0 6 8 5 8 6 5 128 0 4 0 7 3 4 7 105 0 8 0 5 0 8 5 105 2 1 0 1 1 0 89 2 1 0 0 1 95 0 1 0 1 79 
EIF[ ]\011/* EndIf */
EIF[ ]\011/* EndIf */
EIF[ ]\011/* EndIf */
EIF[ ]\011/* EndIf */
NPUSHB[ ]\011/* 12 values pushed */
39 37 17 38 114 19 34 82 17 9 11 31 
CALL[ ]\011/* CallFunction */";
};
width = 1325;
},
{
anchors = (
{
name = bottom;
position = "{555, 0}";
},
{
name = top;
position = "{555, 1358}";
}
);
layerId = "16DF9356-34D2-4C02-8100-FB39A491A1B7";
paths = (
{
closed = 1;
nodes = (
"401 0 LINE",
"401 619 LINE",
"338 623 LINE",
"418 597 OFFCURVE",
"499 596 OFFCURVE",
"622 596 CURVE SMOOTH",
"930 596 OFFCURVE",
"1112 740 OFFCURVE",
"1112 980 CURVE SMOOTH",
"1112 1220 OFFCURVE",
"916 1358 OFFCURVE",
"628 1358 CURVE SMOOTH",
"270 1358 LINE",
"270 0 LINE"
);
},
{
closed = 1;
nodes = (
"598 0 LINE",
"598 48 LINE",
"338 78 LINE",
"73 48 LINE",
"73 0 LINE"
);
},
{
closed = 1;
nodes = (
"393 1358 LINE",
"73 1358 LINE",
"73 1300 LINE",
"393 1270 LINE"
);
},
{
closed = 1;
nodes = (
"452 666 OFFCURVE",
"367 683 OFFCURVE",
"324 715 CURVE",
"401 643 LINE",
"401 1288 LINE",
"546 1288 LINE SMOOTH",
"789 1288 OFFCURVE",
"969 1147 OFFCURVE",
"969 984 CURVE SMOOTH",
"969 777 OFFCURVE",
"817 666 OFFCURVE",
"556 666 CURVE SMOOTH"
);
}
);
width = 1198;
},
{
anchors = (
{
name = bottom;
position = "{554, 0}";
},
{
name = top;
position = "{554, 1358}";
}
);
layerId = "20F63CDD-78BD-4F3A-8DC2-32840B76756A";
leftMetricsKey = "=51";
paths = (
{
closed = 1;
nodes = (
"453 0 LINE",
"453 641 LINE",
"380 621 LINE",
"430 597 OFFCURVE",
"504 596 OFFCURVE",
"580 596 CURVE SMOOTH",
"867 596 OFFCURVE",
"1065 724 OFFCURVE",
"1065 971 CURVE SMOOTH",
"1065 1213 OFFCURVE",
"868 1358 OFFCURVE",
"585 1358 CURVE SMOOTH",
"209 1358 LINE",
"209 0 LINE"
);
},
{
closed = 1;
nodes = (
"612 0 LINE",
"612 70 LINE",
"333 100 LINE",
"51 70 LINE",
"51 0 LINE"
);
},
{
closed = 1;
nodes = (
"386 1358 LINE",
"66 1358 LINE",
"66 1288 LINE",
"386 1258 LINE"
);
},
{
closed = 1;
nodes = (
"447 670 OFFCURVE",
"429 681 OFFCURVE",
"368 729 CURVE",
"453 614 LINE",
"453 1284 LINE",
"516 1284 LINE SMOOTH",
"692 1284 OFFCURVE",
"786 1140 OFFCURVE",
"786 972 CURVE SMOOTH",
"786 775 OFFCURVE",
"699 670 OFFCURVE",
"529 670 CURVE SMOOTH"
);
}
);
width = 1099;
}
);
leftMetricsKey = H;
note = P;
rightKerningGroup = P;
rightMetricsKey = "=O*0.7";
unicode = 0050;
},
{
glyphname = Thorn;
lastChange = "2018-11-17 05:11:09 +0000";
layers = (
{
anchors = (
{
name = bottom;
position = "{628, 0}";
},
{
name = top;
position = "{628, 1358}";
}
);
layerId = "6CE37295-6E30-426D-87AF-6FEE9061C297";
paths = (
{
closed = 1;
nodes = (
"542 -12 OFFCURVE",
"669 33 OFFCURVE",
"739 67 CURVE SMOOTH",
"1020 204 OFFCURVE",
"1207 469 OFFCURVE",
"1207 727 CURVE SMOOTH",
"1207 1005 OFFCURVE",
"1019 1329 OFFCURVE",
"810 1329 CURVE SMOOTH",
"747 1329 OFFCURVE",
"676 1299 OFFCURVE",
"612 1245 CURVE SMOOTH",
"527 1173 OFFCURVE",
"471 1129 OFFCURVE",
"407 1087 CURVE",
"366 948 LINE",
"492 1025 OFFCURVE",
"580 1086 OFFCURVE",
"666 1165 CURVE SMOOTH",
"688 1186 OFFCURVE",
"695 1192 OFFCURVE",
"702 1192 CURVE SMOOTH",
"759 1192 OFFCURVE",
"846 940 OFFCURVE",
"846 727 CURVE SMOOTH",
"846 500 OFFCURVE",
"771 288 OFFCURVE",
"654 174 CURVE SMOOTH",
"604 126 OFFCURVE",
"530 75 OFFCURVE",
"390 75 CURVE",
"386 -28 LINE"
);
},
{
closed = 1;
nodes = (
"432 -344 LINE",
"470 -289 LINE",
"470 1220 LINE SMOOTH",
"470 1263 OFFCURVE",
"470 1307 OFFCURVE",
"475 1349 CURVE",
"421 1393 LINE",
"24 1321 LINE",
"24 1235 LINE",
"239 1239 LINE",
"191 1288 LINE",
"191 -319 LINE",
"215 -265 LINE",
"77 -449 LINE",
"148 -535 LINE"
);
}
);
userData = {
assembly = "MPPEM[ ]\011/* MeasurePixelPerEm */
PUSHB[ ]\011/* 1 value pushed */
27 
LT[ ]\011/* LessThan */
IF[ ]\011/* If */
NPUSHB[ ]\011/* 36 values pushed */
0 5 0 3 0 5 3 128 0 3 6 0 3 6 126 0 6 6 132 0 2 2 74 77 0 0 0 1 97 4 1 1 1 68 0 78 
ELSE[ ]\011/* Else */
MPPEM[ ]\011/* MeasurePixelPerEm */
PUSHB[ ]\011/* 1 value pushed */
60 
LT[ ]\011/* LessThan */
IF[ ]\011/* If */
NPUSHB[ ]\011/* 34 values pushed */
0 5 0 3 0 5 3 128 0 3 6 0 3 6 126 0 6 6 132 4 1 1 0 0 5 1 0 105 0 2 2 74 2 78 
ELSE[ ]\011/* Else */
NPUSHB[ ]\011/* 45 values pushed */
0 2 4 2 133 0 4 1 4 133 0 5 0 3 0 5 3 128 0 3 6 0 3 6 126 0 6 6 132 0 1 0 0 1 89 0 1 1 0 97 0 0 1 0 81 
EIF[ ]\011/* EndIf */
EIF[ ]\011/* EndIf */
NPUSHB[ ]\011/* 17 values pushed */
66 65 56 54 46 44 40 38 35 33 31 29 27 26 7 11 22 
CALL[ ]\011/* CallFunction */";
};
width = 1258;
},
{
anchors = (
{
name = bottom;
position = "{576, 0}";
},
{
name = top;
position = "{576, 1358}";
}
);
layerId = "EBD25FEC-6C57-4903-A936-5FDFC9C63FB2";
paths = (
{
closed = 1;
nodes = (
"495 -12 OFFCURVE",
"600 33 OFFCURVE",
"682 85 CURVE SMOOTH",
"909 229 OFFCURVE",
"1035 488 OFFCURVE",
"1035 741 CURVE SMOOTH",
"1035 1026 OFFCURVE",
"938 1327 OFFCURVE",
"731 1327 CURVE SMOOTH",
"678 1327 OFFCURVE",
"627 1292 OFFCURVE",
"583 1253 CURVE SMOOTH",
"508 1187 OFFCURVE",
"437 1134 OFFCURVE",
"344 1074 CURVE",
"309 976 LINE",
"467 1074 OFFCURVE",
"540 1138 OFFCURVE",
"614 1204 CURVE SMOOTH",
"630 1218 OFFCURVE",
"649 1223 OFFCURVE",
"661 1223 CURVE SMOOTH",
"803 1223 OFFCURVE",
"892 972 OFFCURVE",
"892 741 CURVE SMOOTH",
"892 478 OFFCURVE",
"831 313 OFFCURVE",
"661 160 CURVE SMOOTH",
"576 83 OFFCURVE",
"467 53 OFFCURVE",
"324 50 CURVE",
"316 -27 LINE"
);
},
{
closed = 1;
nodes = (
"352 -343 LINE",
"367 -310 LINE",
"367 1188 LINE SMOOTH",
"367 1253 OFFCURVE",
"367 1316 OFFCURVE",
"372 1352 CURVE",
"344 1385 LINE",
"59 1317 LINE",
"59 1259 LINE",
"283 1259 LINE",
"245 1298 LINE",
"245 -333 LINE",
"269 -271 LINE",
"106 -468 LINE",
"142 -507 LINE"
);
}
);
width = 1163;
},
{
anchors = (
{
name = bottom;
position = "{628, 0}";
},
{
name = top;
position = "{628, 1358}";
}
);
background = {
paths = (
{
closed = 1;
nodes = (
"582 -12 OFFCURVE",
"730 30 OFFCURVE",
"799 67 CURVE SMOOTH",
"1058 206 OFFCURVE",
"1255 449 OFFCURVE",
"1255 727 CURVE SMOOTH",
"1255 914 OFFCURVE",
"1184 1050 OFFCURVE",
"1085 1183 CURVE SMOOTH",
"1012 1281 OFFCURVE",
"944 1329 OFFCURVE",
"870 1329 CURVE SMOOTH",
"807 1329 OFFCURVE",
"736 1299 OFFCURVE",
"672 1245 CURVE SMOOTH",
"587 1173 OFFCURVE",
"511 1119 OFFCURVE",
"447 1077 CURVE",
"406 938 LINE",
"532 1015 OFFCURVE",
"637 1086 OFFCURVE",
"726 1165 CURVE SMOOTH",
"743 1180 OFFCURVE",
"756 1192 OFFCURVE",
"762 1192 CURVE SMOOTH",
"827 1192 OFFCURVE",
"946 940 OFFCURVE",
"946 727 CURVE SMOOTH",
"946 480 OFFCURVE",
"842 287 OFFCURVE",
"714 174 CURVE SMOOTH",
"662 128 OFFCURVE",
"570 75 OFFCURVE",
"430 75 CURVE",
"426 -28 LINE"
);
},
{
closed = 1;
nodes = (
"432 -344 LINE",
"470 -289 LINE",
"470 1220 LINE SMOOTH",
"470 1263 OFFCURVE",
"470 1307 OFFCURVE",
"475 1349 CURVE",
"421 1393 LINE",
"294 1347 OFFCURVE",
"164 1321 OFFCURVE",
"24 1321 CURVE",
"24 1235 LINE",
"136 1235 OFFCURVE",
"191 1193 OFFCURVE",
"191 1098 CURVE SMOOTH",
"191 -319 LINE",
"215 -265 LINE",
"49 -415 LINE",
"148 -535 LINE"
);
}
);
};
layerId = "1E14FD48-0E57-4B09-9E12-AF4BF73A87E4";
paths = (
{
closed = 1;
nodes = (
"582 -12 OFFCURVE",
"729 32 OFFCURVE",
"799 67 CURVE SMOOTH",
"1077 206 OFFCURVE",
"1289 449 OFFCURVE",
"1289 727 CURVE SMOOTH",
"1289 1012 OFFCURVE",
"1098 1329 OFFCURVE",
"870 1329 CURVE SMOOTH",
"807 1329 OFFCURVE",
"736 1299 OFFCURVE",
"672 1245 CURVE SMOOTH",
"586 1173 OFFCURVE",
"511 1119 OFFCURVE",
"447 1077 CURVE",
"406 938 LINE",
"532 1015 OFFCURVE",
"637 1086 OFFCURVE",
"726 1165 CURVE SMOOTH",
"742 1180 OFFCURVE",
"753 1185 OFFCURVE",
"765 1185 CURVE SMOOTH",
"824 1185 OFFCURVE",
"926 960 OFFCURVE",
"926 727 CURVE SMOOTH",
"926 480 OFFCURVE",
"830 287 OFFCURVE",
"714 174 CURVE SMOOTH",
"664 126 OFFCURVE",
"570 75 OFFCURVE",
"430 75 CURVE",
"426 -28 LINE"
);
},
{
closed = 1;
nodes = (
"432 -344 LINE",
"470 -289 LINE",
"470 1220 LINE SMOOTH",
"470 1263 OFFCURVE",
"470 1307 OFFCURVE",
"475 1349 CURVE",
"421 1393 LINE",
"24 1321 LINE",
"24 1235 LINE",
"264 1235 LINE",
"191 1298 LINE",
"191 -319 LINE",
"215 -265 LINE",
"49 -415 LINE",
"148 -535 LINE"
);
}
);
userData = {
assembly = "MPPEM[ ]\011/* MeasurePixelPerEm */
PUSHB[ ]\011/* 1 value pushed */
27 
LT[ ]\011/* LessThan */
IF[ ]\011/* If */
NPUSHB[ ]\011/* 36 values pushed */
0 5 0 3 0 5 3 128 0 3 6 0 3 6 126 0 6 6 132 0 2 2 74 77 0 0 0 1 97 4 1 1 1 68 0 78 
ELSE[ ]\011/* Else */
MPPEM[ ]\011/* MeasurePixelPerEm */
PUSHB[ ]\011/* 1 value pushed */
60 
LT[ ]\011/* LessThan */
IF[ ]\011/* If */
NPUSHB[ ]\011/* 34 values pushed */
0 5 0 3 0 5 3 128 0 3 6 0 3 6 126 0 6 6 132 4 1 1 0 0 5 1 0 105 0 2 2 74 2 78 
ELSE[ ]\011/* Else */
NPUSHB[ ]\011/* 45 values pushed */
0 2 4 2 133 0 4 1 4 133 0 5 0 3 0 5 3 128 0 3 6 0 3 6 126 0 6 6 132 0 1 0 0 1 89 0 1 1 0 97 0 0 1 0 81 
EIF[ ]\011/* EndIf */
EIF[ ]\011/* EndIf */
NPUSHB[ ]\011/* 17 values pushed */
66 65 56 54 46 44 40 38 35 33 31 29 27 26 7 11 22 
CALL[ ]\011/* CallFunction */";
};
width = 1340;
},
{
anchors = (
{
name = bottom;
position = "{576, 0}";
},
{
name = top;
position = "{576, 1358}";
}
);
layerId = "16DF9356-34D2-4C02-8100-FB39A491A1B7";
paths = (
{
closed = 1;
nodes = (
"513 -12 OFFCURVE",
"625 33 OFFCURVE",
"713 85 CURVE SMOOTH",
"956 229 OFFCURVE",
"1091 488 OFFCURVE",
"1091 741 CURVE SMOOTH",
"1091 1032 OFFCURVE",
"983 1327 OFFCURVE",
"765 1327 CURVE SMOOTH",
"709 1327 OFFCURVE",
"654 1292 OFFCURVE",
"607 1253 CURVE SMOOTH",
"527 1187 OFFCURVE",
"451 1134 OFFCURVE",
"351 1074 CURVE",
"314 976 LINE",
"483 1074 OFFCURVE",
"561 1138 OFFCURVE",
"640 1204 CURVE SMOOTH",
"657 1218 OFFCURVE",
"678 1223 OFFCURVE",
"690 1223 CURVE SMOOTH",
"847 1223 OFFCURVE",
"945 972 OFFCURVE",
"945 741 CURVE SMOOTH",
"945 478 OFFCURVE",
"878 313 OFFCURVE",
"690 160 CURVE SMOOTH",
"598 85 OFFCURVE",
"483 53 OFFCURVE",
"330 50 CURVE",
"321 -27 LINE"
);
},
{
closed = 1;
nodes = (
"360 -343 LINE",
"376 -310 LINE",
"376 1188 LINE SMOOTH",
"376 1253 OFFCURVE",
"376 1316 OFFCURVE",
"381 1352 CURVE",
"351 1385 LINE",
"59 1317 LINE",
"59 1259 LINE",
"293 1259 LINE",
"245 1304 LINE",
"245 -333 LINE",
"271 -271 LINE",
"100 -462 LINE",
"142 -507 LINE"
);
}
);
width = 1219;
},
{
anchors = (
{
name = bottom;
position = "{584, 0}";
},
{
name = top;
position = "{584, 1358}";
}
);
layerId = "20F63CDD-78BD-4F3A-8DC2-32840B76756A";
paths = (
{
closed = 1;
nodes = (
"491 -12 OFFCURVE",
"591 31 OFFCURVE",
"656 71 CURVE SMOOTH",
"878 208 OFFCURVE",
"1035 470 OFFCURVE",
"1035 730 CURVE SMOOTH",
"1035 1010 OFFCURVE",
"880 1329 OFFCURVE",
"714 1329 CURVE SMOOTH",
"659 1329 OFFCURVE",
"594 1295 OFFCURVE",
"548 1247 CURVE SMOOTH",
"482 1179 OFFCURVE",
"444 1141 OFFCURVE",
"380 1084 CURVE",
"346 954 LINE",
"458 1044 OFFCURVE",
"514 1091 OFFCURVE",
"593 1174 CURVE SMOOTH",
"613 1195 OFFCURVE",
"618 1199 OFFCURVE",
"634 1199 CURVE SMOOTH",
"663 1199 OFFCURVE",
"730 946 OFFCURVE",
"730 730 CURVE SMOOTH",
"730 499 OFFCURVE",
"673 297 OFFCURVE",
"580 170 CURVE SMOOTH",
"540 115 OFFCURVE",
"482 69 OFFCURVE",
"367 69 CURVE",
"363 -28 LINE"
);
},
{
closed = 1;
nodes = (
"407 -344 LINE",
"440 -294 LINE",
"440 1213 LINE SMOOTH",
"440 1261 OFFCURVE",
"440 1309 OFFCURVE",
"444 1350 CURVE",
"398 1391 LINE",
"59 1320 LINE",
"59 1240 LINE",
"292 1240 LINE",
"196 1304 LINE",
"196 -322 LINE",
"215 -266 LINE",
"80 -419 LINE",
"164 -529 LINE"
);
}
);
width = 1163;
}
);
note = Thorn;
rightKerningGroup = Thorn;
unicode = 00DE;
},
{
glyphname = Q;
lastChange = "2018-11-17 19:14:29 +0000";
layers = (
{
anchors = (
{
name = bottom;
position = "{832, 0}";
},
{
name = top;
position = "{832, 1358}";
}
);
layerId = "6CE37295-6E30-426D-87AF-6FEE9061C297";
paths = (
{
closed = 1;
nodes = (
"2174 -306 OFFCURVE",
"2374 -242 OFFCURVE",
"2516 -146 CURVE",
"2492 -86 LINE",
"2331 -135 OFFCURVE",
"2198 -156 OFFCURVE",
"1974 -156 CURVE SMOOTH",
"1563 -156 OFFCURVE",
"1051 -85 OFFCURVE",
"779 28 CURVE SMOOTH",
"472 156 OFFCURVE",
"384 378 OFFCURVE",
"384 698 CURVE SMOOTH",
"384 1117 OFFCURVE",
"544 1297 OFFCURVE",
"743 1297 CURVE SMOOTH",
"989 1297 OFFCURVE",
"1119 1045 OFFCURVE",
"1119 695 CURVE SMOOTH",
"1119 306 OFFCURVE",
"956 82 OFFCURVE",
"666 82 CURVE SMOOTH",
"621 82 OFFCURVE",
"557 89 OFFCURVE",
"515 97 CURVE",
"631 -4 LINE",
"649 -6 OFFCURVE",
"667 -6 OFFCURVE",
"685 -6 CURVE SMOOTH",
"1083 -6 OFFCURVE",
"1480 233 OFFCURVE",
"1480 723 CURVE SMOOTH",
"1480 1158 OFFCURVE",
"1168 1385 OFFCURVE",
"771 1385 CURVE SMOOTH",
"287 1385 OFFCURVE",
"23 1018 OFFCURVE",
"23 657 CURVE SMOOTH",
"23 276 OFFCURVE",
"317 47 OFFCURVE",
"719 -105 CURVE SMOOTH",
"1126 -259 OFFCURVE",
"1543 -306 OFFCURVE",
"1839 -306 CURVE SMOOTH"
);
}
);
userData = {
assembly = "MPPEM[ ]\011/* MeasurePixelPerEm */
PUSHB[ ]\011/* 1 value pushed */
60 
LT[ ]\011/* LessThan */
IF[ ]\011/* If */
NPUSHB[ ]\011/* 16 values pushed */
0 2 1 2 134 0 1 1 0 97 0 0 0 74 1 78 
ELSE[ ]\011/* Else */
NPUSHB[ ]\011/* 21 values pushed */
0 2 1 2 134 0 0 1 1 0 89 0 0 0 1 97 0 1 0 1 81 
EIF[ ]\011/* EndIf */
NPUSHB[ ]\011/* 9 values pushed */
45 43 37 35 29 27 3 11 22 
CALL[ ]\011/* CallFunction */";
};
width = 1509;
},
{
anchors = (
{
name = bottom;
position = "{684, 0}";
},
{
name = top;
position = "{684, 1358}";
}
);
backgroundImage = {
crop = "{{0, 0}, {974, 635}}";
imagePath = "Images/Q_.glif-Light.tif";
locked = "1";
transform = "{2.87, 0, 0, 2.87, -146, -360}";
};
layerId = "EBD25FEC-6C57-4903-A936-5FDFC9C63FB2";
paths = (
{
closed = 1;
nodes = (
"2091 -276 OFFCURVE",
"2315 -222 OFFCURVE",
"2431 -143 CURVE",
"2420 -116 LINE",
"2304 -154 OFFCURVE",
"2123 -186 OFFCURVE",
"1956 -186 CURVE SMOOTH",
"1499 -186 OFFCURVE",
"1124 -131 OFFCURVE",
"670 28 CURVE SMOOTH",
"340 144 OFFCURVE",
"203 370 OFFCURVE",
"203 710 CURVE SMOOTH",
"203 1063 OFFCURVE",
"410 1324 OFFCURVE",
"673 1324 CURVE SMOOTH",
"951 1324 OFFCURVE",
"1156 1029 OFFCURVE",
"1156 705 CURVE SMOOTH",
"1156 264 OFFCURVE",
"897 49 OFFCURVE",
"611 49 CURVE SMOOTH",
"545 49 OFFCURVE",
"499 54 OFFCURVE",
"443 64 CURVE",
"559 -4 LINE",
"577 -6 OFFCURVE",
"595 -6 OFFCURVE",
"613 -6 CURVE SMOOTH",
"956 -6 OFFCURVE",
"1299 231 OFFCURVE",
"1299 717 CURVE SMOOTH",
"1299 1068 OFFCURVE",
"1035 1385 OFFCURVE",
"676 1385 CURVE SMOOTH",
"289 1385 OFFCURVE",
"60 1018 OFFCURVE",
"60 659 CURVE SMOOTH",
"60 307 OFFCURVE",
"289 65 OFFCURVE",
"639 -60 CURVE SMOOTH",
"1036 -202 OFFCURVE",
"1536 -276 OFFCURVE",
"1887 -276 CURVE SMOOTH"
);
}
);
width = 1359;
},
{
anchors = (
{
name = bottom;
position = "{832, 0}";
},
{
name = top;
position = "{832, 1358}";
}
);
layerId = "1E14FD48-0E57-4B09-9E12-AF4BF73A87E4";
paths = (
{
closed = 1;
nodes = (
"2355 -306 OFFCURVE",
"2569 -242 OFFCURVE",
"2721 -146 CURVE",
"2696 -86 LINE",
"2523 -135 OFFCURVE",
"2381 -156 OFFCURVE",
"2140 -156 CURVE SMOOTH",
"1700 -156 OFFCURVE",
"1151 -85 OFFCURVE",
"859 28 CURVE SMOOTH",
"513 162 OFFCURVE",
"410 378 OFFCURVE",
"410 698 CURVE SMOOTH",
"410 1117 OFFCURVE",
"593 1297 OFFCURVE",
"821 1297 CURVE SMOOTH",
"1047 1297 OFFCURVE",
"1198 1065 OFFCURVE",
"1198 695 CURVE SMOOTH",
"1198 286 OFFCURVE",
"1012 82 OFFCURVE",
"738 82 CURVE SMOOTH",
"690 82 OFFCURVE",
"621 89 OFFCURVE",
"576 97 CURVE",
"701 -4 LINE",
"720 -6 OFFCURVE",
"739 -6 OFFCURVE",
"759 -6 CURVE SMOOTH",
"1159 -6 OFFCURVE",
"1559 233 OFFCURVE",
"1559 713 CURVE SMOOTH",
"1559 1138 OFFCURVE",
"1247 1385 OFFCURVE",
"851 1385 CURVE SMOOTH",
"332 1385 OFFCURVE",
"49 1018 OFFCURVE",
"49 657 CURVE SMOOTH",
"49 276 OFFCURVE",
"364 47 OFFCURVE",
"795 -105 CURVE SMOOTH",
"1231 -259 OFFCURVE",
"1678 -306 OFFCURVE",
"1996 -306 CURVE SMOOTH"
);
}
);
userData = {
assembly = "MPPEM[ ]\011/* MeasurePixelPerEm */
PUSHB[ ]\011/* 1 value pushed */
60 
LT[ ]\011/* LessThan */
IF[ ]\011/* If */
NPUSHB[ ]\011/* 16 values pushed */
0 2 1 2 134 0 1 1 0 97 0 0 0 74 1 78 
ELSE[ ]\011/* Else */
NPUSHB[ ]\011/* 21 values pushed */
0 2 1 2 134 0 0 1 1 0 89 0 0 0 1 97 0 1 0 1 81 
EIF[ ]\011/* EndIf */
NPUSHB[ ]\011/* 9 values pushed */
45 43 37 35 29 27 3 11 22 
CALL[ ]\011/* CallFunction */";
};
width = 1608;
},
{
anchors = (
{
name = bottom;
position = "{841, 0}";
},
{
name = top;
position = "{841, 1358}";
}
);
layerId = "16DF9356-34D2-4C02-8100-FB39A491A1B7";
paths = (
{
closed = 1;
nodes = (
"2302 -276 OFFCURVE",
"2542 -222 OFFCURVE",
"2667 -143 CURVE",
"2655 -116 LINE",
"2531 -154 OFFCURVE",
"2337 -186 OFFCURVE",
"2158 -186 CURVE SMOOTH",
"1668 -186 OFFCURVE",
"1266 -129 OFFCURVE",
"779 28 CURVE SMOOTH",
"419 144 OFFCURVE",
"269 370 OFFCURVE",
"269 710 CURVE SMOOTH",
"269 1063 OFFCURVE",
"495 1324 OFFCURVE",
"782 1324 CURVE SMOOTH",
"1086 1324 OFFCURVE",
"1310 1029 OFFCURVE",
"1310 705 CURVE SMOOTH",
"1310 264 OFFCURVE",
"1028 49 OFFCURVE",
"716 49 CURVE SMOOTH",
"645 49 OFFCURVE",
"596 54 OFFCURVE",
"536 64 CURVE",
"660 -4 LINE",
"679 -6 OFFCURVE",
"699 -6 OFFCURVE",
"718 -6 CURVE SMOOTH",
"1087 -6 OFFCURVE",
"1456 231 OFFCURVE",
"1456 717 CURVE SMOOTH",
"1456 1068 OFFCURVE",
"1172 1385 OFFCURVE",
"785 1385 CURVE SMOOTH",
"369 1385 OFFCURVE",
"123 1018 OFFCURVE",
"123 659 CURVE SMOOTH",
"123 307 OFFCURVE",
"369 65 OFFCURVE",
"746 -60 CURVE SMOOTH",
"1172 -201 OFFCURVE",
"1707 -276 OFFCURVE",
"2084 -276 CURVE SMOOTH"
);
}
);
width = 1579;
},
{
anchors = (
{
name = bottom;
position = "{749, 0}";
},
{
name = top;
position = "{749, 1358}";
}
);
layerId = "20F63CDD-78BD-4F3A-8DC2-32840B76756A";
paths = (
{
closed = 1;
nodes = (
"2090 -306 OFFCURVE",
"2314 -248 OFFCURVE",
"2430 -169 CURVE",
"2419 -88 LINE",
"2303 -126 OFFCURVE",
"2122 -156 OFFCURVE",
"1955 -156 CURVE SMOOTH",
"1498 -156 OFFCURVE",
"1123 -107 OFFCURVE",
"714 35 CURVE SMOOTH",
"423 136 OFFCURVE",
"341 370 OFFCURVE",
"341 710 CURVE SMOOTH",
"341 1046 OFFCURVE",
"487 1294 OFFCURVE",
"672 1294 CURVE SMOOTH",
"870 1294 OFFCURVE",
"1016 1013 OFFCURVE",
"1016 705 CURVE SMOOTH",
"1016 284 OFFCURVE",
"823 79 OFFCURVE",
"610 79 CURVE SMOOTH",
"544 79 OFFCURVE",
"498 84 OFFCURVE",
"442 94 CURVE",
"558 -4 LINE",
"576 -6 OFFCURVE",
"594 -6 OFFCURVE",
"612 -6 CURVE SMOOTH",
"960 -6 OFFCURVE",
"1308 231 OFFCURVE",
"1308 717 CURVE SMOOTH",
"1308 1068 OFFCURVE",
"1040 1385 OFFCURVE",
"675 1385 CURVE SMOOTH",
"282 1385 OFFCURVE",
"49 1018 OFFCURVE",
"49 659 CURVE SMOOTH",
"49 312 OFFCURVE",
"284 51 OFFCURVE",
"638 -73 CURVE SMOOTH",
"1039 -213 OFFCURVE",
"1535 -306 OFFCURVE",
"1886 -306 CURVE SMOOTH"
);
}
);
width = 1359;
},
{
anchors = (
{
name = bottom;
position = "{684, 0}";
},
{
name = top;
position = "{684, 1358}";
}
);
associatedMasterId = "EBD25FEC-6C57-4903-A936-5FDFC9C63FB2";
backgroundImage = {
crop = "{{0, 0}, {974, 635}}";
imagePath = "Images/Q_.glif-Nov 16 18, 19:43.tif";
locked = "1";
transform = "{2.87, 0, 0, 2.87, -146, -360}";
};
layerId = "70D696D8-F038-4543-BC27-464B6BA56501";
name = "Nov 16 18, 19:43";
paths = (
{
closed = 1;
nodes = (
"1594 -300 LINE",
"1297 -221 OFFCURVE",
"981 -67 OFFCURVE",
"878 35 CURVE",
"882 -4 LINE",
"1169 120 OFFCURVE",
"1297 403 OFFCURVE",
"1297 663 CURVE SMOOTH",
"1297 1056 OFFCURVE",
"1049 1385 OFFCURVE",
"681 1385 CURVE SMOOTH",
"293 1385 OFFCURVE",
"58 1022 OFFCURVE",
"58 667 CURVE SMOOTH",
"58 346 OFFCURVE",
"213 110 OFFCURVE",
"442 9 CURVE SMOOTH",
"815 -156 OFFCURVE",
"1195 -276 OFFCURVE",
"1578 -359 CURVE"
);
},
{
closed = 1;
nodes = (
"464 39 OFFCURVE",
"201 325 OFFCURVE",
"201 708 CURVE SMOOTH",
"201 1085 OFFCURVE",
"409 1324 OFFCURVE",
"674 1324 CURVE SMOOTH",
"913 1324 OFFCURVE",
"1154 1013 OFFCURVE",
"1154 664 CURVE SMOOTH",
"1154 321 OFFCURVE",
"992 39 OFFCURVE",
"690 39 CURVE SMOOTH"
);
}
);
width = 1359;
}
);
leftKerningGroup = C;
leftMetricsKey = "=O";
widthMetricsKey = O;
note = Q;
unicode = 0051;
},
{
glyphname = R;
lastChange = "2018-11-20 17:42:55 +0000";
layers = (
{
anchors = (
{
name = bottom;
position = "{685, 0}";
},
{
name = top;
position = "{585, 1358}";
}
);
layerId = "6CE37295-6E30-426D-87AF-6FEE9061C297";
paths = (
{
closed = 1;
nodes = (
"1359 -25 OFFCURVE",
"1398 -22 OFFCURVE",
"1432 -18 CURVE",
"1432 43 LINE",
"1377 48 OFFCURVE",
"1319 85 OFFCURVE",
"1244 162 CURVE SMOOTH",
"1117 294 OFFCURVE",
"1004 443 OFFCURVE",
"893 626 CURVE",
"1129 693 OFFCURVE",
"1236 800 OFFCURVE",
"1236 979 CURVE SMOOTH",
"1236 1243 OFFCURVE",
"970 1358 OFFCURVE",
"641 1358 CURVE SMOOTH",
"202 1358 LINE",
"202 0 LINE",
"481 0 LINE",
"481 1278 LINE",
"545 1278 LINE SMOOTH",
"759 1278 OFFCURVE",
"903 1154 OFFCURVE",
"903 969 CURVE SMOOTH",
"903 768 OFFCURVE",
"792 666 OFFCURVE",
"574 666 CURVE SMOOTH",
"520 666 OFFCURVE",
"463 674 OFFCURVE",
"435 689 CURVE",
"441 588 LINE",
"549 588 LINE SMOOTH",
"572 588 OFFCURVE",
"581 583 OFFCURVE",
"601 565 CURVE SMOOTH",
"612 555 OFFCURVE",
"667 491 OFFCURVE",
"708 427 CURVE SMOOTH",
"744 370 OFFCURVE",
"828 253 OFFCURVE",
"883 198 CURVE SMOOTH",
"1035 48 OFFCURVE",
"1177 -25 OFFCURVE",
"1321 -25 CURVE SMOOTH"
);
},
{
closed = 1;
nodes = (
"654 0 LINE",
"654 76 LINE",
"341 106 LINE",
"29 76 LINE",
"29 0 LINE"
);
},
{
closed = 1;
nodes = (
"349 1252 LINE",
"349 1358 LINE",
"29 1358 LINE",
"29 1282 LINE"
);
}
);
userData = {
assembly = "NPUSHB[ ]\011/* 10 values pushed */
27 1 2 1 12 1 3 2 2 76 
MPPEM[ ]\011/* MeasurePixelPerEm */
PUSHB[ ]\011/* 1 value pushed */
39 
LT[ ]\011/* LessThan */
IF[ ]\011/* If */
NPUSHB[ ]\011/* 36 values pushed */
0 8 0 1 2 8 1 103 7 1 5 5 6 95 0 6 6 68 77 4 1 2 2 3 95 0 3 3 69 77 0 0 0 69 0 78 
ELSE[ ]\011/* Else */
MPPEM[ ]\011/* MeasurePixelPerEm */
PUSHB[ ]\011/* 1 value pushed */
51 
LT[ ]\011/* LessThan */
IF[ ]\011/* If */
NPUSHB[ ]\011/* 42 values pushed */
0 5 7 8 7 5 114 0 8 0 1 2 8 1 103 0 7 7 6 95 0 6 6 68 77 4 1 2 2 3 95 0 3 3 69 77 0 0 0 69 0 78 
ELSE[ ]\011/* Else */
MPPEM[ ]\011/* MeasurePixelPerEm */
PUSHB[ ]\011/* 1 value pushed */
60 
LT[ ]\011/* LessThan */
IF[ ]\011/* If */
NPUSHB[ ]\011/* 40 values pushed */
0 5 7 8 7 5 114 0 8 0 1 2 8 1 103 4 1 2 0 3 0 2 3 103 0 7 7 6 95 0 6 6 68 77 0 0 0 69 0 78 
ELSE[ ]\011/* Else */
NPUSHB[ ]\011/* 38 values pushed */
0 5 7 8 7 5 114 0 6 0 7 5 6 7 105 0 8 0 1 2 8 1 103 4 1 2 0 3 0 2 3 103 0 0 0 69 0 78 
EIF[ ]\011/* EndIf */
EIF[ ]\011/* EndIf */
EIF[ ]\011/* EndIf */
NPUSHB[ ]\011/* 12 values pushed */
38 38 114 19 34 82 20 24 46 9 11 31 
CALL[ ]\011/* CallFunction */";
};
width = 1454;
},
{
anchors = (
{
name = bottom;
position = "{679, 0}";
},
{
name = top;
position = "{569, 1358}";
}
);
layerId = "EBD25FEC-6C57-4903-A936-5FDFC9C63FB2";
paths = (
{
closed = 1;
nodes = (
"1330 -25 OFFCURVE",
"1353 -24 OFFCURVE",
"1375 -22 CURVE",
"1375 15 LINE",
"1322 15 OFFCURVE",
"1220 65 OFFCURVE",
"1144 136 CURVE SMOOTH",
"1018 254 OFFCURVE",
"832 479 OFFCURVE",
"765 624 CURVE",
"966 673 OFFCURVE",
"1077 786 OFFCURVE",
"1077 984 CURVE SMOOTH",
"1077 1235 OFFCURVE",
"912 1358 OFFCURVE",
"605 1358 CURVE SMOOTH",
"270 1358 LINE",
"270 0 LINE",
"392 0 LINE",
"392 1304 LINE",
"528 1304 LINE SMOOTH",
"776 1304 OFFCURVE",
"944 1169 OFFCURVE",
"944 984 CURVE SMOOTH",
"944 757 OFFCURVE",
"795 650 OFFCURVE",
"537 650 CURVE SMOOTH",
"491 650 OFFCURVE",
"389 650 OFFCURVE",
"330 706 CURVE",
"342 601 LINE",
"533 601 LINE SMOOTH",
"570 601 OFFCURVE",
"607 590 OFFCURVE",
"626 577 CURVE SMOOTH",
"645 564 OFFCURVE",
"677 515 OFFCURVE",
"732 428 CURVE SMOOTH",
"787 341 OFFCURVE",
"851 258 OFFCURVE",
"901 204 CURVE SMOOTH",
"957 144 OFFCURVE",
"1153 -25 OFFCURVE",
"1308 -25 CURVE SMOOTH"
);
},
{
closed = 1;
nodes = (
"589 0 LINE",
"589 48 LINE",
"335 78 LINE",
"73 48 LINE",
"73 0 LINE"
);
},
{
closed = 1;
nodes = (
"392 1280 LINE",
"392 1358 LINE",
"73 1358 LINE",
"73 1310 LINE"
);
}
);
width = 1395;
},
{
anchors = (
{
name = bottom;
position = "{685, 0}";
},
{
name = top;
position = "{585, 1358}";
}
);
layerId = "1E14FD48-0E57-4B09-9E12-AF4BF73A87E4";
paths = (
{
closed = 1;
nodes = (
"1450 -25 OFFCURVE",
"1493 -22 OFFCURVE",
"1530 -18 CURVE",
"1530 43 LINE",
"1470 48 OFFCURVE",
"1406 85 OFFCURVE",
"1324 162 CURVE SMOOTH",
"1184 294 OFFCURVE",
"1060 443 OFFCURVE",
"938 626 CURVE",
"1198 698 OFFCURVE",
"1288 786 OFFCURVE",
"1288 969 CURVE SMOOTH",
"1288 1236 OFFCURVE",
"1091 1358 OFFCURVE",
"661 1358 CURVE SMOOTH",
"202 1358 LINE",
"202 0 LINE",
"481 0 LINE",
"481 1278 LINE",
"562 1278 LINE SMOOTH",
"809 1278 OFFCURVE",
"998 1174 OFFCURVE",
"998 969 CURVE SMOOTH",
"998 748 OFFCURVE",
"849 666 OFFCURVE",
"596 666 CURVE SMOOTH",
"536 666 OFFCURVE",
"466 674 OFFCURVE",
"435 689 CURVE",
"442 588 LINE",
"560 588 LINE SMOOTH",
"585 588 OFFCURVE",
"595 583 OFFCURVE",
"617 565 CURVE SMOOTH",
"629 555 OFFCURVE",
"691 491 OFFCURVE",
"735 427 CURVE SMOOTH",
"774 370 OFFCURVE",
"866 252 OFFCURVE",
"927 198 CURVE SMOOTH",
"1094 48 OFFCURVE",
"1250 -25 OFFCURVE",
"1408 -25 CURVE SMOOTH"
);
},
{
closed = 1;
nodes = (
"654 0 LINE",
"654 76 LINE",
"340 106 LINE",
"29 76 LINE",
"29 0 LINE"
);
},
{
closed = 1;
nodes = (
"349 1252 LINE",
"349 1358 LINE",
"29 1358 LINE",
"29 1282 LINE"
);
}
);
userData = {
assembly = "NPUSHB[ ]\011/* 10 values pushed */
27 1 2 1 12 1 3 2 2 76 
MPPEM[ ]\011/* MeasurePixelPerEm */
PUSHB[ ]\011/* 1 value pushed */
39 
LT[ ]\011/* LessThan */
IF[ ]\011/* If */
NPUSHB[ ]\011/* 36 values pushed */
0 8 0 1 2 8 1 103 7 1 5 5 6 95 0 6 6 68 77 4 1 2 2 3 95 0 3 3 69 77 0 0 0 69 0 78 
ELSE[ ]\011/* Else */
MPPEM[ ]\011/* MeasurePixelPerEm */
PUSHB[ ]\011/* 1 value pushed */
51 
LT[ ]\011/* LessThan */
IF[ ]\011/* If */
NPUSHB[ ]\011/* 42 values pushed */
0 5 7 8 7 5 114 0 8 0 1 2 8 1 103 0 7 7 6 95 0 6 6 68 77 4 1 2 2 3 95 0 3 3 69 77 0 0 0 69 0 78 
ELSE[ ]\011/* Else */
MPPEM[ ]\011/* MeasurePixelPerEm */
PUSHB[ ]\011/* 1 value pushed */
60 
LT[ ]\011/* LessThan */
IF[ ]\011/* If */
NPUSHB[ ]\011/* 40 values pushed */
0 5 7 8 7 5 114 0 8 0 1 2 8 1 103 4 1 2 0 3 0 2 3 103 0 7 7 6 95 0 6 6 68 77 0 0 0 69 0 78 
ELSE[ ]\011/* Else */
NPUSHB[ ]\011/* 38 values pushed */
0 5 7 8 7 5 114 0 6 0 7 5 6 7 105 0 8 0 1 2 8 1 103 4 1 2 0 3 0 2 3 103 0 0 0 69 0 78 
EIF[ ]\011/* EndIf */
EIF[ ]\011/* EndIf */
EIF[ ]\011/* EndIf */
NPUSHB[ ]\011/* 12 values pushed */
38 38 114 19 34 82 20 24 46 9 11 31 
CALL[ ]\011/* CallFunction */";
};
width = 1552;
},
{
anchors = (
{
name = bottom;
position = "{679, 0}";
},
{
name = top;
position = "{569, 1358}";
}
);
layerId = "16DF9356-34D2-4C02-8100-FB39A491A1B7";
paths = (
{
closed = 1;
nodes = (
"1404 -25 OFFCURVE",
"1429 -24 OFFCURVE",
"1452 -22 CURVE",
"1452 15 LINE",
"1396 15 OFFCURVE",
"1295 65 OFFCURVE",
"1214 136 CURVE SMOOTH",
"1079 255 OFFCURVE",
"893 483 OFFCURVE",
"821 629 CURVE",
"1012 676 OFFCURVE",
"1133 789 OFFCURVE",
"1133 984 CURVE SMOOTH",
"1133 1235 OFFCURVE",
"957 1358 OFFCURVE",
"628 1358 CURVE SMOOTH",
"270 1358 LINE",
"270 0 LINE",
"401 0 LINE",
"401 1288 LINE",
"546 1288 LINE SMOOTH",
"810 1288 OFFCURVE",
"990 1160 OFFCURVE",
"990 984 CURVE SMOOTH",
"990 771 OFFCURVE",
"831 671 OFFCURVE",
"556 671 CURVE SMOOTH",
"506 671 OFFCURVE",
"397 671 OFFCURVE",
"334 727 CURVE",
"347 601 LINE",
"551 601 LINE SMOOTH",
"591 601 OFFCURVE",
"631 590 OFFCURVE",
"651 577 CURVE SMOOTH",
"671 564 OFFCURVE",
"705 515 OFFCURVE",
"764 428 CURVE SMOOTH",
"823 341 OFFCURVE",
"891 258 OFFCURVE",
"945 204 CURVE SMOOTH",
"1005 144 OFFCURVE",
"1215 -25 OFFCURVE",
"1381 -25 CURVE SMOOTH"
);
},
{
closed = 1;
nodes = (
"598 0 LINE",
"598 48 LINE",
"338 78 LINE",
"73 48 LINE",
"73 0 LINE"
);
},
{
closed = 1;
nodes = (
"393 1270 LINE",
"393 1358 LINE",
"73 1358 LINE",
"73 1300 LINE"
);
}
);
width = 1507;
},
{
anchors = (
{
name = bottom;
position = "{684, 0}";
},
{
name = top;
position = "{589, 1358}";
}
);
layerId = "20F63CDD-78BD-4F3A-8DC2-32840B76756A";
leftMetricsKey = "=48";
paths = (
{
closed = 1;
nodes = (
"1307 -25 OFFCURVE",
"1341 -23 OFFCURVE",
"1377 -19 CURVE",
"1377 37 LINE",
"1323 40 OFFCURVE",
"1256 89 OFFCURVE",
"1195 156 CURVE SMOOTH",
"1087 275 OFFCURVE",
"964 450 OFFCURVE",
"865 627 CURVE",
"1076 689 OFFCURVE",
"1176 798 OFFCURVE",
"1176 972 CURVE SMOOTH",
"1176 1233 OFFCURVE",
"942 1358 OFFCURVE",
"638 1358 CURVE SMOOTH",
"206 1358 LINE",
"206 0 LINE",
"450 0 LINE",
"450 1284 LINE",
"550 1284 LINE SMOOTH",
"756 1284 OFFCURVE",
"896 1157 OFFCURVE",
"896 972 CURVE SMOOTH",
"896 766 OFFCURVE",
"786 662 OFFCURVE",
"575 662 CURVE SMOOTH",
"523 662 OFFCURVE",
"434 669 OFFCURVE",
"404 693 CURVE",
"412 591 LINE",
"548 591 LINE SMOOTH",
"567 591 OFFCURVE",
"588 588 OFFCURVE",
"608 568 CURVE SMOOTH",
"617 559 OFFCURVE",
"670 494 OFFCURVE",
"708 427 CURVE SMOOTH",
"748 357 OFFCURVE",
"825 247 OFFCURVE",
"871 200 CURVE SMOOTH",
"994 75 OFFCURVE",
"1138 -25 OFFCURVE",
"1277 -25 CURVE SMOOTH"
);
},
{
closed = 1;
nodes = (
"609 0 LINE",
"609 70 LINE",
"330 100 LINE",
"48 70 LINE",
"48 0 LINE"
);
},
{
closed = 1;
nodes = (
"329 1258 LINE",
"329 1358 LINE",
"48 1358 LINE",
"48 1288 LINE"
);
}
);
width = 1395;
}
);
leftMetricsKey = H;
note = R;
rightKerningGroup = R;
rightMetricsKey = A;
unicode = 0052;
},
{
glyphname = S;
lastChange = "2018-11-20 17:31:40 +0000";
layers = (
{
anchors = (
{
name = bottom;
position = "{515, 0}";
},
{
name = top;
position = "{535, 1358}";
}
);
layerId = "6CE37295-6E30-426D-87AF-6FEE9061C297";
paths = (
{
closed = 1;
nodes = (
"821 -27 OFFCURVE",
"986 143 OFFCURVE",
"986 399 CURVE SMOOTH",
"986 680 OFFCURVE",
"787 764 OFFCURVE",
"570 834 CURVE SMOOTH",
"479 863 OFFCURVE",
"326 913 OFFCURVE",
"326 1076 CURVE SMOOTH",
"326 1201 OFFCURVE",
"417 1300 OFFCURVE",
"561 1300 CURVE SMOOTH",
"703 1300 OFFCURVE",
"841 1197 OFFCURVE",
"841 968 CURVE",
"946 968 LINE",
"1006 1370 LINE",
"901 1370 LINE",
"869 1158 LINE",
"927 1207 LINE",
"815 1328 OFFCURVE",
"694 1384 OFFCURVE",
"543 1384 CURVE SMOOTH",
"294 1384 OFFCURVE",
"103 1233 OFFCURVE",
"103 994 CURVE SMOOTH",
"103 718 OFFCURVE",
"367 630 OFFCURVE",
"478 592 CURVE SMOOTH",
"629 540 OFFCURVE",
"739 495 OFFCURVE",
"739 316 CURVE SMOOTH",
"739 175 OFFCURVE",
"670 68 OFFCURVE",
"528 68 CURVE SMOOTH",
"362 68 OFFCURVE",
"220 216 OFFCURVE",
"220 457 CURVE",
"123 469 LINE",
"77 143 LINE",
"174 18 OFFCURVE",
"374 -27 OFFCURVE",
"526 -27 CURVE SMOOTH"
);
}
);
userData = {
assembly = "MPPEM[ ]\011/* MeasurePixelPerEm */
PUSHB[ ]\011/* 1 value pushed */
60 
LT[ ]\011/* LessThan */
IF[ ]\011/* If */
NPUSHB[ ]\011/* 34 values pushed */
0 1 5 2 5 1 2 128 0 4 4 68 77 0 5 5 3 97 0 3 3 74 77 0 2 2 0 97 0 0 0 75 0 78 
ELSE[ ]\011/* Else */
NPUSHB[ ]\011/* 35 values pushed */
0 4 3 5 3 4 5 128 0 1 5 2 5 1 2 128 0 3 0 5 1 3 5 105 0 2 2 0 97 0 0 0 75 0 78 
EIF[ ]\011/* EndIf */
NPUSHB[ ]\011/* 9 values pushed */
41 34 42 36 37 35 6 11 28 
CALL[ ]\011/* CallFunction */";
};
width = 1052;
},
{
anchors = (
{
name = bottom;
position = "{492, 0}";
},
{
name = top;
position = "{522, 1358}";
}
);
background = {
paths = (
{
closed = 1;
nodes = (
"748 -27 OFFCURVE",
"905 142 OFFCURVE",
"905 370 CURVE SMOOTH",
"905 567 OFFCURVE",
"779 687 OFFCURVE",
"564 767 CURVE SMOOTH",
"366 841 OFFCURVE",
"250 899 OFFCURVE",
"250 1063 CURVE SMOOTH",
"250 1222 OFFCURVE",
"364 1324 OFFCURVE",
"506 1324 CURVE SMOOTH",
"636 1324 OFFCURVE",
"794 1239 OFFCURVE",
"806 966 CURVE",
"863 966 LINE",
"918 1371 LINE",
"861 1371 LINE",
"841 1180 LINE",
"859 1202 LINE",
"751 1351 OFFCURVE",
"614 1385 OFFCURVE",
"511 1385 CURVE SMOOTH",
"301 1385 OFFCURVE",
"149 1244 OFFCURVE",
"149 1025 CURVE SMOOTH",
"149 835 OFFCURVE",
"274 720 OFFCURVE",
"482 648 CURVE SMOOTH",
"713 568 OFFCURVE",
"804 474 OFFCURVE",
"804 329 CURVE SMOOTH",
"804 166 OFFCURVE",
"681 34 OFFCURVE",
"498 34 CURVE SMOOTH",
"328 34 OFFCURVE",
"203 148 OFFCURVE",
"203 468 CURVE",
"148 475 LINE",
"103 109 LINE",
"234 15 OFFCURVE",
"342 -27 OFFCURVE",
"475 -27 CURVE SMOOTH"
);
}
);
};
layerId = "EBD25FEC-6C57-4903-A936-5FDFC9C63FB2";
paths = (
{
closed = 1;
nodes = (
"748 -27 OFFCURVE",
"905 142 OFFCURVE",
"905 370 CURVE SMOOTH",
"905 567 OFFCURVE",
"779 687 OFFCURVE",
"564 767 CURVE SMOOTH",
"366 841 OFFCURVE",
"250 899 OFFCURVE",
"250 1063 CURVE SMOOTH",
"250 1222 OFFCURVE",
"364 1324 OFFCURVE",
"506 1324 CURVE SMOOTH",
"636 1324 OFFCURVE",
"794 1239 OFFCURVE",
"806 966 CURVE",
"863 966 LINE",
"918 1371 LINE",
"861 1371 LINE",
"841 1180 LINE",
"859 1202 LINE",
"751 1351 OFFCURVE",
"614 1385 OFFCURVE",
"511 1385 CURVE SMOOTH",
"301 1385 OFFCURVE",
"149 1244 OFFCURVE",
"149 1025 CURVE SMOOTH",
"149 835 OFFCURVE",
"274 720 OFFCURVE",
"482 648 CURVE SMOOTH",
"713 568 OFFCURVE",
"804 474 OFFCURVE",
"804 329 CURVE SMOOTH",
"804 166 OFFCURVE",
"681 34 OFFCURVE",
"498 34 CURVE SMOOTH",
"328 34 OFFCURVE",
"203 148 OFFCURVE",
"203 468 CURVE",
"148 475 LINE",
"109 157 LINE",
"204 28 OFFCURVE",
"342 -27 OFFCURVE",
"489 -27 CURVE SMOOTH"
);
}
);
width = 1027;
},
{
anchors = (
{
name = bottom;
position = "{485, 0}";
},
{
name = top;
position = "{505, 1358}";
}
);
layerId = "1E14FD48-0E57-4B09-9E12-AF4BF73A87E4";
paths = (
{
closed = 1;
nodes = (
"793 -27 OFFCURVE",
"976 143 OFFCURVE",
"976 399 CURVE SMOOTH",
"976 693 OFFCURVE",
"734 770 OFFCURVE",
"540 834 CURVE SMOOTH",
"433 869 OFFCURVE",
"276 923 OFFCURVE",
"276 1082 CURVE SMOOTH",
"276 1200 OFFCURVE",
"363 1300 OFFCURVE",
"512 1300 CURVE SMOOTH",
"658 1300 OFFCURVE",
"802 1203 OFFCURVE",
"802 968 CURVE",
"907 968 LINE",
"961 1370 LINE",
"856 1370 LINE",
"804 1183 LINE",
"864 1210 LINE",
"764 1338 OFFCURVE",
"614 1384 OFFCURVE",
"485 1384 CURVE SMOOTH",
"260 1384 OFFCURVE",
"53 1232 OFFCURVE",
"53 1001 CURVE SMOOTH",
"53 741 OFFCURVE",
"323 641 OFFCURVE",
"475 584 CURVE SMOOTH",
"593 540 OFFCURVE",
"729 485 OFFCURVE",
"729 315 CURVE SMOOTH",
"729 175 OFFCURVE",
"637 68 OFFCURVE",
"503 68 CURVE SMOOTH",
"349 68 OFFCURVE",
"195 210 OFFCURVE",
"195 461 CURVE",
"100 467 LINE",
"52 93 LINE",
"190 9 OFFCURVE",
"355 -27 OFFCURVE",
"493 -27 CURVE SMOOTH"
);
}
);
userData = {
assembly = "MPPEM[ ]\011/* MeasurePixelPerEm */
PUSHB[ ]\011/* 1 value pushed */
60 
LT[ ]\011/* LessThan */
IF[ ]\011/* If */
NPUSHB[ ]\011/* 34 values pushed */
0 1 5 2 5 1 2 128 0 4 4 68 77 0 5 5 3 97 0 3 3 74 77 0 2 2 0 97 0 0 0 75 0 78 
ELSE[ ]\011/* Else */
NPUSHB[ ]\011/* 35 values pushed */
0 4 3 5 3 4 5 128 0 1 5 2 5 1 2 128 0 3 0 5 1 3 5 105 0 2 2 0 97 0 0 0 75 0 78 
EIF[ ]\011/* EndIf */
NPUSHB[ ]\011/* 9 values pushed */
41 34 42 36 37 35 6 11 28 
CALL[ ]\011/* CallFunction */";
};
width = 1027;
},
{
anchors = (
{
name = bottom;
position = "{542, 0}";
},
{
name = top;
position = "{552, 1358}";
}
);
layerId = "16DF9356-34D2-4C02-8100-FB39A491A1B7";
paths = (
{
closed = 1;
nodes = (
"812 -27 OFFCURVE",
"980 142 OFFCURVE",
"980 371 CURVE SMOOTH",
"980 665 OFFCURVE",
"701 749 OFFCURVE",
"587 784 CURVE SMOOTH",
"407 840 OFFCURVE",
"280 901 OFFCURVE",
"280 1063 CURVE SMOOTH",
"280 1222 OFFCURVE",
"401 1324 OFFCURVE",
"557 1324 CURVE SMOOTH",
"698 1324 OFFCURVE",
"841 1241 OFFCURVE",
"872 966 CURVE",
"942 966 LINE",
"1001 1371 LINE",
"931 1371 LINE",
"900 1161 LINE",
"928 1213 LINE",
"805 1351 OFFCURVE",
"665 1385 OFFCURVE",
"556 1385 CURVE SMOOTH",
"334 1385 OFFCURVE",
"171 1244 OFFCURVE",
"171 1025 CURVE SMOOTH",
"171 844 OFFCURVE",
"279 710 OFFCURVE",
"528 640 CURVE SMOOTH",
"652 605 OFFCURVE",
"872 542 OFFCURVE",
"872 329 CURVE SMOOTH",
"872 165 OFFCURVE",
"741 34 OFFCURVE",
"558 34 CURVE SMOOTH",
"374 34 OFFCURVE",
"248 168 OFFCURVE",
"248 468 CURVE",
"178 475 LINE",
"130 107 LINE",
"274 10 OFFCURVE",
"382 -27 OFFCURVE",
"519 -27 CURVE SMOOTH"
);
}
);
width = 1129;
},
{
anchors = (
{
name = bottom;
position = "{505, 0}";
},
{
name = top;
position = "{522, 1358}";
}
);
layerId = "20F63CDD-78BD-4F3A-8DC2-32840B76756A";
paths = (
{
closed = 1;
nodes = (
"770 -27 OFFCURVE",
"910 143 OFFCURVE",
"910 390 CURVE SMOOTH",
"910 616 OFFCURVE",
"791 744 OFFCURVE",
"589 811 CURVE SMOOTH",
"409 871 OFFCURVE",
"344 947 OFFCURVE",
"344 1074 CURVE SMOOTH",
"344 1203 OFFCURVE",
"417 1300 OFFCURVE",
"541 1300 CURVE SMOOTH",
"657 1300 OFFCURVE",
"780 1196 OFFCURVE",
"780 968 CURVE",
"885 968 LINE",
"932 1370 LINE",
"827 1370 LINE",
"801 1145 LINE",
"846 1185 LINE",
"770 1323 OFFCURVE",
"656 1384 OFFCURVE",
"521 1384 CURVE SMOOTH",
"311 1384 OFFCURVE",
"152 1232 OFFCURVE",
"152 1008 CURVE SMOOTH",
"152 809 OFFCURVE",
"259 680 OFFCURVE",
"461 608 CURVE SMOOTH",
"630 548 OFFCURVE",
"698 454 OFFCURVE",
"698 317 CURVE SMOOTH",
"698 177 OFFCURVE",
"636 60 OFFCURVE",
"502 60 CURVE SMOOTH",
"357 60 OFFCURVE",
"246 212 OFFCURVE",
"246 465 CURVE",
"149 480 LINE",
"108 119 LINE",
"244 7 OFFCURVE",
"394 -27 OFFCURVE",
"512 -27 CURVE SMOOTH"
);
}
);
width = 1027;
}
);
leftKerningGroup = S;
note = S;
rightKerningGroup = S;
unicode = 0053;
},
